<svg xmlns="http://www.w3.org/2000/svg" width="102.691" height="132.417" viewBox="0 0 102.691 132.417">
  <g id="Group_488" data-name="Group 488" transform="translate(-480.704 -120.147)">
    <g id="Group_481" data-name="Group 481" transform="translate(548.151 139.814)">
      <g id="Group_479" data-name="Group 479">
        <path id="Path_2472" data-name="Path 2472" d="M530.085,130.671c-3.1-1.629-7.989-.179-11.653,3.686-4.143,4.366-5.142,10.144-2.229,12.905a5,5,0,0,0,1.459.931C518.151,148.162,530.193,147.242,530.085,130.671Z" transform="translate(-514.534 -130.011)" fill="#fff193"/>
        <path id="Path_2473" data-name="Path 2473" d="M529.642,131.122a4.846,4.846,0,0,0-1.116-.78c.108,16.572-11.934,17.491-12.423,17.523,3.106,1.358,7.775-.11,11.31-3.838C531.556,139.661,532.555,133.883,529.642,131.122Z" transform="translate(-512.975 -129.683)" fill="#ffb658"/>
      </g>
      <g id="Group_480" data-name="Group 480">
        <g id="Path_2474" data-name="Path 2474" transform="translate(-514.534 -130.011)" fill="none" stroke-miterlimit="10">
          <path d="M528.972,144.355c4.143-4.366,5.142-10.144,2.229-12.905a4.846,4.846,0,0,0-1.116-.78c-3.1-1.629-7.989-.179-11.653,3.686-4.143,4.366-5.142,10.144-2.229,12.905a5,5,0,0,0,1.459.931C520.768,149.551,525.438,148.084,528.972,144.355Z" stroke="none"/>
          <path d="M 520.2023315429688 147.6909332275391 C 521.45166015625 147.6909332275391 522.8343505859375 147.3403778076172 524.2010498046875 146.6771697998047 C 525.6455688476563 145.9762268066406 527.0445556640625 144.9354705810547 528.2470703125 143.6671905517578 C 530.1165161132813 141.6969909667969 531.359619140625 139.3756256103516 531.7474975585938 137.1307220458984 C 532.10986328125 135.0333862304688 531.671630859375 133.2737274169922 530.5134887695313 132.1758728027344 L 530.5115966796875 132.174072265625 L 530.5097045898438 132.1722717285156 C 530.2774658203125 131.9497985839844 529.986572265625 131.7482299804688 529.6194458007813 131.5555725097656 C 528.9329833984375 131.1944274902344 528.1237182617188 131.0113220214844 527.2141723632813 131.0113220214844 C 525.9640502929688 131.0113220214844 524.5792236328125 131.3632049560547 523.209228515625 132.0289459228516 C 521.7623901367188 132.7320709228516 520.3612670898438 133.7749786376953 519.1571044921875 135.0452728271484 C 517.2876586914063 137.0154876708984 516.0445556640625 139.3368530273438 515.6566772460938 141.5817718505859 C 515.2943115234375 143.6790924072266 515.7325439453125 145.4387512207031 516.8908081054688 146.5367736816406 C 517.1901245117188 146.8205871582031 517.5736694335938 147.0628814697266 518.0626831054688 147.2771301269531 C 518.6907958984375 147.5516815185547 519.41064453125 147.6909027099609 520.2022094726563 147.6909332275391 L 520.2023315429688 147.6909332275391 M 520.2021484375 148.6909332275391 C 519.28759765625 148.6909027099609 518.4273681640625 148.5278778076172 517.6621704101563 148.1934204101563 C 517.1298217773438 147.9601745605469 516.6294555664063 147.6670837402344 516.2026977539063 147.2623596191406 C 513.2898559570313 144.5010375976563 514.2887573242188 138.7232360839844 518.4317016601563 134.3569641113281 C 521.0975952148438 131.5446624755859 524.4129028320313 130.0113220214844 527.2141723632813 130.0113220214844 C 528.2635498046875 130.0113220214844 529.2412109375 130.2266540527344 530.0850219726563 130.6705627441406 C 530.4877319335938 130.8818969726563 530.8684692382813 131.1311340332031 531.2014770507813 131.4501342773438 C 534.1143188476563 134.21142578125 533.1154174804688 139.9892578125 528.9724731445313 144.3554992675781 C 526.308349609375 147.1653594970703 523.0001220703125 148.6910095214844 520.2021484375 148.6909332275391 Z" stroke="none"/>
        </g>
      </g>
    </g>
    <g id="Group_482" data-name="Group 482" transform="translate(545.447 214.6)">
      <ellipse id="Ellipse_94" data-name="Ellipse 94" cx="9.277" cy="15.334" rx="9.277" ry="15.334" transform="translate(0 0.343) rotate(-1.06)" fill="#f57733"/>
      <path id="Path_2475" data-name="Path 2475" d="M519.133,197.055c-2.983-5.455-2.6-12.461-1.986-15.477a4.5,4.5,0,0,1,2.145-2.985c5.612-3.264,10.509-.317,12.331,1.073-1-6.96-4.829-12.142-9.309-12.056-5.124.1-9.153,7.034-8.992,15.5C513.435,189.391,515.82,194.748,519.133,197.055Z" transform="translate(-513.037 -167.437)" fill="#d15d1f"/>
      <g id="Ellipse_95" data-name="Ellipse 95" transform="translate(0 0.343) rotate(-1.06)" fill="none" stroke="#000" stroke-miterlimit="10" stroke-width="1">
        <ellipse cx="9.277" cy="15.334" rx="9.277" ry="15.334" stroke="none"/>
        <ellipse cx="9.277" cy="15.334" rx="8.777" ry="14.834" fill="none"/>
      </g>
      <ellipse id="Ellipse_96" data-name="Ellipse 96" cx="2.449" cy="4.246" rx="2.449" ry="4.246" transform="translate(6.03 18.636) rotate(-3.307)" fill="#ff9932"/>
      <ellipse id="Ellipse_97" data-name="Ellipse 97" cx="3.062" cy="1.008" rx="3.062" ry="1.008" transform="translate(12.836 25.239) rotate(-84.442)" fill="#ff9932"/>
      <path id="Path_2476" data-name="Path 2476" d="M520.755,178.844s1.033,6.079-2.933,7.169" transform="translate(-508.562 -156.272)" fill="none" stroke="#000" stroke-miterlimit="10" stroke-width="1"/>
    </g>
    <path id="Path_2477" data-name="Path 2477" d="M504.7,160.851c-20.368-32.159-11.454-40.7-11.454-40.7,9.53,27.155,24.742,31.343,24.742,31.343l.01.04a39.376,39.376,0,1,1-13.3,9.321Z" transform="translate(10.538 0)" fill="#fff193"/>
    <path id="Path_2478" data-name="Path 2478" d="M495.59,128.459a144.886,144.886,0,0,0,11.051,30.44l-.857-.638-3.676-4.233-5.329-11.374-4.893-15.563.542-4.743Z" transform="translate(11.111 2.187)" fill="#ffb658"/>
    <path id="Path_2479" data-name="Path 2479" d="M518.474,142.962a9.6,9.6,0,0,1,4.779-.363c4.96.855,15.878,4.566,18.275,20.663,2.251,15.13-10.76,19.006-18.2,19.993a15.884,15.884,0,0,1-14.66-5.82c-2.8-3.6-4.633-9.209-2.7-17.858C505.967,159.578,507.933,146.621,518.474,142.962Z" transform="translate(24.306 22.165)" fill="#fff"/>
    <g id="Group_483" data-name="Group 483" transform="translate(532.002 221.558)">
      <ellipse id="Ellipse_98" data-name="Ellipse 98" cx="9.277" cy="15.334" rx="9.277" ry="15.334" transform="translate(0 0.343) rotate(-1.06)" fill="#f57733"/>
      <path id="Path_2480" data-name="Path 2480" d="M512.389,200.545c-2.983-5.455-2.6-12.461-1.986-15.477a4.5,4.5,0,0,1,2.147-2.985c5.61-3.264,10.507-.317,12.329,1.073-1-6.96-4.829-12.142-9.309-12.056-5.124.1-9.151,7.034-8.992,15.5C506.693,192.881,509.075,198.238,512.389,200.545Z" transform="translate(-506.294 -170.927)" fill="#d15d1f"/>
      <g id="Ellipse_99" data-name="Ellipse 99" transform="translate(0 0.343) rotate(-1.06)" fill="none" stroke="#000" stroke-miterlimit="10" stroke-width="1">
        <ellipse cx="9.277" cy="15.334" rx="9.277" ry="15.334" stroke="none"/>
        <ellipse cx="9.277" cy="15.334" rx="8.777" ry="14.834" fill="none"/>
      </g>
      <ellipse id="Ellipse_100" data-name="Ellipse 100" cx="2.449" cy="4.246" rx="2.449" ry="4.246" transform="translate(6.03 18.636) rotate(-3.307)" fill="#ff9932"/>
      <ellipse id="Ellipse_101" data-name="Ellipse 101" cx="3.062" cy="1.008" rx="3.062" ry="1.008" transform="translate(12.836 25.239) rotate(-84.442)" fill="#ff9932"/>
      <path id="Path_2481" data-name="Path 2481" d="M514.011,182.334s1.035,6.081-2.933,7.169" transform="translate(-501.819 -159.762)" fill="none" stroke="#000" stroke-miterlimit="10" stroke-width="1"/>
    </g>
    <path id="Path_2482" data-name="Path 2482" d="M508.662,174.506a15.872,15.872,0,0,0,14.66,5.812c5.822-.768,15.035-3.3,17.708-11.6-.305.245-15.882,12.826-27.306,1.41-8.81-8.81-5.016-19.965-2.735-24.722a26.293,26.293,0,0,0-5.02,11.243C504.03,165.291,505.864,170.9,508.662,174.506Z" transform="translate(24.307 25.098)" fill="#ece0d6"/>
    <path id="Path_2483" data-name="Path 2483" d="M513.343,161.63a2.567,2.567,0,1,0,.957-4.984,4.065,4.065,0,0,1,2.584-1.986c2.691-.568,5.536,2.115,6.358,5.993s-.7,7.482-3.389,8.053-5.538-2.113-6.358-5.993A10.3,10.3,0,0,1,513.343,161.63Z" transform="translate(32.434 34.221)"/>
    <path id="Path_2484" data-name="Path 2484" d="M556.6,167.012a68.517,68.517,0,0,0,8.808-5.439,39.389,39.389,0,0,1-69.6,6.177A67.625,67.625,0,0,0,556.6,167.012Z" transform="translate(15.006 41.166)" fill="#ffb658"/>
    <g id="Path_2485" data-name="Path 2485" transform="translate(10.538 0)" fill="none" stroke-miterlimit="10">
      <path d="M504.7,160.851c-20.368-32.159-11.454-40.7-11.454-40.7C504.095,148.886,518,151.53,518,151.53a39.376,39.376,0,1,1-13.3,9.321Z" stroke="none"/>
      <path d="M 493.0687866210938 122.4429626464844 C 492.6181640625 123.6197814941406 492.19091796875 125.5257415771484 492.3385620117188 128.3878631591797 C 492.5175170898438 131.8577423095703 493.4993896484375 135.9556884765625 495.2568969726563 140.5677947998047 C 497.4765625 146.3927154541016 500.9395141601563 153.0368957519531 505.5496826171875 160.3157806396484 L 505.9630737304688 160.9685211181641 L 505.435791015625 161.5332794189453 C 502.77001953125 164.3885650634766 500.5599975585938 167.6286163330078 498.8670654296875 171.1634216308594 C 497.1907958984375 174.6635131835938 496.0546875 178.3820343017578 495.4902954101563 182.2156982421875 C 494.3177490234375 190.1801605224609 495.66015625 198.1811370849609 499.3724975585938 205.3537445068359 C 502.6691284179688 211.7246551513672 507.6519165039063 217.0225677490234 513.7822265625 220.6747283935547 C 519.7457275390625 224.2275085449219 526.5621948242188 226.1054077148438 533.4945678710938 226.1054077148438 C 536.49658203125 226.1054077148438 539.4967041015625 225.7498779296875 542.4116821289063 225.0487060546875 C 545.4129028320313 224.3267517089844 548.3380126953125 223.2344055175781 551.105712890625 221.8019866943359 C 555.7085571289063 219.4203033447266 559.706787109375 216.2088317871094 562.9893798828125 212.2567749023438 C 566.160400390625 208.4391174316406 568.5341796875 204.0941772460938 570.044921875 199.3426818847656 C 571.5556640625 194.5911407470703 572.1270751953125 189.6730651855469 571.7431640625 184.7249908447266 C 571.345703125 179.6027374267578 569.936279296875 174.6716918945313 567.5541381835938 170.06884765625 C 564.2603759765625 163.7042083740234 559.2837524414063 158.4136199951172 553.1622314453125 154.7689971923828 C 547.2091064453125 151.2246704101563 540.4013061523438 149.351318359375 533.4714965820313 149.3514251708984 C 528.2672119140625 149.3518676757813 523.1952514648438 150.3941802978516 518.3966064453125 152.4494323730469 L 518.1160278320313 152.5696105957031 L 517.816162109375 152.5126190185547 C 517.6632080078125 152.4835357666016 514.01318359375 151.7502136230469 509.0326538085938 147.3665618896484 C 504.7359619140625 143.5848236083984 498.5614624023438 136.2227630615234 493.0687866210938 122.4429626464844 M 493.2508544921875 120.1469879150391 C 504.0947265625 148.886474609375 518.0029296875 151.5301971435547 518.0029296875 151.5301971435547 C 523.0233764648438 149.3799438476563 528.2823486328125 148.3518676757813 533.471435546875 148.3514251708984 C 547.7105102539063 148.3502349853516 561.4444580078125 156.0871276855469 568.4422607421875 169.6092376708984 C 578.4407958984375 188.9284210205078 570.884521484375 212.6936187744141 551.5653076171875 222.6901245117188 C 545.7780151367188 225.685302734375 539.5901489257813 227.1054229736328 533.4945678710938 227.1054229736328 C 519.2417602539063 227.1054229736328 505.4863891601563 219.34521484375 498.484375 205.8133087158203 C 490.6171875 190.6131439208984 493.6556396484375 172.6855621337891 504.704833984375 160.8508453369141 C 484.3369140625 128.6920776367188 493.2508544921875 120.1469879150391 493.2508544921875 120.1469879150391 Z" stroke="none"/>
    </g>
    <g id="Path_2486" data-name="Path 2486" transform="translate(24.306 22.165)" fill="none" stroke-miterlimit="10">
      <path d="M518.474,142.962a9.6,9.6,0,0,1,4.779-.363c4.96.855,15.878,4.566,18.275,20.663,2.251,15.13-10.76,19.006-18.2,19.993a15.884,15.884,0,0,1-14.66-5.82c-2.8-3.6-4.633-9.209-2.7-17.858C505.967,159.578,507.933,146.621,518.474,142.962Z" stroke="none"/>
      <path d="M 521.5442504882813 143.4522705078125 C 520.5930786132813 143.4522705078125 519.6703491210938 143.6051940917969 518.8015747070313 143.9068298339844 C 516.5572509765625 144.685791015625 514.5432739257813 145.9861907958984 512.8156127929688 147.7719421386719 C 511.4158325195313 149.2187805175781 510.1964111328125 150.9877624511719 509.191162109375 153.0297698974609 C 507.4573974609375 156.5519409179688 506.96044921875 159.6973724365234 506.955810546875 159.7278442382813 L 506.9505615234375 159.7623901367188 L 506.9429321289063 159.7964782714844 C 505.3504638671875 166.903564453125 506.1947021484375 172.6316986083984 509.4522705078125 176.8219604492188 C 510.809326171875 178.568359375 512.6046142578125 179.9988708496094 514.6439208984375 180.9588623046875 C 516.6448364257813 181.9007568359375 518.8926391601563 182.3986206054688 521.1444702148438 182.3986206054688 C 521.8260498046875 182.3986206054688 522.5147094726563 182.3532867431641 523.1909790039063 182.2639312744141 C 526.1139526367188 181.8764495849609 528.7680053710938 181.1944274902344 531.079345703125 180.2367858886719 C 534.1517333984375 178.9638366699219 536.5307006835938 177.2284698486328 538.150146484375 175.0789184570313 C 540.435302734375 172.0456085205078 541.23876953125 168.1194000244141 540.5380859375 163.4094848632813 C 539.5350341796875 156.672119140625 536.9014282226563 151.4817657470703 532.71044921875 147.9825897216797 C 529.2948608398438 145.130859375 525.5896606445313 144.0169830322266 523.0833129882813 143.5848083496094 C 522.5715942382813 143.4968566894531 522.0537719726563 143.4522705078125 521.5442504882813 143.4522705078125 M 521.5442504882813 142.4522705078125 C 522.1146850585938 142.4522705078125 522.6863403320313 142.5019378662109 523.252685546875 142.5992584228516 C 528.2130126953125 143.4545745849609 539.130615234375 147.1648712158203 541.5272216796875 163.2622222900391 C 543.778076171875 178.3925933837891 530.7669677734375 182.2683868408203 523.3223876953125 183.2552642822266 C 522.5960693359375 183.3512268066406 521.8682861328125 183.3986206054688 521.1444702148438 183.3986206054688 C 516.31884765625 183.3986206054688 511.6602172851563 181.2930145263672 508.6626586914063 177.4355621337891 C 505.8634643554688 173.8349151611328 504.0292358398438 168.2265777587891 505.9671020507813 159.5778350830078 C 505.9671020507813 159.5778350830078 507.9329223632813 146.6205902099609 518.4736938476563 142.9621124267578 C 519.4645385742188 142.6181030273438 520.5021362304688 142.4522705078125 521.5442504882813 142.4522705078125 Z" stroke="none"/>
    </g>
    <g id="Group_484" data-name="Group 484" transform="translate(564.594 159.805)">
      <path id="Path_2487" data-name="Path 2487" d="M523.994,155.578c.122.459.245.919.357,1.382.74,3.04,4.6,17.184,12.259,16.327,8.583-.963,1.571-20.416,1.571-20.416s-3.158-9.775-9.825-12.4a3.164,3.164,0,0,0-3.782,1.118C523.217,143.572,521.879,147.659,523.994,155.578Z" transform="translate(-522.673 -139.834)" fill="#fff"/>
      <path id="Path_2488" data-name="Path 2488" d="M526.084,167.833c1.922,2.767,4.4,4.781,7.474,4.436,8.792-.983,1.611-20.92,1.611-20.92a28.257,28.257,0,0,0-5.7-9.674,33.8,33.8,0,0,1,6.121,17.543C535.8,163.626,534.906,170.526,526.084,167.833Z" transform="translate(-519.499 -138.412)" fill="#ece0d6"/>
      <path id="Path_2489" data-name="Path 2489" d="M526.667,155.38a1.584,1.584,0,0,0,.253-.038,1.864,1.864,0,0,0,1.112-2.392,1.845,1.845,0,0,0-1.491-1.184,1.947,1.947,0,0,1,1.057-1.525c1.453-.53,3.647,1.828,4.9,5.265s1.1,6.657-.355,7.187-3.647-1.83-4.9-5.267A14.916,14.916,0,0,1,526.667,155.38Z" transform="translate(-519.045 -129.975)"/>
      <g id="Path_2490" data-name="Path 2490" transform="translate(-522.781 -140.038)" fill="none" stroke-miterlimit="10">
        <path d="M523.911,155.75c.126.471.251.943.367,1.418.758,3.116,4.711,17.609,12.563,16.729,8.794-.987,1.609-20.92,1.609-20.92s-3.236-10.018-10.066-12.706a3.244,3.244,0,0,0-3.876,1.146C523.116,143.447,521.746,147.636,523.911,155.75Z" stroke="none"/>
        <path d="M 527.157470703125 141.0383453369141 L 527.1575317382813 141.0383453369141 C 526.4187622070313 141.0383453369141 525.7365112304688 141.3910217285156 525.3319091796875 141.9828033447266 C 524.5526733398438 143.1192932128906 524.0607299804688 144.6079559326172 523.8697509765625 146.4074554443359 C 523.6022338867188 148.9277801513672 523.9412231445313 151.9843902587891 524.877197265625 155.4922790527344 C 525.01318359375 156.0016021728516 525.1350708007813 156.46142578125 525.2495727539063 156.9315185546875 C 525.630615234375 158.4988098144531 526.7207641601563 162.5422821044922 528.609619140625 166.2299346923828 C 529.6603393554688 168.2811889648438 530.7922973632813 169.8916168212891 531.9740600585938 171.0164794921875 C 533.3118286132813 172.289794921875 534.7199096679688 172.9354248046875 536.1591796875 172.9354248046875 C 536.3468017578125 172.9354248046875 536.53857421875 172.9246063232422 536.7288818359375 172.9032897949219 C 537.8497314453125 172.7775115966797 538.6702880859375 172.2733917236328 539.2374267578125 171.3621063232422 C 540.439697265625 169.4303741455078 540.5382080078125 165.7357177734375 539.5224609375 160.6775970458984 C 538.7284545898438 156.7237396240234 537.5206909179688 153.3494873046875 537.5086669921875 153.3160247802734 L 537.5029296875 153.3002319335938 L 537.497802734375 153.2842559814453 C 537.4669189453125 153.1885833740234 534.334228515625 143.6871337890625 528.0177612304688 141.2018432617188 C 527.7412719726563 141.0933685302734 527.4518432617188 141.0383605957031 527.157470703125 141.0383453369141 M 527.1575927734375 140.0383453369141 C 527.5679931640625 140.0383605957031 527.9838256835938 140.1143188476563 528.3829956054688 140.2709197998047 C 535.2135620117188 142.9584808349609 538.4494018554688 152.9769134521484 538.4494018554688 152.9769134521484 C 538.4494018554688 152.9769134521484 545.6347045898438 172.9101715087891 536.8403930664063 173.8970489501953 C 536.6099243164063 173.9228668212891 536.3829956054688 173.9354248046875 536.1591796875 173.9354248046875 C 528.760009765625 173.9354248046875 525.0132446289063 160.1924133300781 524.2778930664063 157.1677398681641 C 524.1622924804688 156.6932220458984 524.0366821289063 156.2207183837891 523.9110717773438 155.7501983642578 C 521.7459106445313 147.6357269287109 523.1155395507813 143.4469146728516 524.5071411132813 141.4173126220703 C 525.1185302734375 140.5231475830078 526.1207275390625 140.038330078125 527.1575927734375 140.0383453369141 Z" stroke="none"/>
      </g>
    </g>
    <path id="Path_2491" data-name="Path 2491" d="M504.58,136.342s5.236,2.931,14.773,1.962" transform="translate(23.726 16.093)" fill="none" stroke="#000" stroke-miterlimit="10" stroke-width="1"/>
    <g id="Group_487" data-name="Group 487" transform="translate(480.704 167.939)">
      <g id="Group_485" data-name="Group 485">
        <path id="Path_2492" data-name="Path 2492" d="M480.84,149.557c1.1-3.322,5.634-5.666,10.956-5.421,6.013.277,10.738,3.75,10.553,7.76a4.937,4.937,0,0,1-.409,1.681C501.567,153.893,492.248,161.577,480.84,149.557Z" transform="translate(-480.57 -144.118)" fill="#fff193"/>
        <path id="Path_2493" data-name="Path 2493" d="M480.71,148.182a4.966,4.966,0,0,1,.265-1.336c11.408,12.02,20.727,4.336,21.1,4.019-1.3,3.134-5.68,5.311-10.812,5.074C485.249,155.664,480.526,152.189,480.71,148.182Z" transform="translate(-480.704 -141.407)" fill="#ffb658"/>
        <path id="Path_2494" data-name="Path 2494" d="M481.935,169.6a5.6,5.6,0,0,1,.118-4.135c11.922,11.643,20.372-2.333,20.456-2.472.255,3.441-2.887,7.357-7.756,9.3C489.164,174.53,483.426,173.321,481.935,169.6Z" transform="translate(-479.822 -125.367)" fill="#ffb658"/>
        <path id="Path_2495" data-name="Path 2495" d="M481.823,168.106c1.011-2.64,3.661-5.2,7.3-6.659,5.588-2.235,11.326-1.027,12.818,2.7a5.014,5.014,0,0,1,.335,1.489C502.195,165.774,493.745,179.75,481.823,168.106Z" transform="translate(-479.593 -128.013)" fill="#fff193"/>
      </g>
      <g id="Group_486" data-name="Group 486">
        <g id="Path_2496" data-name="Path 2496" transform="translate(-480.704 -144.118)" fill="none" stroke-miterlimit="10">
          <path d="M491.262,158.65c-6.013-.275-10.736-3.75-10.553-7.758a4.966,4.966,0,0,1,.265-1.336c1.1-3.322,5.634-5.666,10.956-5.421,6.013.277,10.738,3.75,10.553,7.76a4.937,4.937,0,0,1-.409,1.681C500.778,156.71,496.394,158.887,491.262,158.65Z" stroke="none"/>
          <path d="M 492.0244445800781 157.667724609375 C 496.3083801269531 157.667724609375 500.0610046386719 155.8280334472656 501.151123046875 153.1916198730469 C 501.3570556640625 152.6970977783203 501.4659118652344 152.2586059570313 501.4840393066406 151.8491058349609 C 501.5577697753906 150.2549896240234 500.65380859375 148.6826171875 498.9386901855469 147.4216156005859 C 497.1029052734375 146.0719299316406 494.5975646972656 145.2597503662109 491.8841552734375 145.1346893310547 C 491.6460571289063 145.1237335205078 491.4053344726563 145.1181640625 491.1686401367188 145.1181640625 C 488.9317932128906 145.1181640625 486.7657165527344 145.6204528808594 485.0693969726563 146.5325012207031 C 483.4712524414063 147.3917846679688 482.3540344238281 148.5778503417969 481.9234008789063 149.872802734375 C 481.7944946289063 150.2596435546875 481.7241821289063 150.6087493896484 481.7084655761719 150.938232421875 C 481.6355285644531 152.5320587158203 482.5397644042969 154.1042633056641 484.254638671875 155.365234375 C 486.0905456542969 156.7151794433594 488.5954895019531 157.5269927978516 491.3085327148438 157.6511383056641 C 491.5465698242188 157.6621398925781 491.7874450683594 157.667724609375 492.0244445800781 157.667724609375 M 492.0244445800781 158.667724609375 C 491.7722473144531 158.667724609375 491.5185546875 158.6619110107422 491.2623291015625 158.6500701904297 C 485.249267578125 158.3749237060547 480.526123046875 154.8998870849609 480.7095336914063 150.8925018310547 C 480.7314453125 150.4319305419922 480.8311767578125 149.9873199462891 480.9746704101563 149.5566864013672 C 482.0261535644531 146.3948822021484 486.181640625 144.1181640625 491.1686401367188 144.1181640625 C 491.4206237792969 144.1181640625 491.6742553710938 144.1239624023438 491.93017578125 144.1357574462891 C 497.9432983398438 144.4128875732422 502.6683959960938 147.8859405517578 502.4829711914063 151.8953094482422 C 502.45703125 152.4814910888672 502.297607421875 153.0397186279297 502.0742797851563 153.5760345458984 C 500.8430786132813 156.5537109375 496.8236083984375 158.667724609375 492.0244445800781 158.667724609375 Z" stroke="none"/>
        </g>
        <g id="Path_2497" data-name="Path 2497" transform="translate(-479.822 -128.013)" fill="none" stroke-miterlimit="10">
          <path d="M481.935,172.241a5.6,5.6,0,0,1,.118-4.135c1.011-2.64,3.661-5.2,7.3-6.659,5.588-2.235,11.326-1.027,12.818,2.7a5.014,5.014,0,0,1,.335,1.489c.255,3.441-2.887,7.357-7.756,9.3C489.164,177.176,483.426,175.968,481.935,172.241Z" stroke="none"/>
          <path d="M 489.1694030761719 175.0621185302734 C 490.8596496582031 175.0621185302734 492.6616516113281 174.6984405517578 494.3806762695313 174.0103149414063 C 496.5616760253906 173.1377410888672 498.4790954589844 171.7882232666016 499.7797546386719 170.2103424072266 C 501.0012512207031 168.728515625 501.6159057617188 167.1295623779297 501.5105285644531 165.7084197998047 C 501.4786376953125 165.2806549072266 501.3888854980469 164.8790283203125 501.2445068359375 164.5164794921875 C 500.8548583984375 163.5434112548828 500.1031494140625 162.764892578125 499.01025390625 162.2025299072266 C 497.8948669433594 161.6286010742188 496.4861450195313 161.3252258300781 494.9363403320313 161.3252258300781 C 493.2464904785156 161.3252258300781 491.4449462890625 161.6884918212891 489.7266235351563 162.3757019042969 C 488.0852966308594 163.0324096679688 486.5879211425781 163.9630279541016 485.3963928222656 165.0669708251953 C 484.2713317871094 166.1092987060547 483.4378356933594 167.2839202880859 482.9857177734375 168.4646301269531 C 482.5032348632813 169.7215728759766 482.4619445800781 170.8672637939453 482.8629150390625 171.8696899414063 C 483.2525329589844 172.8431854248047 484.0040893554688 173.6220092773438 485.0967102050781 174.1845703125 C 486.2117919921875 174.7586669921875 487.6200866699219 175.0621185302734 489.1694030761719 175.0621185302734 M 489.1694030761719 176.0621185302734 C 485.7508239746094 176.0621185302734 482.9184875488281 174.6998291015625 481.9345092773438 172.2412567138672 C 481.4161376953125 170.9453277587891 481.5118408203125 169.5138397216797 482.0521240234375 168.1062774658203 C 483.0629272460938 165.4665985107422 485.712646484375 162.9046478271484 489.3551635742188 161.4472503662109 C 491.2557067871094 160.6871643066406 493.1741333007813 160.3252258300781 494.9363403320313 160.3252258300781 C 498.3557739257813 160.3252258300781 501.1886596679688 161.6870574951172 502.1728515625 164.1447296142578 C 502.3641967773438 164.6252288818359 502.4698486328125 165.1256561279297 502.5077514648438 165.6340789794922 C 502.762939453125 169.0752410888672 499.620849609375 172.9908905029297 494.7521362304688 174.9387664794922 C 492.8509216308594 175.6997985839844 490.93212890625 176.0621185302734 489.1694030761719 176.0621185302734 Z" stroke="none"/>
        </g>
      </g>
    </g>
  </g>
</svg>
