<svg xmlns="http://www.w3.org/2000/svg" xmlns:xlink="http://www.w3.org/1999/xlink" width="506.303" height="697.35" viewBox="0 0 506.303 697.35"><defs><style>.a,.aa,.ab,.ac,.ad,.ae,.af,.ah,.ak,.c,.e,.f,.g,.h,.i,.j,.k,.l,.m,.n,.o,.p,.q,.r,.s,.t,.u,.v,.w,.x,.y,.z{stroke:rgba(0,0,0,0);}.a,.aa,.ab,.ac,.ad,.ae,.af,.ag,.ah,.ai,.aj,.ak,.al,.c,.d,.e,.f,.g,.h,.i,.j,.k,.l,.m,.n,.o,.p,.q,.r,.s,.t,.u,.v,.w,.x,.y,.z{stroke-width:2px;}.a{fill:url(#a);}.ai,.ap,.b,.d{fill:none;}.ag,.ai,.aj,.b,.d{stroke-miterlimit:10;}.c{fill:url(#b);}.ag,.aj,.al,.d{stroke:#000;}.e{fill:url(#c);}.g{fill:url(#d);}.h{opacity:0.3;}.i{fill:url(#e);}.aj,.al,.j,.m,.v{fill:#fff;}.k{fill:#424242;}.l{fill:url(#f);}.m{opacity:0.15;}.n{fill:#551907;}.o,.v{opacity:0.2;}.p{fill:#9b6720;}.q{fill:#e87f2e;}.r{fill:url(#g);}.s{fill:url(#h);}.t{fill:url(#i);}.u{fill:url(#j);}.w{fill:#799d39;}.x{fill:url(#k);}.y{fill:#4c6013;}.z{opacity:0.04;}.aa{fill:url(#l);}.ab{fill:url(#m);}.ac{fill:#a4c127;}.ad{fill:url(#n);}.ae{fill:#e52020;}.af{fill:#b72020;}.ag,.ah{fill:#727272;}.ai{stroke:#799d39;}.ak{fill:url(#o);}.am,.an,.ao{stroke:none;}.an{fill:#020202;}</style><linearGradient id="a" x1="0.244" y1="0.381" x2="1.608" y2="0.748" gradientUnits="objectBoundingBox"><stop offset="0.077" stop-color="#fff"/><stop offset="1" stop-color="#231f20"/></linearGradient><linearGradient id="b" x1="0.578" y1="0.528" x2="2.58" y2="0.001" gradientUnits="objectBoundingBox"><stop offset="0" stop-color="#fff"/><stop offset="1" stop-color="#231f20"/></linearGradient><linearGradient id="c" x1="-0.063" y1="0.749" x2="0.538" y2="0.592" gradientUnits="objectBoundingBox"><stop offset="0" stop-color="#799d39"/><stop offset="1" stop-color="#457d39"/></linearGradient><linearGradient id="d" y1="0.5" x2="1" y2="0.5" gradientUnits="objectBoundingBox"><stop offset="0" stop-color="#e87f2e"/><stop offset="1" stop-color="#da6329"/></linearGradient><linearGradient id="e" x1="0.194" y1="0.531" x2="0.913" y2="0.394" xlink:href="#d"/><linearGradient id="f" x1="0.172" y1="0.466" x2="1" y2="0.683" gradientUnits="objectBoundingBox"><stop offset="0" stop-color="#f49a2e"/><stop offset="0.415" stop-color="#f4bb2e"/><stop offset="1" stop-color="#f49a2e"/></linearGradient><linearGradient id="g" x1="0.022" y1="0.806" x2="0.941" y2="0.324" gradientUnits="objectBoundingBox"><stop offset="0.301" stop-color="#f4bb2e"/><stop offset="1" stop-color="#f49a2e"/></linearGradient><linearGradient id="h" x1="0.055" y1="0.31" x2="0.942" y2="0.975" xlink:href="#f"/><linearGradient id="i" x1="0.407" y1="0.911" x2="0.738" y2="0.053" xlink:href="#f"/><linearGradient id="j" x1="0" y1="0.5" x2="1" y2="0.5" xlink:href="#f"/><linearGradient id="k" x1="0.686" y1="0.269" x2="0.259" y2="0.673" gradientUnits="objectBoundingBox"><stop offset="0" stop-color="#93b734"/><stop offset="1" stop-color="#77a142"/></linearGradient><linearGradient id="l" x1="0.147" y1="0.684" x2="1.024" y2="0.235" xlink:href="#d"/><linearGradient id="m" x1="0.304" y1="0.811" x2="0.878" y2="-0.024" gradientUnits="objectBoundingBox"><stop offset="0" stop-color="#a4c127"/><stop offset="1" stop-color="#799d39"/></linearGradient><linearGradient id="n" x1="0.297" y1="0.49" x2="1.6" y2="0.797" xlink:href="#b"/><linearGradient id="o" x1="0.525" y1="0.495" x2="0.98" y2="0.399" gradientUnits="objectBoundingBox"><stop offset="0" stop-color="#ea2d2d"/><stop offset="1" stop-color="#ae2c15"/></linearGradient></defs><g transform="translate(568.578 560.631) rotate(155)"><path class="a" d="M38.374,0S35.215,6.906,0,7.8L12.594,36.451S28.311,39.4,32.638,30.37Z" transform="translate(49.018 147.005)"/><g class="b" transform="translate(49.018 147.005)"><path class="am" d="M38.374,0S35.215,6.906,0,7.8L12.594,36.451S28.311,39.4,32.638,30.37Z"/><path class="an" d="M 38.37426376342773 0.000118255615234375 C 38.37426376342773 0.000118255615234375 35.2149658203125 6.906009674072266 6.4849853515625e-05 7.796939849853516 L 12.59356498718262 36.45080947875977 C 12.59356498718262 36.45080947875977 15.04673385620117 36.91074371337891 18.28018569946289 36.91074371337891 C 23.23355102539063 36.91074371337891 30.01987457275391 35.8323860168457 32.6375732421875 30.36951065063477 L 38.37426376342773 0.000118255615234375 M 43.38796234130859 -15.76684188842773 L 40.33951568603516 0.3713493347167969 L 34.60282516479492 30.7407398223877 L 34.55425262451172 30.99782943725586 L 34.44119262695313 31.23376846313477 C 33.03474426269531 34.16889190673828 30.53548431396484 36.30078887939453 27.01281356811523 37.57025909423828 C 24.54457473754883 38.45973968505859 21.60649490356445 38.91075134277344 18.28018379211426 38.91075134277344 C 14.89973449707031 38.91075134277344 12.33263397216797 38.43674087524414 12.22501373291016 38.41656112670898 L 11.18737411499023 38.22201156616211 L 10.76260375976563 37.25553131103516 L -1.830894470214844 8.601659774780273 L -3.030174255371094 5.872959136962891 L -0.05051422119140625 5.797580718994141 C 13.33523368835449 5.458919525146484 23.56349563598633 4.226020812988281 30.35013389587402 2.133110046386719 C 35.08469009399414 0.6730461120605469 36.41159439086914 -0.7174911499023438 36.6131591796875 -0.9578514099121094 L 43.38796234130859 -15.76684188842773 Z"/></g><path class="c" d="M34.792,0S33.7,7.515,0,18.293L20.258,42.239s18.636-3.33,20.252-13.213Z" transform="translate(47.377 156.362)"/><path class="d" d="M34.792,0S33.7,7.515,0,18.293L20.258,42.239s18.636-3.33,20.252-13.213Z" transform="translate(47.377 156.362)"/><path class="e" d="M82.011,186.868l-57.243-6.655L4.932,166.828A11.194,11.194,0,0,1,.247,155.214L52.724,13.963a11.194,11.194,0,0,1,8.59-8.61L63.777,0Z" transform="translate(46.882 175.218)"/><path class="f" d="M0,38.371,7.483,0,51.221,42.61l-7.137,2.415Z" transform="translate(71.649 317.06)"/><line class="d" y1="66.305" x2="12.93" transform="translate(71.649 289.126)"/><g class="b" transform="translate(46.882 175.218)"><path class="am" d="M82.011,186.868l-57.243-6.655L4.932,166.828A11.194,11.194,0,0,1,.247,155.214L52.724,13.963a11.194,11.194,0,0,1,8.59-8.61L63.777,0Z"/><path class="ao" d="M 82.01097869873047 186.8684539794922 L 63.77661895751953 0.0001137288418249227 L 61.31481552124023 5.352919101715088 C 57.0059814453125 6.281252384185791 53.64306640625 9.651864051818848 52.72448348999023 13.9627799987793 L 0.2467041015625 155.2142181396484 C -0.7050736546516418 159.6797027587891 1.147704124450684 164.2744140625 4.931648731231689 166.828369140625 L 24.76800918579102 180.2131958007813 L 82.01097869873047 186.8684539794922 M 84.24225616455078 189.1413421630859 L 81.78000640869141 188.8550567626953 L 24.53703689575195 182.1998138427734 L 24.05314826965332 182.1435546875 L 23.64934349060059 181.8710784912109 L 3.812981843948364 168.4862518310547 C 1.624537467956543 167.0091705322266 -0.05407367646694183 164.9344482421875 -1.041518092155457 162.4862518310547 C -2.028823614120483 160.0384521484375 -2.259768009185791 157.379638671875 -1.709351420402527 154.7973022460938 L -1.678934812545776 154.6545257568359 L -1.628101468086243 154.5177001953125 L 50.80095672607422 13.3973913192749 C 51.85125732421875 8.732340812683105 55.35436248779297 5.011665344238281 59.89464569091797 3.654285430908203 L 61.95956420898438 -0.8355529308319092 L 65.04906463623047 -7.553191661834717 L 65.76717376708984 -0.1941084861755371 L 84.00154113769531 186.6742248535156 L 84.24225616455078 189.1413421630859 Z"/></g><path class="f" d="M0,81.218H0a8.8,8.8,0,0,0,8.8-8.285c.819-14.064,1.908-43.028-1.4-63.015A14.856,14.856,0,0,0,.915,0h0Z" transform="translate(314.762 100.522)"/><path class="g" d="M55.314,0S74.086,24.878,75.771,62.911s-45.711,84.87-45.711,84.87L12.223,162.966,0,122.328,35.777,12.911Z" transform="translate(256.207 189.127)"/><path class="h" d="M48.446,20.487A115.264,115.264,0,0,0,38.379,0c-.2,2.076-.411,4.172-.666,6.248-.137,1.371-.294,2.762-.47,4.152-.157,1.293-.313,2.566-.49,3.858-.157,1.253-.313,2.526-.509,3.78,0,.059-.02.137-.02.2-.02.078-.02.137-.039.215-.294,2.155-.607,4.289-.94,6.424-.255,1.724-.548,3.447-.842,5.151-.137.881-.294,1.743-.45,2.605-.313,1.8-.646,3.6-1,5.366-.392,2.135-.823,4.25-1.273,6.346-.627,2.859-1.273,5.68-1.958,8.481-.255,1.156-.548,2.311-.842,3.447-.176.646-.333,1.293-.509,1.939-.451,1.743-.94,3.486-1.43,5.19-.47,1.684-.96,3.349-1.489,4.994-.274.94-.568,1.861-.862,2.762-.529,1.684-1.1,3.369-1.665,5.014-.059.137-.1.255-.137.372-.548,1.606-1.136,3.193-1.724,4.759a.072.072,0,0,1-.02.059c-.588,1.547-1.175,3.094-1.782,4.6-.157.392-.313.764-.47,1.136-.509,1.234-1.019,2.448-1.567,3.662-.274.646-.548,1.273-.842,1.9-.47,1.038-.94,2.076-1.43,3.095-.607,1.273-1.214,2.546-1.88,3.8-.176.392-.392.783-.588,1.175-.078.157-.157.294-.235.45-.548,1.058-1.116,2.115-1.7,3.153-.274.529-.568,1.038-.862,1.547-.607,1.077-1.234,2.154-1.88,3.212-.862,1.41-1.724,2.8-2.625,4.172q-.588.911-1.116,1.821A33.524,33.524,0,0,0,.207,135.121l1.684,16.06.078.705L4.1,150.065C7.414,146.54,68.678,80.595,48.446,20.487Z" transform="translate(275.437 192.559)"/><g class="b" transform="translate(256.207 189.127)"><path class="am" d="M55.314,0S74.086,24.878,75.771,62.911s-45.711,84.87-45.711,84.87L12.223,162.966,0,122.328,35.777,12.911Z"/><path class="ao" d="M 55.31366729736328 6.103515625e-05 L 35.7769660949707 12.91094970703125 L -7.62939453125e-06 122.3279418945313 L 12.22344207763672 162.9661254882813 L 30.05998992919922 147.781494140625 C 30.05998992919922 147.781494140625 77.45343780517578 100.946418762207 75.77094268798828 62.91114044189453 C 74.08636474609375 24.87774658203125 55.31366729736328 6.103515625e-05 55.31366729736328 6.103515625e-05 M 55.7784423828125 -2.704360961914063 L 56.91014099121094 -1.204635620117188 C 57.10733795166016 -0.9432830810546875 61.79693984985352 5.323211669921875 66.73656463623047 16.37712097167969 C 69.62873840332031 22.84919738769531 72.00504302978516 29.63052368164063 73.79946899414063 36.53271484375 C 76.04301452636719 45.16239166259766 77.3785400390625 54.00762176513672 77.76898956298828 62.82263946533203 C 78.16623687744141 71.80321502685547 75.94751739501953 81.96012115478516 71.17446899414063 93.01126861572266 C 67.39798736572266 101.7550964355469 62.01651382446289 111.0924682617188 55.17954254150391 120.7640380859375 C 49.11531448364258 129.3424987792969 42.99898910522461 136.6096954345703 38.93589019775391 141.1955413818359 C 34.52576446533203 146.1730194091797 31.58866500854492 149.0826416015625 31.46578979492188 149.2040710449219 L 31.41299057006836 149.2562408447266 L 31.35646438598633 149.3043670654297 L 13.51991653442383 164.4889984130859 L 11.18968963623047 166.4727630615234 L 10.30821228027344 163.5421905517578 L -1.915237426757813 122.9040222167969 L -2.096031188964844 122.3029632568359 L -1.900962829589844 121.7063674926758 L 33.87601470947266 12.28936767578125 L 34.09266662597656 11.62673950195313 L 34.67428970336914 11.24237060546875 L 54.21099090576172 -1.668502807617188 L 55.7784423828125 -2.704360961914063 Z"/></g><path class="i" d="M205.981,346.492,204,327.674a33.435,33.435,0,0,1,3.849-20.02q.529-.931,1.118-1.829C266.26,218.531,237.7,29.853,237.7,29.853,268.592-6.529,200.534,2.843,171.1,8.264a15.028,15.028,0,0,0-12.366,13.692c-.65,10.106-3.508,20.15-5.774,26.758a8.163,8.163,0,0,1-11.025,4.863c-16.307-7.386-32.571-24.451-41.9-35.413a37.432,37.432,0,0,0-22-12.574C-38.281-14.978,9.884,27.834,9.884,27.834,32.378,86.375,26.771,192.1,26.771,192.1L32.378,300.35l27.167,59.337Z" transform="translate(71.649 0)"/><path class="j" d="M2.188,10.955C1.15,4.57,11.276,1.417,24.457.007,16.525-.091,9.4.908,4.186,3.042c-8.4,5.445-2.291,14.787,2.174,19.918.666.764,1.293,1.449,1.821,2,1.018,1.038,1.7,1.626,1.7,1.626s1.077.157,2.977.313c.078,0,.157.02.235.02a111.961,111.961,0,0,0,15.336-.411c2.977-.274,6.169-.705,9.5-1.332A79.7,79.7,0,0,1,18.679,23.8a.072.072,0,0,1-.059-.02C10.708,22.08,3.4,18.437,2.188,10.955Z" transform="translate(71.645 1.24)"/><path class="k" d="M1.565,50.655S130.248-.054,218.785,48.385c0,0,2.192-16.1.991-30S76.836-17.084,0,23.112Z" transform="translate(97.44 113.82)"/><g class="b" transform="translate(71.649 0)"><path class="am" d="M205.981,346.492,204,327.674a33.435,33.435,0,0,1,3.849-20.02q.529-.931,1.118-1.829C266.26,218.531,237.7,29.853,237.7,29.853,268.592-6.529,200.534,2.843,171.1,8.264a15.028,15.028,0,0,0-12.366,13.692c-.65,10.106-3.508,20.15-5.774,26.758a8.163,8.163,0,0,1-11.025,4.863c-16.307-7.386-32.571-24.451-41.9-35.413a37.432,37.432,0,0,0-22-12.574C-38.281-14.978,9.884,27.834,9.884,27.834,32.378,86.375,26.771,192.1,26.771,192.1L32.378,300.35l17.361,57.864Z"/><path class="ao" d="M 49.73889923095703 358.2139282226563 L 205.9813995361328 346.491943359375 L 203.9991912841797 327.674072265625 C 203.2726440429688 320.7681884765625 204.4183959960938 313.69384765625 207.8478546142578 307.6536865234375 C 208.2003936767578 307.0327453613281 208.5724487304688 306.4237365722656 208.9662475585938 305.8243408203125 C 266.2598571777344 218.5312347412109 237.7018432617188 29.85328674316406 237.7018432617188 29.85328674316406 C 255.6434631347656 8.722034454345703 240.202880859375 3.025003910064697 218.3408508300781 3.025003910064697 C 202.5623474121094 3.025003910064697 183.4402160644531 5.991393089294434 171.1028442382813 8.263986587524414 C 164.3535919189453 9.507637023925781 159.1753540039063 15.10908699035645 158.7366485595703 21.95613670349121 C 158.0862426757813 32.06243515014648 155.2288055419922 42.10588836669922 152.9628448486328 48.71418762207031 C 151.7901306152344 52.13196563720703 148.5873107910156 54.28674697875977 145.2121429443359 54.28703689575195 C 144.1176452636719 54.28713226318359 143.0056304931641 54.06066513061523 141.9380493164063 53.57723617553711 C 125.6310501098633 46.19148635864258 109.3671951293945 29.12653732299805 100.038444519043 18.16443634033203 C 94.39979553222656 11.53858661651611 86.60654449462891 7.104386806488037 78.03794860839844 5.590436935424805 C 55.51102447509766 1.606970071792603 39.14817047119141 0.0002149414067389444 27.41494560241699 0.0002149414067389444 C -21.43714141845703 0.0002149414067389444 9.883797645568848 27.83388710021973 9.883797645568848 27.83388710021973 C 32.37799835205078 86.37523651123047 26.77064895629883 192.0963439941406 26.77064895629883 192.0963439941406 L 32.37809753417969 300.3500366210938 L 49.73889923095703 358.2139282226563 M 48.28529739379883 360.3286437988281 L 47.82324981689453 358.7886962890625 L 30.46244812011719 300.9247741699219 L 30.39324760437012 300.6940307617188 L 30.38079833984375 300.4534912109375 L 24.77334785461426 192.1997833251953 L 24.76789855957031 192.0951385498047 L 24.7734489440918 191.9904327392578 C 24.78744888305664 191.7267913818359 26.15469741821289 165.2370300292969 24.76269721984863 131.9631805419922 C 23.48747634887695 101.4815216064453 19.57482719421387 58.94462203979492 8.183940887451172 28.98825836181641 C 7.244689464569092 28.10951614379883 4.704451084136963 25.62650299072266 2.399648189544678 22.4258861541748 C 0.6934980750083923 20.05658721923828 -0.533501923084259 17.77528762817383 -1.247251868247986 15.64538669586182 C -2.210301876068115 12.77148723602295 -2.253451824188232 10.14328670501709 -1.37555193901062 7.833686828613281 C -0.1693018972873688 4.660436630249023 2.718348026275635 2.227736711502075 7.207248210906982 0.6031868457794189 C 11.97959804534912 -1.124013185501099 18.77849769592285 -1.999763131141663 27.41494750976563 -1.999763131141663 C 40.14529800415039 -1.999763131141663 57.29454803466797 -0.1086631864309311 78.38619995117188 3.620986700057983 C 87.41939544677734 5.217036724090576 95.65000152587891 9.921687126159668 101.5615463256836 16.86823654174805 C 109.9528961181641 26.72878646850586 126.4638977050781 44.37313842773438 142.7631988525391 51.75538635253906 C 143.5423431396484 52.10823822021484 144.3663024902344 52.28713607788086 145.2119445800781 52.28703689575195 C 147.85009765625 52.28678512573242 150.2047424316406 50.59013748168945 151.0710906982422 48.06508636474609 C 153.3068542480469 41.54493713378906 156.1054534912109 31.69988632202148 156.7407989501953 21.82768630981445 C 156.8630523681641 19.91963768005371 157.3100433349609 18.06248664855957 158.0694427490234 16.30843734741211 C 158.8050537109375 14.60933685302734 159.8157958984375 13.04643726348877 161.0735931396484 11.66323661804199 C 162.3230438232422 10.28918647766113 163.7813415527344 9.130736351013184 165.4079437255859 8.220087051391602 C 167.0692443847656 7.289937019348145 168.8633422851563 6.64298677444458 170.7404022216797 6.297086715698242 C 183.7971954345703 3.891986846923828 202.6540985107422 1.024986863136292 218.3408508300781 1.024986863136292 C 225.5265960693359 1.024986863136292 231.4465942382813 1.641386866569519 235.9364013671875 2.857036828994751 C 238.5317993164063 3.559736728668213 240.7202453613281 4.482736587524414 242.4409942626953 5.600337028503418 C 244.4055480957031 6.87628698348999 245.8269958496094 8.442486763000488 246.6660003662109 10.25538635253906 C 247.885498046875 12.8906364440918 247.8662414550781 15.99703693389893 246.6087493896484 19.48818588256836 C 245.4444732666016 22.72052001953125 243.1586761474609 26.40581703186035 239.8102264404297 30.45144844055176 C 240.2558135986328 33.56179428100586 241.7682647705078 44.56248092651367 243.2601470947266 60.51188659667969 C 244.2973480224609 71.60063934326172 245.122802734375 82.88443756103516 245.7136535644531 94.04983520507813 C 246.4523010253906 108.0084381103516 246.8242492675781 121.8212356567383 246.8191528320313 135.1046905517578 C 246.8061981201172 168.9449310302734 244.3757934570313 199.6040802001953 239.5954437255859 226.2304840087891 C 236.7509918212891 242.0739440917969 233.03125 256.65234375 228.5393981933594 269.5608520507813 C 226.1197509765625 276.5144958496094 223.42724609375 283.1216430664063 220.5367431640625 289.1986389160156 C 217.5083923339844 295.5656433105469 214.1780548095703 301.5285339355469 210.6383056640625 306.9217224121094 C 210.2716979980469 307.4796752929688 209.9181976318359 308.0579223632813 209.5870971679688 308.6411437988281 C 206.5077056884766 314.0647277832031 205.2632446289063 320.5738220214844 205.9882049560547 327.46484375 L 207.9703979492188 346.2824401855469 L 208.1862945556641 348.3321228027344 L 206.1310424804688 348.486328125 L 49.8885498046875 360.2083435058594 L 48.28529739379883 360.3286437988281 Z"/></g><path class="l" d="M1.565,50.655S130.248-.054,218.785,48.385c0,0,2.192-16.1.991-30S76.836-17.084,0,23.112Z" transform="translate(97.44 113.82)"/><path class="m" d="M0,38.59S63.213,23.975,69.451,0l2.674,28.5S5.5,37.046,0,38.59Z" transform="translate(138.446 113.819)"/><g class="b" transform="translate(97.44 113.82)"><path class="am" d="M1.565,50.655S130.248-.054,218.785,48.385c0,0,2.192-16.1.991-30S76.836-17.084,0,23.112Z"/><path class="ao" d="M 1.564828157424927 50.65532302856445 C 1.564828157424927 50.65532302856445 60.50400543212891 27.43002510070801 126.0485382080078 27.43002510070801 C 157.3547973632813 27.43002510070801 190.1664276123047 32.72783279418945 218.7853240966797 48.38542556762695 C 218.7853240966797 48.38542556762695 220.9769897460938 32.28802490234375 219.7762908935547 18.3861255645752 C 219.0914916992188 10.44524478912354 172.5303649902344 0.0002041178377112374 118.4136352539063 0.0002041178377112374 C 77.80295562744141 0.0002041178377112374 32.94058609008789 5.87977409362793 -5.126953055878403e-06 23.11212539672852 L 1.564828157424927 50.65532302856445 M -0.2750717997550964 53.53002548217773 L -0.4319384694099426 50.76875686645508 L -1.996771812438965 23.22555732727051 L -2.06993842124939 21.93785858154297 L -0.9270718097686768 21.33995819091797 C 14.64626121520996 13.19302463531494 33.79286193847656 7.064558029174805 55.98089599609375 3.12482476234436 C 65.84799194335938 1.372791528701782 76.36989593505859 0.05039148777723312 87.25432586669922 -0.8057085275650024 C 97.32819366455078 -1.598041892051697 107.8117294311523 -1.999808549880981 118.4136276245117 -1.999808549880981 C 131.4099273681641 -1.999808549880981 144.4491271972656 -1.406141877174377 157.1690673828125 -0.2352751791477203 C 168.7243347167969 0.8283914923667908 179.9092254638672 2.380158185958862 189.5145568847656 4.25225830078125 C 198.7610626220703 6.054458141326904 206.534423828125 8.146791458129883 211.9942932128906 10.30309104919434 C 218.4162292480469 12.83932495117188 221.5221557617188 15.35315799713135 221.7688903808594 18.21429061889648 C 222.4001617431641 25.52325820922852 222.0941925048828 33.40875625610352 221.7263336181641 38.73675918579102 C 221.3284912109375 44.49882507324219 220.789794921875 48.48822402954102 220.7670593261719 48.65522384643555 L 220.375 51.53489303588867 L 217.8253936767578 50.13999176025391 C 192.7075958251953 36.39785766601563 161.8293914794922 29.43002510070801 126.0485305786133 29.43002510070801 C 92.3963623046875 29.43002510070801 60.52739334106445 35.71175765991211 39.71846008300781 40.9814567565918 C 17.17499542236328 46.69045639038086 2.444228172302246 52.45845794677734 2.298061609268188 52.51605987548828 L -0.2750717997550964 53.53002548217773 Z"/></g><path class="h" d="M36.472,176.677a15.216,15.216,0,0,1-2.485-16.047c7.145-16.636,20.261-52.4,13.393-77.332-1.43-5.171-2.683-10.4-3.741-15.61a257.553,257.553,0,0,1-4.348-29.2c-.946-10.455-1.048-19.568-.372-26.041A9.529,9.529,0,0,0,31.214,2.083C22.3.407,10.392-1.577,0,2,.254,4.038.687,7.718.883,9.755c.157-.059.333-.1.509-.156.235-.078.49-.137.725-.216a35.292,35.292,0,0,1,5.171-.921c.529-.059,1.058-.1,1.606-.137,1.469-.078,2.938-.1,4.387-.039l1.449.059a2.021,2.021,0,0,0,.333.02c.548.059,1.1.1,1.645.157,1.116.118,2.213.255,3.271.411,1.057.176,2.076.353,3.055.548.431.1.862.2,1.293.274.568.137,1.116.255,1.645.392.431.1.842.215,1.234.313.783.2,1.528.411,2.174.607q.5.147.94.294a2.136,2.136,0,0,0,.333.1c.353.118.666.235.96.313a3.384,3.384,0,0,0,.411.137c.176.078.333.118.47.176.607.2.94.333.94.333-.059.294-.117.588-.176.92v.02a63.669,63.669,0,0,0-.588,9.362v.02c-.02,4.818.2,10.537.607,16.609a2.5,2.5,0,0,1,.02.392,2.416,2.416,0,0,0,.039.392c.02.548.059,1.1.1,1.645.2,2.683.392,5.406.646,8.128.039.451.078.921.118,1.371.313,3.643.666,7.305,1.038,10.87.078.783.157,1.586.235,2.37.176,1.763.372,3.486.548,5.151.137,1.1.255,2.174.372,3.212.078.666.137,1.312.215,1.958.333,2.82.646,5.464.94,7.854.078.627.157,1.234.215,1.821a4.155,4.155,0,0,1,.059.49.479.479,0,0,1,.235,0,.957.957,0,0,1,.235-.02c.235,0,.47.02.7.039a4.782,4.782,0,0,1,1.214.274c12.084,4.289-8.559,54.6-17.549,75.052-.117.294-.255.588-.372.862a13.77,13.77,0,0,0,1.821,14.082c.059.078.118.137.176.215L49.671,206.12s.255.333.666.96c.02.039.039.059.059.1a24.583,24.583,0,0,1,4.8,15.668S57.811,200.922,36.472,176.677Z" transform="translate(94.808 84.719)"/><path class="j" d="M16.256,57.875l1.919,7.658c-.039,0-.059,0-.078.02a.693.693,0,0,0-.2.039c-.431.078-.862.157-1.293.255H16.57c-.059.02-.118.02-.176.039-.235.059-.45.1-.685.176-.1.02-.2.039-.274.059a1.637,1.637,0,0,1-.294.078c-.176.059-.353.1-.529.157s-.353.1-.509.156c-.02-.274-.039-.568-.078-.842-.059-.529-.118-1.116-.2-1.743,0-.078-.02-.157-.02-.235-.078-.646-.157-1.332-.235-1.978-.118-1-.235-1.978-.353-2.957C11.125,41.933,8.069,25.265,3.6,10.615c-.039-.137-.078-.255-.118-.392C2.8,7.971,2.076,5.758,1.312,3.6.881,2.389.45,1.175,0,0,.509.039,1.116.078,1.841.117h0a155.515,155.515,0,0,1,6.5,21.791Z" transform="translate(81.589 27.961)"/><g transform="translate(81.534 92.969)"><path class="n" d="M51.6,87.212S42.418,20.8,45.839,4.178c0,0-34.044-13.506-45.721,8.048,0,0-1.093,21.66,3.349,42.538S15.151,89.127,15.151,89.127Z" transform="translate(0.862 0)"/><path class="o" d="M44.6,47.272c-7.325-2.918-16.746-9.44-21.838-23.992-.02,0-.02,0,0-.02-.47-1.273-.881-2.6-1.254-4.015C14.983-5.1,4-.478,0,2.225a9.49,9.49,0,0,0,2.39,4,6.8,6.8,0,0,1,3.584-.862,1.68,1.68,0,0,1,.313.02,2.645,2.645,0,0,1,.392.039c1.625.2,3.388,1.195,5.092,3.506a14.162,14.162,0,0,1,1.038,1.547,5.4,5.4,0,0,1,.333.568c.1.176.215.353.313.548l.02.039c.039.117.1.215.137.333.255.47.47.96.705,1.489A39.674,39.674,0,0,1,15.9,17.639c.118.392.255.783.372,1.195.411,1.351.862,2.644,1.351,3.858.235.548.45,1.058.686,1.567.255.568.529,1.116.8,1.665.274.529.548,1.058.842,1.586.294.509.588,1,.881,1.508a40.743,40.743,0,0,0,2.9,4.074c.353.431.686.842,1.038,1.234s.705.783,1.058,1.156a42.632,42.632,0,0,0,6.522,5.66c1.077.764,2.154,1.449,3.193,2.057.353.2.685.392,1.038.588,1,.548,1.978,1.038,2.9,1.469.294.157.588.274.881.411.568.255,1.116.47,1.645.685.392.157.764.294,1.1.411C43.676,46.958,44.166,47.135,44.6,47.272Z" transform="translate(6.263 39.49)"/><g class="b" transform="translate(0.863 0)"><path class="am" d="M51.457,86.174C50.334,77.852,42.962,21.8,45.669,5.117A1.171,1.171,0,0,0,44.9,3.83C39.4,1.877,11.277-7,.475,11.592a2.892,2.892,0,0,0-.386,1.355C-.052,16.87-.5,36.129,3.468,54.764,7.91,75.645,15.151,89.128,15.151,89.128l35.4-1.861A.965.965,0,0,0,51.457,86.174Z"/><path class="ao" d="M 15.15062808990479 89.12749481201172 L 50.54584503173828 87.26677703857422 C 51.11187744140625 87.23736572265625 51.53302764892578 86.73603057861328 51.45661163330078 86.17389678955078 C 50.33429336547852 77.85199737548828 42.96227645874023 21.79979705810547 45.6689453125 5.116697311401367 C 45.75902938842773 4.558597564697266 45.43201065063477 4.02001428604126 44.89917755126953 3.829964160919189 C 42.07718658447266 2.827657699584961 33.29308319091797 3.999023465439677e-05 23.95052528381348 3.999023465439677e-05 C 15.09231472015381 3.999023465439677e-05 5.732073783874512 2.541910886764526 0.4750450253486633 11.59179782867432 C 0.2341950237751007 12.00513076782227 0.1068783551454544 12.46924781799316 0.08929502218961716 12.94714736938477 C -0.05182164534926414 16.87011337280273 -0.4982216358184814 36.12866592407227 3.467778444290161 54.76434707641602 C 7.909794807434082 75.64459991455078 15.15062808990479 89.12749481201172 15.15062808990479 89.12749481201172 M 13.98882865905762 91.19132995605469 L 13.38864517211914 90.07374572753906 C 13.31247806549072 89.93193054199219 11.49601173400879 86.53131103515625 9.115144729614258 80.5115966796875 C 6.928828239440918 74.98379516601563 3.8349449634552 66.10191345214844 1.511561632156372 55.18051528930664 C -0.1908549815416336 47.18107986450195 -1.291355013847351 38.18234634399414 -1.75933825969696 28.43438148498535 C -2.125538349151611 20.8061637878418 -1.98628830909729 15.01223087310791 -1.909404993057251 12.87524700164795 C -1.879488348960876 12.06196403503418 -1.65252161026001 11.27053070068359 -1.252988338470459 10.58486366271973 C 1.391011714935303 6.033280849456787 5.201611518859863 2.661380767822266 10.07161140441895 0.5651640892028809 C 14.02596187591553 -1.136919260025024 18.69551086425781 -1.999952554702759 23.95052909851074 -1.999952554702759 C 28.10904502868652 -1.999952554702759 32.60282897949219 -1.465869307518005 37.30706024169922 -0.4125359356403351 C 41.12799453735352 0.4430307447910309 44.12322998046875 1.431964039802551 45.56856155395508 1.945314049720764 C 47.01506042480469 2.461247444152832 47.8865966796875 3.928663969039917 47.64339447021484 5.435397624969482 C 46.54682922363281 12.19426441192627 47.05674362182617 27.11621475219727 49.11776351928711 48.58966445922852 C 50.74797821044922 65.57468414306641 52.83717727661133 81.44661712646484 53.43866348266602 85.90660095214844 C 53.54967880249023 86.72319793701172 53.31146240234375 87.55732727050781 52.78479385375977 88.19301605224609 C 52.25652694702148 88.83062744140625 51.47829437255859 89.22101593017578 50.6496467590332 89.26408386230469 L 15.25562858581543 91.12474822998047 L 13.98882865905762 91.19132995605469 Z"/></g><path class="j" d="M2.4,10.478c-.039-3.114-.02-6.6.1-10.478A21.334,21.334,0,0,0,.478,2.918,2.772,2.772,0,0,0,.086,4.27a.881.881,0,0,1-.02.215v.2C.028,6.287-.051,9.538.047,13.827.106,16.452.2,19.468.4,22.758c.137,1.919.274,3.956.49,6.033q.147,1.674.353,3.408c.372,3.31.862,6.757,1.489,10.2.2-.529.411-1.1.627-1.645a14.224,14.224,0,0,1,4.426-3.721C6.452,35.92,2.75,31,2.4,10.478Z" transform="translate(0.869 8.674)"/><path class="d" d="M46.647,5.155S13.818-11.236,0,14.437" transform="translate(0 9.645)"/><path class="p" d="M52.276,42.39,13.556,55.061S-8.958,38.181,4.043,4.615c0,0,11.121-14.918,18.315,8.892S52.276,42.39,52.276,42.39Z" transform="translate(0.186 44.823)"/><path class="j" d="M22.546,48.612l-5.876,5.21-2.507.823a2.158,2.158,0,0,1-2.174-.49C8.17,50.433-6.206,34.843,3.058,7.482v-.02l.059-.176A11.46,11.46,0,0,1,7.465,1.371,8.666,8.666,0,0,1,10.16.161l.024-.02.065-.012.037-.012-.012.008A7.119,7.119,0,0,1,11.461,0a4.283,4.283,0,0,1,.705.059c2.194.372,4.571,2.011,6.785,6.164l.021.041a2.785,2.785,0,0,0,.151.358C13.664-1.189,9.784.607,8.1,2.123A22,22,0,0,0,3.548,9.891v.02C1.981,14.4,1.139,20.565,2.275,28.948,5.507,53.077,22.546,48.612,22.546,48.612Z" transform="translate(0.776 44.848)"/><g class="b" transform="translate(0.765 44.855)"><path class="am" d="M50.571,42.725l-36.4,11.912A2.148,2.148,0,0,1,12,54.145C8.183,50.43-6.279,34.75,3.122,7.275a11.506,11.506,0,0,1,4.346-5.9c3.69-2.476,9.685-3.206,14.309,12.1C28.008,34.1,45.89,40.662,50.567,42.051A.352.352,0,0,1,50.571,42.725Z"/><path class="ao" d="M 13.49085712432861 54.74579620361328 C 13.71896362304688 54.74579620361328 13.94916248321533 54.70989227294922 14.17266941070557 54.63671493530273 L 50.57056427001953 42.72472763061523 C 50.901611328125 42.61693954467773 50.899658203125 42.14892578125 50.56665802001953 42.0509033203125 C 45.88964462280273 40.66234970092773 28.0079402923584 34.0972900390625 21.77783393859863 13.4736328125 C 18.59437370300293 2.93651819229126 14.7620325088501 7.785213529132307e-05 11.47856521606445 7.785213529132307e-05 C 9.992431640625 7.785213529132307e-05 8.618115425109863 0.6022428274154663 7.468387126922607 1.373597741127014 C 5.390387058258057 2.766056537628174 3.933292865753174 4.908750534057617 3.122375249862671 7.274715423583984 C -6.278624534606934 34.74951553344727 8.18341064453125 50.42969131469727 12.00250434875488 54.14501953125 C 12.40765857696533 54.53914642333984 12.94342994689941 54.74579620361328 13.49085712432861 54.74579620361328 M 13.49085807800293 56.74579620361328 C 12.40550422668457 56.74579620361328 11.38165760040283 56.33127975463867 10.60792827606201 55.57859802246094 C 7.612551689147949 52.66460800170898 3.467563390731812 47.65179824829102 0.7311282157897949 40.31891632080078 C -0.9881306290626526 35.71179580688477 -1.904624700546265 30.79373931884766 -1.992907047271729 25.70132637023926 C -2.098624706268311 19.60383224487305 -1.014248251914978 13.18638610839844 1.23008120059967 6.627233028411865 C 2.243398904800415 3.670738935470581 4.015469551086426 1.279868245124817 6.355045795440674 -0.2878728806972504 C 8.048033714294434 -1.423696398735046 9.772139549255371 -1.999919891357422 11.47856330871582 -1.999919891357422 C 13.93739891052246 -1.999919891357422 16.1924934387207 -0.8289905190467834 18.18121147155762 1.480350613594055 C 20.28940963745117 3.928444862365723 22.14363479614258 7.768962383270264 23.69236373901367 12.89522171020508 C 29.57072830200195 32.3544807434082 46.1840934753418 38.66349029541016 51.13587951660156 40.13362121582031 C 52.12510299682617 40.42480850219727 52.80264663696289 41.31695175170898 52.81738662719727 42.35230255126953 C 52.83218765258789 43.39075088500977 52.17809295654297 44.30465698242188 51.18976211547852 44.62645721435547 L 14.79473972320557 56.53751373291016 C 14.37268161773682 56.67569351196289 13.93391609191895 56.74579620361328 13.49085807800293 56.74579620361328 Z"/></g><ellipse class="f" cx="4.306" cy="7.362" rx="4.306" ry="7.362" transform="translate(6.308 50.319) rotate(1.625)"/></g><path class="q" d="M78.74,178.054c-4.178.987-2.852,7.137-9.417,9.2-2.188.689-3.224,2.654-3.547,2.329-25.1-25.1-66.556-66.871-65.765-89.8C1.165,66.334,39.519,19.329,72.97,2.027c27.7-14.329.627,51.232-9.5,74.2a13.72,13.72,0,0,0,2,14.3l25.375,30.61A24.332,24.332,0,0,1,96.451,137.7,192.648,192.648,0,0,1,94.1,161.669C93.539,164.914,83.607,176.9,78.74,178.054Z" transform="translate(53.549 169.709)"/><path class="r" d="M94.716,17.786c-1.645-1.841-3.193-3.586-4.563-5.21A37.364,37.364,0,0,0,68.158,0C43.774,28.813,0,22.232,0,22.232c1.273,3.31,2.448,6.775,3.545,10.361C3.545,32.593,56.642,46.44,94.716,17.786Z" transform="translate(81.534 5.596)"/><path class="h" d="M132.066,50.616c-8.559-4.975-16.9-12.163-23.973-19.194-1.057-1.038-2.076-2.1-3.055-3.114-1.645-1.684-3.173-3.349-4.6-4.936,0,0,0,.02-.02,0q-.97-1.087-1.88-2.115c-.568-.627-1.1-1.253-1.626-1.861-.353-.411-.725-.823-1.058-1.234A37.351,37.351,0,0,0,73.858,5.588c-.039,0-.1-.019-.137-.019C28.086-2.5,7.815-.777,0,4.276c14.964-6.13,45.674-2.859,66.16,8.363.118.059.216.118.333.176A51.456,51.456,0,0,1,77.6,20.845a68.721,68.721,0,0,0,8.872,7.129c1.018.705,2.076,1.391,3.153,2.076.039.039.1.059.137.1.45.274.9.568,1.351.842C104.587,39.354,121.568,46.522,132.066,50.616Z" transform="translate(75.831 0.006)"/><path class="j" d="M6.732,13.178,2.244.222,0,0,4.871,13.027Z" transform="translate(80.719 26.822)"/><path class="d" d="M70.291,0C45.909,28.81,0,23.25,0,23.25" transform="translate(80.169 4.566)"/><path class="o" d="M25.481,31.689a24.209,24.209,0,0,1-5.445-1.214,12.365,12.365,0,0,1-8.167-11.908L12.163,0A115.847,115.847,0,0,1,6.894,21.5,8.271,8.271,0,0,1,0,27.028C4.426,28.615,12.907,30.984,25.481,31.689Z" transform="translate(217.709 27.217)"/><path class="d" d="M0,15.518S55.089,28.654,93.163,0" transform="translate(83.9 22.789)"/><path class="h" d="M71.86,7.426C64.672-4.854,22.543.884,0,4.958,7.619,3.724,41.561-.976,57.64,11.4a15.26,15.26,0,0,1,2.468,2.252c3.584,4.074-.842,5.68-7.776,6.091-11.281.686-29.261-1.782-30.221-1.919a128.449,128.449,0,0,0,20.33,6.365c1.586.372,3.192.685,4.838.979,1.351.255,2.7.47,4.094.666,2.213.294,4.465.529,6.8.686q3.349.235,6.875.294c1.116-1.293,2.076-2.507,2.918-3.682a25.928,25.928,0,0,0,4.622-9.088A8.761,8.761,0,0,0,71.86,7.426Z" transform="translate(244.307 3.026)"/><path class="s" d="M80.634,30.162c-.686-5.525-1.156-8.58-1.156-8.58C38.7,21.035,12.868,0,12.868,0A15.041,15.041,0,0,0,.509,13.69C.392,15.451.216,17.2,0,18.939v.02C1.018,19.566,31.65,37.975,80.634,30.162Z" transform="translate(229.876 8.262)"/><path class="d" d="M0,0C1.017.607,33.689,19.171,82.673,11.356" transform="translate(228.81 26.843)"/><path class="t" d="M19.033,0S29.414,105.337,0,188.369L20.81,194.4l11.767-6.036C37.708,189.162,56.234,111.64,51.461,0Z" transform="translate(201.876 143.415)"/><path class="j" d="M10.243,2.331C9.754,1.547,9.3.764,8.853,0L0,23.875l2.762.784C4.465,18.763,6.875,11.438,10.243,2.331Z" transform="translate(52.465 292.191)"/><path class="m" d="M0,136.059S10.845,22.843,40.152,10.29L40.487,0,6.845,5.451S9.613,95.615,0,136.059Z" transform="translate(214.435 146.17)"/><path class="j" d="M27.142,24.609c-.165,2.4,2.719,4.522,5.09,4.922l40.907,6.876-.94.313L24.762,31.2,4.942,17.8A11.225,11.225,0,0,1,.241,6.187L2.3.644,5.96,1.8c-.458,2.017-.8,3.752-1.046,5.241a11.537,11.537,0,0,0,5.443,11.816l6.6,3.952a4.682,4.682,0,0,0,6.718-2.2L29.854,0Z" transform="translate(46.877 324.235)"/><path class="h" d="M196.189,117.422c-.039,1.645-.617,5.071-.7,6.735-.039,1.312-.4,4.787-.482,6.1-.392,10.028-1.565,20.044-2.564,30.209,0,.059-.02.118-.02.157q-.881,9.166-2.155,18.234c-4.936,35.509-14.337,69.568-31.043,95.029q-.587.911-1.116,1.821a33.524,33.524,0,0,0-3.858,20.036l1.684,16.06-.012.008c-1.467-.676-2.924-1.271-4.415-1.869-.823-.333-1.645-.646-2.468-.96-.7-.274-1.41-.529-2.135-.784-.8-.294-1.625-.588-2.448-.862-.47-.157-.94-.313-1.41-.451-2.272-.744-4.622-1.449-7.012-2.076q-1.674-.47-3.408-.881c-.9-.215-1.8-.431-2.722-.607-.783-.2-1.586-.353-2.389-.509-1.038-.215-2.1-.411-3.153-.607-1.371-.235-2.762-.47-4.152-.666a.98.98,0,0,0-.235-.039c-1.41-.215-2.84-.392-4.289-.568-1.293-.157-2.585-.294-3.917-.411-1.7-.157-3.427-.294-5.19-.392-1.547-.1-3.114-.157-4.7-.2-1.586-.059-3.192-.078-4.818-.078-1.978,0-3.937.019-5.856.078-.96.02-1.9.039-2.86.078-2.115.078-4.191.176-6.228.313-2.017.118-3.976.274-5.9.45-2.272.215-4.485.45-6.659.725q-.5.059-.94.117c-1.077.137-2.115.294-3.153.451-1.116.157-2.233.313-3.33.509-1.293.215-2.546.431-3.78.666-2.252.431-4.446.881-6.561,1.371-1.1.255-2.155.509-3.212.783a.7.7,0,0,0-.2.039c-.96.255-1.9.49-2.84.744-.1.02-.2.059-.274.078-.979.255-1.919.529-2.859.823-.823.235-1.626.47-2.429.725-.176.059-.372.118-.548.176q-1.469.47-2.879.94c-.842.294-1.665.568-2.468.862-.783.274-1.528.568-2.272.842-.509.2-1,.392-1.489.588-2.154.823-4.211,1.7-6.209,2.6-.313.137-.607.274-.9.411-.078.039-.157.078-.255.117l-.078.039q-5.288,2.468-9.969,5.171c-.94.529-1.861,1.077-2.761,1.626-.842.509-1.665,1.038-2.468,1.547-.294.2-.588.372-.862.548s-.529.353-.783.529c-1.743,1.156-3.408,2.331-4.994,3.506L0,326.277c1.371-1.214,3.6-3.173,6.561-5.66a.412.412,0,0,1,.118-.078c4.622-3.9,10.988-9.088,18.685-14.846C42.148,293.138,65.2,277.8,89.976,267.011a169.991,169.991,0,0,1,35.078-11.379,113.919,113.919,0,0,1,12.018-1.747v-.023s9.969-.176,14.67-11.127c.155-.358.3-.67.437-.948,6-13.095,15.306-37.457,22.173-74.173q1.7-9.107,3.173-19.214c1.136-7.873,2.154-16.2,3-24.991.646-6.718,1.195-13.71,1.606-21,.215-3.271.372-6.62.509-10.008.854-19.658.858-41.24-.323-64.793A13.3,13.3,0,0,0,171.6,15.236l-.186-.037-10.478-2.174C146.97,9.95,129.147,5.367,117.827,0h.627a127.4,127.4,0,0,0,44.42,8.4q5.611.088,11.712-.294c4.642-.294,9.479-.823,14.532-1.626,1.665,13.377,4.661,41.228,5.641,75.013.118,4.113.216,8.324.255,12.594.02,1.508.732,4.5.815,6.03A168.992,168.992,0,0,1,196.189,117.422Z" transform="translate(121.387 31.937)"/><g class="b" transform="translate(201.876 143.415)"><path class="am" d="M19.033,0S29.414,105.337,0,188.369L20.81,194.4l11.767-6.036C37.708,189.162,56.234,111.64,51.461,0Z"/><path class="ao" d="M 19.0332145690918 4.57763671875e-05 C 19.0332145690918 4.57763671875e-05 29.41374397277832 105.3373947143555 6.866455078125e-05 188.3686676025391 L 20.8098030090332 194.4048919677734 L 32.57688903808594 188.3686676025391 C 32.60288619995117 188.3726806640625 32.62931060791016 188.3746948242188 32.65599060058594 188.3746948242188 C 37.89543533325195 188.3746948242188 56.21000671386719 111.0745162963867 51.46118545532227 0.0001373291015625 L 19.0332145690918 4.57763671875e-05 M 16.82641983032227 -1.999954223632813 L 19.0332145690918 -1.999954223632813 L 51.46118545532227 -1.999862670898438 L 53.37751007080078 -1.999862670898438 L 53.4593620300293 -0.0853118896484375 C 54.51762771606445 24.66737365722656 54.49836349487305 49.39692687988281 53.40212631225586 73.41651153564453 C 52.46850967407227 93.87242889404297 50.77845001220703 113.4941864013672 48.37889099121094 131.7366943359375 C 45.85521697998047 150.9226684570313 43.16321563720703 163.8667144775391 41.34927368164063 171.3469543457031 C 40.19827270507813 176.0934295654297 39.06444931030273 180.0466613769531 37.97927093505859 183.0968627929688 C 36.84997940063477 186.2710723876953 35.82518768310547 188.3106842041016 34.84633255004883 189.3323059082031 C 34.31898498535156 189.8826904296875 33.74463653564453 190.2171783447266 33.13362884521484 190.3308715820313 L 21.72265625 196.1844177246094 L 21.01571655273438 196.5470733642578 L 20.25262832641602 196.3257141113281 L -0.5571098327636719 190.2894897460938 L -2.592960357666016 189.6989593505859 L -1.885139465332031 187.7008361816406 C 13.22250747680664 145.0537719726563 17.56503677368164 96.34260559082031 18.54762649536133 62.98872375488281 C 19.10450744628906 44.08613586425781 18.66471481323242 28.00775146484375 18.19768524169922 17.84822082519531 C 17.69235992431641 6.854888916015625 17.04930114746094 0.2615203857421875 17.04286193847656 0.196197509765625 L 16.82641983032227 -1.999954223632813 Z"/></g><path class="o" d="M5.249,30.217S13.12,16.622,8.218,1.1L3,0,0,28.985Z" transform="translate(264.168 115.954)"/><path class="d" d="M69.427,22.765C28.65,22.216,0,0,0,0" transform="translate(241.516 7.324)"/><path class="j" d="M35.674,0C16.636,20.761.717,46.437.012,66.983A30.172,30.172,0,0,0,2.068,77.99a.019.019,0,0,1,.02.02c.451,1.234.979,2.507,1.547,3.8.274.607.548,1.214.862,1.841.235.451.45.9.685,1.371.784,1.489,1.626,3.016,2.546,4.563,2.057,3.506,5.6,7.488,8.263,11.17-2.82-5.131-5.952-9.681-7.343-13.618C5.966,79.518,5.907,72.806,5.907,62.028,5.907,43.071,30.307,8.539,35.674,0Z" transform="translate(53.628 202.508)"/><path class="j" d="M7.893,1.747C5.288,3.1,2.644,4.626,0,6.33,7.658,1.884,24.885-6.827,14.072,32.861,20.669,12.8,22.641-5.891,7.893,1.747Z" transform="translate(118.704 169.992)"/><path class="h" d="M25.081,6.632c.744-1.684.96-4.536,1.861-6.632C22.1,10.361,10.263,30.323,0,38.137,2.252,36.453,18.422,23.4,20.185,20.655c1.939-3.036,25.3,23.736,25.3,23.736L27.079,20.929A13.707,13.707,0,0,1,25.081,6.632Z" transform="translate(91.938 239.298)"/><path class="d" d="M0,0S14.47,7.615,43.607,6.191" transform="translate(214.08 52.733)"/><ellipse class="u" cx="31.262" cy="31.262" rx="31.262" ry="31.262" transform="translate(206.893 96.331)"/><path class="v" d="M56.569,30.426A30.419,30.419,0,0,0,26.141,0C16.92,0,9.579,5.235,4.011,11.716c.349-.76-.392.719,0,0C1.336,16.611,0,18.922,0,24.882a34.709,34.709,0,0,0,34.712,34.71l-.276-.652C47.049,55.241,56.569,44.238,56.569,30.426Z" transform="translate(205.725 100.261)"/><g class="d" transform="translate(206.893 96.331)"><ellipse class="am" cx="31.262" cy="31.262" rx="31.262" ry="31.262"/><ellipse class="ap" cx="31.262" cy="31.262" rx="32.262" ry="32.262"/></g><path class="w" d="M96.457,2.511a9.756,9.756,0,0,1,3.282,9.934C94.033,35.756,73.517,115.275,0,86.9a21.4,21.4,0,0,1,5.6.834C23.91,92.49,81.171,100.218,88.709,2.486a2.831,2.831,0,0,1,3.512-2.4A12.079,12.079,0,0,1,96.457,2.511Z" transform="translate(171.439 539.913)"/><ellipse class="w" cx="9.301" cy="9.301" rx="9.301" ry="9.301" transform="translate(162.138 617.516)"/><path class="x" d="M69.645,205.193,30.281,150.257,0,81.047s.866-32.876,2.6-35.9S75.508,0,75.508,0l52.1,3.185L189.465,26.11l29.414,31.145-14.707,54.936L178.65,182.268l-30.279,39.569-68.779,3.686Z" transform="translate(111.469 342.441)"/><g transform="translate(129.876 383.738)"><path class="y" d="M12.633.22A27.965,27.965,0,0,0,0,1.532a28.442,28.442,0,0,1,8.755-.274A20,20,0,0,1,14.748,3.1c.274.137.568.274.842.431a4.992,4.992,0,0,1,.842.45c.294.157.568.333.862.509a17.872,17.872,0,0,1,1.665,1.136h.02A19.576,19.576,0,0,1,20.6,6.918a8.982,8.982,0,0,1,.8.705,30.027,30.027,0,0,1,3.819,4.152,8.407,8.407,0,0,1,.705.94c.235.313.47.666.685,1,.45.666.881,1.351,1.293,2.1a11.822,11.822,0,0,1,.588,1.1c.215.372.392.744.588,1.136.176.392.353.783.529,1.195a32.4,32.4,0,0,1,1.43,3.8c.137.45.274.881.392,1.351.118.431.235.862.333,1.312a42.74,42.74,0,0,1,1.116,6.992c.039.588.078,1.175.1,1.782.02.646.039,1.312.039,1.978a56.982,56.982,0,0,1-.764,9.205c-3.251,20-12.554,34.823-21.6,41.208a13.758,13.758,0,0,1-1.939,1.116,12.071,12.071,0,0,0,5.837-2.154C23.6,79.444,32.884,64.617,36.135,44.621,40.64,17,24.384,1.728,12.633.22Z" transform="translate(131.4 37.833)"/><path class="j" d="M33.241,85.818A12.3,12.3,0,0,1,17.46,84.36C10.9,77.77,1.067,64.021.076,40.23-1.424,4.218,19.581-1.284,31.335.219s28.008,16.787,23.507,44.4C51.583,64.616,42.3,79.44,33.241,85.818Z" transform="translate(109.899 38.851)"/><path class="f" d="M9.5,15.672a4.818,4.818,0,0,0,3.345,4.575c-1.31,2.991-3.363,4.926-5.678,4.926C3.208,25.173,0,19.539,0,12.588S3.208,0,7.169,0c3.621,0,6.606,4.72,7.092,10.845A4.831,4.831,0,0,0,9.5,15.672Z" transform="translate(114.077 64.159)"/><path class="y" d="M23.076,28.883C74.339,37.262,84.093,0,84.093,0S64.212,37.636,19.075,22.132,23.076,28.883,23.076,28.883Z" transform="translate(0 65.951)"/><path class="j" d="M23.362,22.131a88.768,88.768,0,0,1,22.715-5.147c9.8-.889,22.672-2.995,20.784-7.875-3-7.752-12.253-11-38.012-8S-3.159,17.111,1.341,21.862c1.97,2.078,5.662,2.673,9.193,2.685a36.8,36.8,0,0,0,12.827-2.417Z" transform="translate(59.619 1.952)"/><path class="z" d="M38.868,42.575c-3.259,19.995-12.546,34.819-21.6,41.2a12.3,12.3,0,0,1-15.78-1.457C1.007,81.835.509,81.3,0,80.746a12.167,12.167,0,0,0,10.345-1.731c9.054-6.375,18.344-21.2,21.6-41.194C34.872,19.868,29.026,7.133,21.35,0,31.856,4.983,42.636,19.454,38.868,42.575Z" transform="translate(125.873 40.897)"/><path class="y" d="M64.821,5.67C60.375.458,50.367-1.4,28.842,1.1c-25.755,3.016-32,16-27.5,20.761A5.58,5.58,0,0,0,2.813,23C-.36,17.733,6.534,5.905,30.957,3.063,49.583.891,59.572,1.988,64.821,5.67Z" transform="translate(57.515 0)"/></g><path class="h" d="M4.72,0S16.054,34.913,33.5,67.506c19.766,36.929,46.892,71.918,65.347,68.779,45.345-7.717,61.726-44.734,61.726-44.734l3.226,12.323L110.506,162.24l-32.8-9.523L23.031,81.12,2.832,32.387,0,0Z" transform="translate(124.172 406.739)"/><path class="d" d="M86.235,208.216S-1.142,133.238.011,99.786,39.519,19.329,72.97,2.027c27.7-14.329.627,51.232-9.5,74.2a13.72,13.72,0,0,0,2,14.3l25.375,30.61" transform="translate(53.635 169.709)"/><path class="d" d="M0,0S7.691,9.542,4.808,27.379" transform="translate(144.475 290.845)"/><path class="aa" d="M282.231,87.9c-9.338,34.88-41.239,136.337-106.54,182.871a7.546,7.546,0,0,1-8.974-.127l-6.749-5.174a20.04,20.04,0,0,0-11.695-4.146C121.824,260.65,19.088,248.479.027,101.511c0,0-2.017-17.88,28.838,1.154,0,0-11.534-27.108,0-39.508S66.643,0,158.923,0C228.168,0,264.615,42.707,278.5,64.026A29.686,29.686,0,0,1,282.231,87.9Zm-24.7-24.862c-7.164-10.606-32.25-39.395-93.418-39.395-58.767,0-85.292,30.469-94.015,43.647a17.17,17.17,0,0,0-2.63,12.069C79.625,159.8,138.527,216.3,154.4,230.239a7.678,7.678,0,0,0,8.639,1c78.7-41.114,94-139.152,96.416-160.279A11.74,11.74,0,0,0,257.533,63.043Z" transform="translate(59.534 331.783)"/><path class="j" d="M50.022,111.266C9.029,56.838.627,11.849,0,0,1.6,67,50.358,109.4,50.022,111.266Z" transform="translate(122.876 421.182)"/><path class="o" d="M42.234,44.868,27.8,8.125C-1.951-9.855.027,7.616.027,7.616c3.31,25.52,9.146,46.966,16.667,65C-18.3-36.217,41.118,43.36,42.234,44.868Z" transform="translate(59.528 425.67)"/><path class="j" d="M13.249,1.093C12.6.9,12,.721,11.408.565c-.255-.059-.49-.1-.725-.157a18.209,18.209,0,0,0-1.9-.313C4.905-.336,2.731.761,1.517,2.249A5.857,5.857,0,0,0,.792,3.385a8.383,8.383,0,0,0-.764,4.23C.185,8.771.322,9.907.5,11.043c.157,1.116.313,2.252.49,3.369.333,2.233.685,4.426,1.077,6.6.137.862.294,1.724.451,2.585q.94,5.141,2.037,10.028L5.2,36.5c.02.1.059.215.078.313.215.96.45,1.9.685,2.84.607,2.468,1.234,4.9,1.9,7.266.294,1.058.588,2.1.881,3.134.842,2.859,1.724,5.66,2.644,8.383.294.881.588,1.743.9,2.6.235.686.47,1.371.705,2.017.313.881.627,1.763.96,2.624.45,1.175.9,2.35,1.351,3.506.392.979.764,1.939,1.156,2.879.078.2.157.372.235.548,3.192,7.678,3.506,8.97,7.266,15.453A401.664,401.664,0,0,1,6.687,34.82C1.713,14.725,1.047-1.609,13.249,1.093Z" transform="translate(59.527 425.67)"/><g class="b" transform="translate(59.534 331.783)"><path class="am" d="M282.231,87.9c-9.338,34.88-41.239,136.337-106.54,182.871a7.546,7.546,0,0,1-8.974-.127l-6.749-5.174a20.04,20.04,0,0,0-11.695-4.146C121.824,260.65,19.088,248.479.027,101.511c0,0-2.017-17.88,28.838,1.154,0,0-11.534-27.108,0-39.508S66.643,0,158.923,0C228.168,0,264.615,42.707,278.5,64.026A29.686,29.686,0,0,1,282.231,87.9Zm-24.7-24.862c-7.164-10.606-32.25-39.395-93.418-39.395-58.767,0-85.292,30.469-94.015,43.647a17.17,17.17,0,0,0-2.63,12.069c12.155,80.438,70.54,137.168,86.414,151.109,2.389,2.1,6.334,2.243,9.154.768,78.7-41.114,94-139.152,96.416-160.279A11.74,11.74,0,0,0,257.533,63.043Z"/><path class="ao" d="M 158.9231567382813 0.000244140625 C 66.65705871582031 0.000244140625 40.400146484375 50.75712585449219 28.86485290527344 63.15599060058594 C 17.33087158203125 75.55574035644531 28.86485290527344 102.6641082763672 28.86485290527344 102.6641082763672 C 18.1453857421875 96.05171203613281 11.39508056640625 93.89453125 7.147735595703125 93.89506530761719 C -0.83056640625 93.89608764648438 0.026885986328125 101.5105743408203 0.026885986328125 101.5105743408203 C 19.08782958984375 248.4790802001953 121.8242797851563 260.6495666503906 148.2726898193359 261.3272705078125 C 152.5150299072266 261.4350280761719 156.5985717773438 262.8902282714844 159.9672241210938 265.4736022949219 L 166.7164916992188 270.6481018066406 C 168.0594787597656 271.6783142089844 169.6643676757813 272.1915893554688 171.2734069824219 272.1915893554688 C 172.8181457519531 272.1915893554688 174.3667297363281 271.7184143066406 175.6906127929688 270.7754211425781 C 240.9911499023438 224.2419891357422 272.8922729492188 122.7845306396484 282.2305297851563 87.90452575683594 C 284.4085083007813 79.77061462402344 283.0884399414063 71.08244323730469 278.4955139160156 64.02574157714844 C 264.6151428222656 42.70681762695313 228.1682739257813 0.000244140625 158.9232788085938 0.000244140625 C 158.9176330566406 0.000244140625 158.9288024902344 0.000244140625 158.9231567382813 0.000244140625 M 158.9311218261719 232.2182464599609 C 157.0745544433594 232.2182464599609 155.2318420410156 231.6564636230469 153.8841094970703 230.4721069335938 C 138.0098114013672 216.5309906005859 79.62498474121094 159.8012847900391 67.47010803222656 79.3631591796875 C 66.83164978027344 75.1463623046875 67.74623107910156 70.85124206542969 70.10047912597656 67.29449462890625 C 78.82389831542969 54.11723327636719 105.3488159179688 23.64785766601563 164.1153869628906 23.64794921875 C 225.2832641601563 23.64794921875 250.3686828613281 52.43695068359375 257.5330200195313 63.04261779785156 C 259.1038208007813 65.36737060546875 259.7736206054688 68.17399597167969 259.4545288085938 70.96107482910156 C 257.0376586914063 92.08799743652344 241.7412719726563 190.125732421875 163.0382690429688 231.2398986816406 C 161.8088531494141 231.8827819824219 160.3658447265625 232.2182464599609 158.9311218261719 232.2182464599609 M 158.9216461181641 -1.999755859375 L 158.9231567382813 -1.999755859375 L 158.9232788085938 -1.999755859375 L 158.9247741699219 -1.999755859375 C 167.3742828369141 -1.99969482421875 175.704833984375 -1.360015869140625 183.6849822998047 -0.098541259765625 C 191.1401977539063 1.0799560546875 198.4745178222656 2.830291748046875 205.4842834472656 5.10382080078125 C 217.95068359375 9.14715576171875 229.7654418945313 14.95556640625 240.6003570556641 22.36769104003906 C 260.2109069824219 35.78315734863281 272.9434814453125 51.83282470703125 280.1715698242188 62.93449401855469 C 285.0415649414063 70.41690063476563 286.49609375 79.70657348632813 284.1624755859375 88.42182922363281 C 279.5325622558594 105.7153167724609 269.1643981933594 140.0689544677734 251.7445983886719 175.8454895019531 C 242.0795288085938 195.6954956054688 231.4593200683594 213.4673614501953 220.1789855957031 228.6674499511719 C 213.7303161621094 237.3569488525391 206.96240234375 245.3373718261719 200.0632629394531 252.3869934082031 C 192.6034393310547 260.009521484375 184.7937622070313 266.7442932128906 176.8512725830078 272.4041442871094 C 175.2096099853516 273.5735778808594 173.2809448242188 274.1915588378906 171.2734069824219 274.1915588378906 C 169.1645202636719 274.1915588378906 167.1678161621094 273.5149841308594 165.4991912841797 272.2349853515625 L 158.7503662109375 267.0608215332031 C 155.6915588378906 264.7151184082031 152.0509796142578 263.4239196777344 148.2218933105469 263.32666015625 C 141.0753631591797 263.1435241699219 129.7071075439453 262.1876220703125 116.1306457519531 258.6736450195313 C 99.48869323730469 254.3662414550781 84.05184936523438 247.3863220214844 70.24894714355469 237.9277801513672 C 61.82293701171875 232.1538238525391 53.95951843261719 225.3997802734375 46.87710571289063 217.8533325195313 C 38.99661254882813 209.4564514160156 31.90007019042969 199.8822021484375 25.78469848632813 189.3965759277344 C 19.08688354492188 177.9124145507813 13.4002685546875 165.0493621826172 8.882720947265625 151.1647338867188 C 6.483856201171875 143.7918243408203 4.36651611328125 135.9811553955078 2.589569091796875 127.9496612548828 C 0.744842529296875 119.6120758056641 -0.784637451171875 110.8031921386719 -1.95648193359375 101.767822265625 L -1.958648681640625 101.7511138916016 L -1.9605712890625 101.7343597412109 C -1.972991943359375 101.6239929199219 -2.07647705078125 100.6179504394531 -1.886199951171875 99.29695129394531 C -1.621612548828125 97.46006774902344 -0.907135009765625 95.84611511230469 0.17999267578125 94.62957763671875 C 1.801055908203125 92.81544494628906 4.145263671875 91.89544677734375 7.147491455078125 91.89508056640625 C 9.69464111328125 91.89474487304688 12.77261352539063 92.58024597167969 16.2958984375 93.93252563476563 C 18.93655395507813 94.946044921875 21.88681030273438 96.35566711425781 25.1068115234375 98.14076232910156 C 24.2354736328125 95.41206359863281 23.25021362304688 91.83604431152344 22.56893920898438 87.90115356445313 C 21.69796752929688 82.87081909179688 21.511474609375 78.29808044433594 22.01467895507813 74.30990600585938 C 22.6661376953125 69.14645385742188 24.47817993164063 64.93540954589844 27.40043640136719 61.7938232421875 C 28.78561401367188 60.30499267578125 30.46794128417969 58.14169311523438 32.41593933105469 55.63682556152344 C 36.02139282226563 51.0006103515625 40.50852966308594 45.23074340820313 46.65348815917969 38.97224426269531 C 53.94677734375 31.54420471191406 61.71493530273438 25.32827758789063 70.40190124511719 19.96928405761719 C 75.57351684570313 16.77890014648438 81.09980773925781 13.89739990234375 86.8272705078125 11.40481567382813 C 93.11894226074219 8.666656494140625 99.83914184570313 6.31671142578125 106.8012390136719 4.42022705078125 C 114.3435668945313 2.365692138671875 122.3859405517578 0.784393310546875 130.7049407958984 -0.2796630859375 C 139.6273498535156 -1.420989990234375 149.1209869384766 -1.99969482421875 158.9216461181641 -1.999755859375 L 158.9216461181641 -1.999755859375 Z M 158.93115234375 230.2182312011719 C 160.0563049316406 230.2182312011719 161.1858215332031 229.95166015625 162.1115264892578 229.4675750732422 C 240.2569427490234 188.6446990966797 255.2545166015625 90.07820129394531 257.4674682617188 70.73373413085938 C 257.733642578125 68.40899658203125 257.1683959960938 66.07528686523438 255.8758544921875 64.16232299804688 C 248.0531463623047 52.58207702636719 223.4525604248047 25.64794921875 164.1153869628906 25.64794921875 C 106.31005859375 25.64785766601563 80.27748107910156 55.54466247558594 71.76814270019531 68.39848327636719 C 69.70285034179688 71.51873779296875 68.87869262695313 75.30644226074219 69.44757080078125 79.06373596191406 C 81.81727600097656 160.9235229492188 143.0537719726563 218.2989044189453 155.203857421875 228.9693603515625 C 156.1204833984375 229.7748718261719 157.4440307617188 230.2182312011719 158.93115234375 230.2182312011719 Z"/></g><path class="o" d="M128.952,80.047a111.132,111.132,0,0,1-18.8-16.413h-.02C56.818,72.114,14.454,20.428,0,0,37.7,71.429,103.843,78.852,124.31,79.361A19.406,19.406,0,0,1,128.952,80.047Z" transform="translate(83.489 513.743)"/><path class="f" d="M11.043,27.078S19.22,31.1,17.958,16.631,7.788-1.331,3.079.412c-1.765.654-2.585,2.7-2.922,5a16.61,16.61,0,0,0,3.688,12.7Z" transform="translate(153.508 545.659)"/><path class="ab" d="M131.347,4.633a10.772,10.772,0,0,1-.3,11.55C116.568,38.029,65.733,112.4.995,58.936c-.723-.6-.268-2.384-.995-3.012,0,0,70.4,63.557,123.307-54.213A3.125,3.125,0,0,1,127.851.534,13.3,13.3,0,0,1,131.347,4.633Z" transform="translate(35.16 555.659)"/><ellipse class="ac" cx="11.625" cy="11.625" rx="11.625" ry="11.625" transform="translate(23.115 600.316)"/><path class="w" d="M10.776,22.435A11.618,11.618,0,0,0,0,2,11.621,11.621,0,1,1,10.776,22.435Z" transform="translate(27.386 600.723)"/><path class="j" d="M7.372,0A11.619,11.619,0,0,0,18.148,20.432,11.621,11.621,0,1,1,7.372,0Z" transform="translate(23.114 601.13)"/><line class="d" x2="20.723" y2="52.737" transform="translate(85.39 428.839)"/><ellipse class="f" cx="7.354" cy="12.004" rx="7.354" ry="12.004" transform="translate(58.389 311.034) rotate(11.183)"/><path class="ad" d="M46.7,14.917l-14.546-4.64a1.559,1.559,0,0,0-1.837.733L4.164,58.421,0,55.173,28.28.839a1.559,1.559,0,0,1,1.81-.78L50.208,5.8S51.824,13.689,46.7,14.917Z" transform="translate(13.737 313.546)"/><g class="b" transform="translate(13.737 313.546)"><path class="am" d="M46.7,14.917l-14.546-4.64a1.559,1.559,0,0,0-1.837.733L4.164,58.421,0,55.173,28.28.839a1.559,1.559,0,0,1,1.81-.78L50.208,5.8S51.824,13.689,46.7,14.917Z"/><path class="ao" d="M 29.66260528564453 0.0001068115234375 C 29.09220123291016 0.0001068115234375 28.55259323120117 0.3133964538574219 28.279541015625 0.8390464782714844 L 5.340576171875e-05 55.17333602905273 L 4.16387939453125 58.42059707641602 L 30.31847953796387 11.00982284545898 C 30.59934234619141 10.5014762878418 31.12880516052246 10.20374298095703 31.68351554870605 10.20374298095703 C 31.84050178527832 10.20374298095703 31.99956130981445 10.22760391235352 32.155517578125 10.27728652954102 L 46.70177841186523 14.91717147827148 C 51.82354354858398 13.68914794921875 50.2076416015625 5.799983978271484 50.2076416015625 5.799983978271484 L 30.08935356140137 0.05950927734375 C 29.94757080078125 0.01938247680664063 29.80418586730957 0.0001068115234375 29.66260528564453 0.0001068115234375 M 29.6626033782959 -1.999889373779297 C 29.99066734313965 -1.999889373779297 30.31746673583984 -1.954479217529297 30.63395500183105 -1.864913940429688 L 50.75641632080078 3.876747131347656 L 51.92344284057617 4.209735870361328 L 52.16696548461914 5.398674011230469 C 52.18604278564453 5.491809844970703 52.6311149597168 7.707546234130859 52.36312866210938 10.11897277832031 C 51.95836639404297 13.76112365722656 50.1134033203125 16.15586090087891 47.1680908203125 16.8620491027832 L 46.62554168701172 16.99213409423828 L 46.0940055847168 16.82258605957031 L 31.89456748962402 12.29332733154297 L 5.915081024169922 59.38666152954102 L 4.782642364501953 61.43946075439453 L 2.933940887451172 59.99769592285156 L -1.229885101318359 56.75043487548828 L -2.542621612548828 55.7266731262207 L -1.774032592773438 54.24997329711914 L 26.50545501708984 -0.08431625366210938 C 27.11892890930176 -1.265338897705078 28.32896614074707 -1.999889373779297 29.6626033782959 -1.999889373779297 Z"/></g><path class="ae" d="M4.585,9.967A2.943,2.943,0,0,0,8.193,7.889l.121-.45L9.846,1.755,4.162.224,3.712.1A2.945,2.945,0,0,0,.1,2.178h0A2.945,2.945,0,0,0,2.18,5.788l.45.121-.121.448A2.945,2.945,0,0,0,4.585,9.967Z" transform="translate(57.589 174.524)"/><path class="af" d="M0,4.984,5.023,0,11.51,2.83,6.486,7.814Z" transform="translate(56.956 157.649)"/><path class="d" d="M28.834,25.943S12.043,16.287,0,0" transform="translate(188.276 570.861)"/><path class="d" d="M0,0S7.977,94.818,108.422,168.354" transform="translate(127.005 411.146)"/><path class="d" d="M0,0" transform="translate(297.566 137.531)"/><path class="d" d="M0,0" transform="translate(336.712 135.296)"/><path class="ag" d="M0,0" transform="translate(299.757 92.905)"/><path class="ag" d="M0,0" transform="translate(285.129 96.006)"/><path class="h" d="M224.236,58.228,211.525,33.452l-.019-.02a138.23,138.23,0,0,0-23.973-16.589c-1.371-.744-2.8-1.489-4.231-2.213C166.008,6.013,144.659,0,118.689,0,86.98,0,63.066,5.993,44.851,14.376c-.078.039-.157.078-.255.117L34.549,19.7A126.06,126.06,0,0,0,0,49.082c14.1-8.99,63.81-36.762,123.879-25.442,61.166,0,86.255,28.791,93.424,39.387a11.819,11.819,0,0,1,1.92,7.932c-2.409,21.113-17.705,119.159-96.42,160.269-2.82,1.469-6.757,1.332-9.146-.764C97.772,216.519,39.387,159.8,27.244,79.361a17.182,17.182,0,0,1,2.624-12.084,81.811,81.811,0,0,1,5.66-7.521C34.1,61.264,22.308,74.23,23.111,89.389c.627,11.849,9.029,56.837,50.022,111.266l.039.039a388.8,388.8,0,0,0,52.7,56.6,11.1,11.1,0,0,0,13.1,1.214c10.89-6.561,29.79-22.191,43.3-43.382,19.762-31,36.841-67.531,47.006-122.057A54.454,54.454,0,0,0,224.236,58.228Z" transform="translate(99.765 331.793)"/><path class="w" d="M83.689,4.639A13.836,13.836,0,0,0,80.184.526,3.136,3.136,0,0,0,75.64,1.721S94.4,12.062,36,64.18C27.185,72.053,14.748,76.3,0,77.89c41.757-.176,72.6-45.478,83.376-61.714A10.737,10.737,0,0,0,83.689,4.639Z" transform="translate(82.823 555.659)"/><path class="ah" d="M0,0" transform="translate(266.387 20.85)"/><path class="ai" d="M9.709,23.091A11.623,11.623,0,1,0,.415,14.71" transform="translate(23.115 600.317)"/><path class="j" d="M46.155,0C44.529.764,38.63,3.147,33.248,5.66c-5.754,2.687-11.125,3.78-8.99.725-.431.411-.823.823-1.214,1.234-.1.118-.2.215-.294.313q-.881.911-1.7,1.821c-1.645,1.8-3.153,3.545-4.563,5.229C11.41,21.035,7.865,26.108,5.123,29.046-.694,35.293-.635,45.282.834,53.645-.087,43.519,3.85,21.623,46.155,0Z" transform="translate(83.282 365.891)"/><path class="aj" d="M0,0" transform="translate(104.857 186.438)"/><ellipse class="ak" cx="12.033" cy="12.033" rx="12.033" ry="12.033" transform="translate(0 367.334)"/><g class="d" transform="translate(0 367.334)"><ellipse class="am" cx="12.033" cy="12.033" rx="12.033" ry="12.033"/><ellipse class="ap" cx="12.033" cy="12.033" rx="13.033" ry="13.033"/></g><path class="j" d="M13.842,2.947a8.944,8.944,0,0,0-12.073-1.1A11.849,11.849,0,0,0,.014,7.413,12.076,12.076,0,0,0,4.656,17.539,8.956,8.956,0,0,0,13.842,2.947Z" transform="translate(0.001 371.327)"/><path class="f" d="M36.075,27.39,9.307,43.327A6.157,6.157,0,0,1,0,38.036V17.947a2.541,2.541,0,0,1,2.736-2.738A7.773,7.773,0,0,1,6.25,16.551l-.319.527L4.914,18.752A13.112,13.112,0,0,0,6.236,21.3l-2.317,1.79,2.194,1.275a3.825,3.825,0,0,0,3.145.008s6.961,5.147,14.4,3.316a.85.85,0,0,0,.625-1c-1.59-7.5-9.25-11.528-9.25-11.528a3.826,3.826,0,0,0-1.377-2.828l-2.1-1.42-.6,2.865A13.051,13.051,0,0,0,8.087,13.7l-.646,1-.378.58C3.97,13.509,0,10.419,0,6.165A6.155,6.155,0,0,1,9.307.877L36.075,16.812A6.155,6.155,0,0,1,36.075,27.39Z" transform="translate(222.153 105.104)"/><path class="al" d="M36.075,27.39,9.307,43.327A6.157,6.157,0,0,1,0,38.036V17.947a2.541,2.541,0,0,1,2.736-2.738A7.774,7.774,0,0,1,6.25,16.551l-.319.527L4.914,18.752A13.12,13.12,0,0,0,6.236,21.3l-2.317,1.79,2.194,1.275a3.824,3.824,0,0,0,3.145.008s6.961,5.147,14.4,3.316a.85.85,0,0,0,.625-1c-1.59-7.5-9.25-11.528-9.25-11.528a3.826,3.826,0,0,0-1.377-2.828l-2.1-1.42-.6,2.865A13.051,13.051,0,0,0,8.087,13.7l-.646,1-.378.58C3.97,13.509,0,10.419,0,6.165A6.155,6.155,0,0,1,9.307.877L36.075,16.812A6.155,6.155,0,0,1,36.075,27.39Z" transform="translate(224.112 105.104)"/><g transform="translate(140.059 122.216)"><g transform="translate(0 0)"><path class="n" d="M6.833,12.246,8.108,8.111l4.129-1.295L8.7,4.327,8.742,0,5.281,2.6l-4.1-1.38,1.4,4.094L0,8.785l4.326-.066Z" transform="translate(0 6.357)"/><path class="n" d="M6.661,12.141l1.47-4.07,4.186-1.1L8.9,4.32,9.151,0,5.57,2.428,1.539.855l1.2,4.156L0,8.359l4.325.14Z" transform="translate(22.517 2.397)"/><path class="n" d="M6.446,11.988,8.134,8l4.239-.868L9.106,4.3,9.591,0,5.883,2.231,1.944.441l.976,4.215L0,7.85l4.311.375Z" transform="translate(45.916 0)"/><path class="n" d="M5.716,12.111,8.009,8.441l4.323-.191L9.551,4.935,10.7.765,6.692,2.386,3.083,0l.3,4.316L0,7.012,4.2,8.059Z" transform="translate(135.417 4.989)"/><path class="n" d="M4.3,12.387l3.119-3,4.239.869L9.769,6.364,11.9,2.6l-4.286.593L4.7,0,3.94,4.26,0,6.048,3.816,8.088Z" transform="translate(153.038 8.812)"/><path class="n" d="M6.4,9.765,2.656,11.932l.56-4.291L0,4.747l4.252-.793L6.011,0,8.079,3.8l.927.1c-.047,2.29-.178,5.372-.286,6.97Z" transform="translate(168.512 16.71)"/></g></g></g></svg>