<svg xmlns="http://www.w3.org/2000/svg" xmlns:xlink="http://www.w3.org/1999/xlink" width="195.158" height="154.521" viewBox="0 0 195.158 154.521"><defs><style>.a,.i,.j,.t{fill:none;}.b,.e,.g,.h,.i,.j,.l,.x{stroke:#000;}.b,.e,.g,.h,.i,.j,.l,.t,.x{stroke-miterlimit:10;}.b{fill:url(#a);}.c{clip-path:url(#b);}.d{opacity:0.3;}.e{fill:url(#c);}.f{clip-path:url(#d);}.g{fill:url(#e);}.h{fill:url(#f);}.i{stroke-width:2px;}.k{fill:#7e4e74;}.l,.o{fill:#956772;}.m{clip-path:url(#g);}.n{fill:#a86d81;}.p{clip-path:url(#h);}.q{clip-path:url(#i);}.r{clip-path:url(#j);}.s{fill:url(#k);}.t{stroke:#eaeaea;}.u{opacity:0.47;}.v{fill:#bcbbbb;}.w{fill:url(#l);}.x{fill:url(#m);}.y{clip-path:url(#n);}.z{stroke:none;}</style><linearGradient id="a" x1="0.578" y1="0.017" x2="0.441" y2="1.002" gradientUnits="objectBoundingBox"><stop offset="0" stop-color="#7e4e74"/><stop offset="0.406" stop-color="#704467"/><stop offset="1" stop-color="#55314e"/></linearGradient><clipPath id="b"><path class="a" d="M434.554,423.489c2.851,13.647-15.887,20.872-33.8,20.872s-32.441-11.291-32.441-25.22,12.745-27.477,30.663-27.477S431.106,406.986,434.554,423.489Z" transform="translate(-368.31 -391.664)"/></clipPath><linearGradient id="c" x1="0" y1="0.5" x2="1" y2="0.5" xlink:href="#a"/><clipPath id="d"><path class="a" d="M401.9,403.935s12.356,6.337,13.94,19.011-13.782,16.635-13.94,16.635-49.431-3.328-49.431-3.328l36.28-24.08Z" transform="translate(-352.468 -403.935)"/></clipPath><linearGradient id="e" x1="0.5" x2="0.5" y2="1" gradientUnits="objectBoundingBox"><stop offset="0" stop-color="#6b3d62"/><stop offset="0.426" stop-color="#5f3657"/><stop offset="1" stop-color="#55314e"/></linearGradient><linearGradient id="f" x1="14.136" y1="30.037" x2="14.04" y2="30.378" xlink:href="#a"/><clipPath id="g"><path class="a" d="M329.444,371.258s-2.258,20.87,15.446,40.476l11.051-13.427Z" transform="translate(-329.35 -371.258)"/></clipPath><clipPath id="h"><path class="a" d="M359.288,403.551s-20.119-27.962-28.358-21.071-7.7,9.988-7.7,9.988,4.288-16.721,4.6-17.037,17.756-7.447,19.056-5.783S379.091,402.2,379.091,402.2Z" transform="translate(-323.228 -369.396)"/></clipPath><clipPath id="i"><path class="a" d="M351.314,360.951s17.082,12.2,19.94,38.461l-17.375-.682Z" transform="translate(-351.314 -360.951)"/></clipPath><clipPath id="j"><path class="a" d="M363.82,400.783s-7.488-33.623,3.137-35.189,12.578.9,12.578.9-15.337-7.924-15.786-7.9-17.371,8.3-16.995,10.379,2.885,45.7,2.885,45.7Z" transform="translate(-346.748 -358.596)"/></clipPath><radialGradient id="k" cx="73.125" cy="73.125" r="73.125" gradientUnits="userSpaceOnUse"><stop offset="0.579" stop-color="#fff" stop-opacity="0"/><stop offset="1" stop-opacity="0.039"/></radialGradient><radialGradient id="l" cx="73.125" cy="73.125" r="73.125" gradientUnits="userSpaceOnUse"><stop offset="0.579" stop-color="#fff" stop-opacity="0.302"/><stop offset="1" stop-color="#6161ff" stop-opacity="0.039"/></radialGradient><linearGradient id="m" x1="0.565" y1="-0.076" x2="0.451" y2="1.064" xlink:href="#a"/><clipPath id="n"><path class="a" d="M429.8,402.429a41.829,41.829,0,0,1,2.917,8.8,12.257,12.257,0,0,1-.768,7.93c-20.2,3.94-21.505-2.2-41.943-1.854s-20.2,11.474-20.2,11.474-1.9,12.4,14.971,15.183,49.606-5.8,49.606-5.8,9.922-2.2,9.684-16.922C443.916,411.5,435.489,405.428,429.8,402.429Z" transform="translate(-369.748 -402.429)"/></clipPath></defs><g transform="translate(-770.001 -1495)"><g transform="translate(770.001 1495)"><path class="b" d="M434.554,423.489c2.851,13.647-15.887,20.872-33.8,20.872s-32.441-11.291-32.441-25.22,12.745-27.477,30.663-27.477S431.106,406.986,434.554,423.489Z" transform="translate(-251.057 -311.497)"/><g transform="translate(117.253 80.166)"><g class="c"><path class="d" d="M412.911,403.22s.89,13.782-27.626,14.494c0,0,14.674,5.941,30.227,3.98,4.9-.616,8.153-14.614,7.084-16.158S412.911,403.22,412.911,403.22Z" transform="translate(-348.98 -378.505)"/></g></g><g transform="translate(83.37 106.411)"><path class="e" d="M401.9,403.935s12.356,6.337,13.94,19.011-13.782,16.635-13.94,16.635-49.431-3.328-49.431-3.328l36.28-24.08Z" transform="translate(-352.468 -403.935)"/><g class="f"><path class="d" d="M405.561,403.456s-5.546,5.464-8.318,15.763c0,0-5.783-1.11-7.605,5.941s-2.613,10.059-1.187,15.288h-37.39s17.822-27.329,20.2-28.993,24.715-8.157,25.111-8S405.561,403.456,405.561,403.456Z" transform="translate(-354.07 -404.484)"/></g></g><g transform="translate(44.567 132.716)"><path class="g" d="M407.515,431.53c4.678-4.573-13.239-7.1-17.429-7.208q-1.572-.577-3.4-1.155c-47.566-14.757-50.9-1.369-50.9-1.369-1.925.471-2.4,7.531,1.433,8.234,9.9,1.861,20.278.428,33.3.6,7.657.086,17.6.5,21.3,4.32a6.654,6.654,0,0,0,4.233,2.485,8.952,8.952,0,0,0,6.979-2.072C404.767,433.928,406.865,432.168,407.515,431.53Z" transform="translate(-334.325 -416.234)"/></g><g transform="translate(0 9.442)"><path class="h" d="M414.455,455.809s37.986-24.275,16.047-62.18c-11.109-19.2-29.641-22.006-45.23-20.1a66.466,66.466,0,0,0-48.124,29.964c-8.615,13.369-13.93,31.694-.723,51.518,0,0,16.911,28.093,44.069,16.779C380.493,471.785,404.332,462.477,414.455,455.809Z" transform="translate(-296.447 -342.17)"/><path class="i" d="M363.2,414.187s13.425,4.5,20.752-6.337c5.467-8.08.635-19.478.635-19.478" transform="translate(-256.874 -324.688)"/><path class="i" d="M379.115,403.368s.306,11.248-13.63,16.317a23.133,23.133,0,0,1-23.282-3.8" transform="translate(-280.788 -307.612)"/><path class="j" d="M378.709,405.177s.355,8.57-8.931,6.012c0,0,1.51,8.893-8.32,6.656" transform="translate(-258.86 -305.552)"/><g transform="translate(0 49.287)"><path class="k" d="M313.492,381.641l0,0,0,0Z" transform="translate(-313.487 -381.641)"/></g><g transform="translate(27.557 110.542)"><line class="j" x1="22.406" y2="7.596"/><line class="j" x1="6.769" y2="7.703" transform="translate(22.406 10.605)"/></g><g transform="translate(133.749 50.711)"><line class="j" x2="6.312" transform="translate(4.001 21.756)"/><line class="j" y1="10.099" x2="10.313"/></g><g transform="translate(20.832 23.1)"><path class="l" d="M363.907,391.458c-16.346,10.715-22.7,22.1-22.7,22.1l-3.112,6.861c-4.41-.462-9.879-12.221-11.466-23.516s-2.117-25.023,8.114-23.809,29.185,18.348,29.185,18.348Z" transform="translate(-320.361 -365.27)"/><g transform="translate(13.095 3.981)"><g class="m"><g transform="translate(-6.844 4.799)"><path class="n" d="M344.829,377.835c-3.245-1.852-6.677-3.608-10.2-4.216a7.088,7.088,0,0,0-4.868.731,7.306,7.306,0,0,0-2.759,4.1,32.335,32.335,0,0,0-.7,10.955,90.064,90.064,0,0,0,1.531,11.122,54.971,54.971,0,0,0,3.433,10.621,29.305,29.305,0,0,0,2.656,4.823,8.112,8.112,0,0,0,3.095,2.879l2.855-6.061.021-.047.008-.015a50.374,50.374,0,0,1,4.911-6.463,75.444,75.444,0,0,1,5.634-5.736c2.013-1.767,4.061-3.486,6.219-5.058,2.132-1.61,4.372-3.056,6.643-4.449l.017-.015A154.585,154.585,0,0,0,344.829,377.835Z" transform="translate(-326.15 -373.502)"/><path class="o" d="M343.526,381.693l-.005,0,.005,0,.006,0Z" transform="translate(-306.369 -364.179)"/></g></g></g><g class="p"><g transform="translate(6.383 8.67)"><path class="o" d="M343.586,381.641h0l0,0Z" transform="translate(-306.429 -364.126)"/><path class="k" d="M344.89,377.785c-3.245-1.854-6.677-3.608-10.2-4.218a7.092,7.092,0,0,0-4.868.734,7.309,7.309,0,0,0-2.759,4.1,32.385,32.385,0,0,0-.7,10.955,90.539,90.539,0,0,0,1.533,11.121,54.835,54.835,0,0,0,3.433,10.621,29.4,29.4,0,0,0,2.656,4.823,8.093,8.093,0,0,0,3.093,2.879l2.855-6.063.024-.047.009-.013a49.822,49.822,0,0,1,4.911-6.463,75.854,75.854,0,0,1,5.631-5.738c2.015-1.764,4.062-3.484,6.222-5.056,2.132-1.61,4.372-3.058,6.641-4.449l.019-.015A154.436,154.436,0,0,0,344.89,377.785Z" transform="translate(-326.212 -373.45)"/></g></g></g><g transform="translate(71.137)"><path class="l" d="M349.634,398.3c18.877-5.075,31.6-2.246,31.6-2.246l8.055,1.367c-.252-5.79-3.413-14.631-10.79-23.33s-17.273-18.231-23.171-9.783-5.721,34-5.721,34Z" transform="translate(-343.489 -355.826)"/><g transform="translate(9.765 5.037)"><g class="q"><g transform="translate(-3.471 1.086)"><path class="n" d="M352.168,375.216c.774-3.655,1.749-7.385,3.64-10.424a7.1,7.1,0,0,1,3.786-3.146,7.306,7.306,0,0,1,4.893.665,32.361,32.361,0,0,1,8.643,6.767,90.662,90.662,0,0,1,7.282,8.544,55,55,0,0,1,5.646,9.629,29.6,29.6,0,0,1,1.833,5.193,8.111,8.111,0,0,1,.09,4.224l-6.425-1.9-.049-.015-.017,0a50.221,50.221,0,0,0-8.093-.635,75.592,75.592,0,0,0-8.029.389c-2.658.327-5.306.712-7.916,1.279-2.62.52-5.191,1.23-7.74,2l-.021,0A154.183,154.183,0,0,1,352.168,375.216Z" transform="translate(-349.691 -361.459)"/><path class="o" d="M349.7,378.442h0Z" transform="translate(-349.683 -342.121)"/></g></g></g><g class="r"><g transform="translate(6.123 6.149)"><path class="o" d="M349.624,378.453h0Z" transform="translate(-349.6 -342.133)"/><path class="k" d="M352.09,375.228c.774-3.655,1.747-7.387,3.64-10.424a7.1,7.1,0,0,1,3.786-3.146,7.307,7.307,0,0,1,4.894.665,32.362,32.362,0,0,1,8.643,6.767,90.656,90.656,0,0,1,7.282,8.544,54.861,54.861,0,0,1,5.644,9.629,29.427,29.427,0,0,1,1.835,5.191,8.121,8.121,0,0,1,.09,4.226l-6.425-1.9-.051-.015-.015,0a49.96,49.96,0,0,0-8.093-.635,76.128,76.128,0,0,0-8.029.387c-2.658.329-5.306.714-7.915,1.281-2.62.52-5.191,1.228-7.74,2l-.024,0A154.489,154.489,0,0,1,352.09,375.228Z" transform="translate(-349.611 -361.471)"/></g></g></g></g><g transform="translate(2.277)"><circle class="s" cx="73.125" cy="73.125" r="73.125"/><g class="t"><circle class="z" cx="73.125" cy="73.125" r="73.125"/><circle class="a" cx="73.125" cy="73.125" r="72.625"/></g><g class="u" transform="translate(9.775 24.92)"><path class="v" d="M319.139,409.368s-1.176-22.9,15.947-40.048c-11.551,20.4-9.1,39.319-5.736,48.787C321.845,414.621,319.139,409.368,319.139,409.368Z" transform="translate(-319.122 -361.862)"/><path class="v" d="M370.735,376.5s5.11-2.023,4.068-6.093c2.832,3.052,9.855,16.9,10.007,22.051.21,6.994-4.551,12.058-5.512,13.3S385.024,394.107,370.735,376.5Z" transform="translate(-260.347 -360.627)"/><path class="v" d="M376.786,373.62a34.2,34.2,0,0,0-7.073-7.3c-3.223-2.457,1.27,5.146-1.769,6.446s4.271,6.431,5.075,7.111C373.574,380.345,378.876,377.374,376.786,373.62Z" transform="translate(-264.363 -365.833)"/><path class="v" d="M360.759,430.545s-22.682-3.317-36.16-23.46c17.754,15.313,36.784,16.6,46.725,15.153C366.439,428.92,360.759,430.545,360.759,430.545Z" transform="translate(-312.885 -318.857)"/></g><circle class="w" cx="73.125" cy="73.125" r="73.125" transform="translate(0.53)"/></g><path class="x" d="M429.8,402.429a41.829,41.829,0,0,1,2.917,8.8,12.257,12.257,0,0,1-.768,7.93c-20.2,3.94-21.505-2.2-41.943-1.854s-20.2,11.474-20.2,11.474-1.9,12.4,14.971,15.183,49.606-5.8,49.606-5.8,9.922-2.2,9.684-16.922C443.916,411.5,435.489,405.428,429.8,402.429Z" transform="translate(-249.42 -299.239)"/><g transform="translate(120.328 103.19)"><g class="y"><path class="d" d="M406.086,403.5s7.368,10.873,7.546,17.764c0,0,.3.772-2.256.595s-11.943-2.376-18.834-2.436S406.086,403.5,406.086,403.5Z" transform="translate(-345.409 -401.213)"/></g></g></g></g></svg>