<svg xmlns="http://www.w3.org/2000/svg" width="48.164" height="54.357" viewBox="0 0 48.164 54.357"><defs><style>.a{fill:#ffbe1d;stroke:#000;stroke-miterlimit:10;stroke-width:2px;}.b{fill:#fff;opacity:0.4;}</style></defs><g transform="translate(-572.82 -322.697)"><path class="a" d="M621.047,346.631l-31.617-18.82a7.271,7.271,0,0,0-10.989,6.248v23.726a3,3,0,0,0,3.233,3.232,9.174,9.174,0,0,0,4.146-1.583l-.378-.622-1.2-1.979a15.37,15.37,0,0,1,1.56-3l-2.737-2.115,2.591-1.507a4.52,4.52,0,0,1,3.715-.01s8.222-6.077,17.009-3.915a1,1,0,0,1,.739,1.178c-1.88,8.852-10.927,13.615-10.927,13.615a4.52,4.52,0,0,1-1.626,3.34l-2.484,1.678-.711-3.385a15.433,15.433,0,0,1-3.383.1l-.763-1.177-.445-.685c-3.655,2.082-8.341,5.732-8.341,10.755a7.27,7.27,0,0,0,10.989,6.248l31.617-18.82A7.272,7.272,0,0,0,621.047,346.631Z" transform="translate(-4.614 -3.004)"/><path class="b" d="M621.044,359.128l-31.61,18.822a7.275,7.275,0,0,1-10.992-6.253,8.948,8.948,0,0,1,1.817-5.25l-.532,4.135,4.206,4.357,34.662-15.409,3.765-5.942-1.035-4.919L586.15,329.715,581.121,332l-2.671,26.18a3.147,3.147,0,0,1-.01-.4V334.062a7.276,7.276,0,0,1,10.992-6.254l31.61,18.823A7.27,7.27,0,0,1,621.044,359.128Z" transform="translate(-4.614 -3.005)"/></g></svg>