<svg xmlns="http://www.w3.org/2000/svg" width="123" height="71.474" viewBox="0 0 123 71.474">
  <g id="Group_129" data-name="Group 129" transform="translate(-512.605 -283.901)">
    <g id="Group_129-2" data-name="Group 129" transform="translate(512.605 283.9)">
      <path id="Path_2034" data-name="Path 2034" d="M530.936,307.6c.032.059.054.1.063.115l-.04-.119-.748-1.993,1.7-.1-.114-1.319-.178-2.071-2.262-4.808-2.171,4.725-.242,2.39-.137,1.374,2.983-.169C530.233,306.379,530.749,307.273,530.936,307.6Z" transform="translate(-516.375 -287.459)" fill="#280e01"/>
      <path id="Path_2035" data-name="Path 2035" d="M634.81,304.117a2.736,2.736,0,0,0-1.941-.808h-.074l-.2.005a2.66,2.66,0,0,0,.037-.412l.082-6.149a2.728,2.728,0,0,0-.09-.733,2.737,2.737,0,0,0,2.055-2.582l.169-6.651a2.736,2.736,0,0,0-2.736-2.806h-.058l-3.01.064-3.229.068a2.738,2.738,0,0,0-.734.116l-1,.3a2.731,2.731,0,0,0-1.347-.355h-.057l-4.844.1a2.737,2.737,0,0,0-1.488.477l-1.587,1.086c-.037.025-.068.054-.1.08a2.731,2.731,0,0,0-2.616-1.94l-.109,0-8.448.337a2.729,2.729,0,0,0-1.806.784,2.694,2.694,0,0,0-.358-.43,2.739,2.739,0,0,0-1.909-.776h-.092l-2.988.1-2.891.1-2.865.1c-.065,0-.131.007-.2.014l-6.733.712a1.174,1.174,0,0,1-2.319-.243,2.739,2.739,0,0,0-1.909-.776h-.091l-7.134.237a2.737,2.737,0,0,0-1.213.329l-.1-.035a2.728,2.728,0,0,0-.931-.164,2.853,2.853,0,0,0-.286.015l-2.39.251-3.624.383a2.507,2.507,0,0,1-4.519-.727H559.1l-6.195.073-1.083.014a2.712,2.712,0,0,1-5.068.455H546.7l-1.92.037a2.683,2.683,0,0,0-.362.031,2.737,2.737,0,0,0-.348-.023h-.048l-4.681.082a2.736,2.736,0,0,0-2.688,2.724l-.018,3.941,0,.287v.026l-.01,2.1-1.692-2.765-3.353-5.478-.223-.366a2.738,2.738,0,0,0-2.334-1.307h-.091l-.547.018a2.683,2.683,0,0,0-.557.076l-1.961.405a2.73,2.73,0,0,0-1.3-.328l-.113,0-2.9.118a2.738,2.738,0,0,0-2.353,1.545l-1.565,3.239-.422.873a2.7,2.7,0,0,0-.162.419,2.875,2.875,0,0,0-.217.372l-1.09,2.254-1.775,3.679a2.741,2.741,0,0,0-.265.995l-.159,2.235-.082,1.063-.283,3.978L513,307.4a2.711,2.711,0,0,0,.048.75,2.753,2.753,0,0,0-.158.739l-.274,3.777a2.737,2.737,0,0,0,.535,1.833,2.723,2.723,0,0,0-.542,1.631l.03,6.305a2.739,2.739,0,0,0,.757,1.877l-.293.449a2.741,2.741,0,0,0-.446,1.51l.092,18.835a2.724,2.724,0,0,0,.481,1.537l-.426,2.744a2.75,2.75,0,0,0-.032.433l0,.956.006,1.523a2.74,2.74,0,0,0,2.724,2.729l11.489.059h.014a2.737,2.737,0,0,0,2.735-2.831l-.317-9.239,10.293-.649a2.737,2.737,0,0,0,2.175-1.324l.333-.555,1.555-2.591c-.046,4.8-.084,8.616-.089,9.121l-.231,4.493a2.739,2.739,0,0,0,2.669,2.877l14.392.342h.065a2.736,2.736,0,0,0,1.654-.557l.31-.235a2.737,2.737,0,0,0,1.953.887l3.672.087h.066a2.584,2.584,0,0,1,2.456-.176l6.782.118,3.247.058h.048a2.741,2.741,0,0,0,2.736-2.61l.179-3.841,1.247-.105,1.963-.165.124,1.521.239,2.974A2.74,2.74,0,0,0,590,355.2c.041,0,.082,0,.122,0l3.622-.162,6.873-.3a2.741,2.741,0,0,0,2.6-3l-1.287-13.1-.279-2.841.961.659,1.683,1.155a2.732,2.732,0,0,1,1.314.9l2.641,1.811-.052,12.315a2.736,2.736,0,0,0,2.737,2.748h.03l3.676-.04a2.753,2.753,0,0,0,.972-.19l.347-.137a2.729,2.729,0,0,0,1.243.3h.03l4.228-.046a2.738,2.738,0,0,0,2.709-2.727l.051-11.619c.067-.037.132-.076.2-.12l7.576-5.068a2.737,2.737,0,0,0,1.169-1.772c.012-.066.022-.134.03-.2l1.258-11.241.667-5.964a2.731,2.731,0,0,0-.483-1.88,2.727,2.727,0,0,0,.722-1.748l.232-6.226.019-.558A2.736,2.736,0,0,0,634.81,304.117Zm-18.659,6.353.347-2.558,1-7.4-1.319,5.6.051-7.285.018-2.49,0-1.218.05-7.011,1.587-1.086,4.844-.1L618.1,289.2l7.772-2.349,3.23-.068,3.01-.064-.168,6.651-7.946.041-.023.93-.041,1.615-.018.8,1.889-.014c.621.671,1.364,1.519,1.364,1.519l-.187-1.529,3-.018-.082,6.148-6.358-.087.041,3.517,9.287-.25-.018.547-.233,6.226-4.415-.036,2.532-1.624-4.922,1.61-9.675-.078Zm-4.11-23.751.059,8.812,0,1,.018,2.832L607.9,303.2l4.229-3.152.018,2.6.032,5.615.027,4.229-3.7.242v-1.569l-1.364,1.656-3.252.214-.045-4.1-.018-1.642-.119-10.345-.009-.57-.027-2.578,1.409,2.157-1.441-4.963-.041-3.932ZM583.19,297.94l.456-6.322,4.036.858-3.978-1.684.228-3.152,6.733-.712,2.864-.1,2.892-.1,2.988-.1-.046,6.983-5.182.027-2.344.014-.292,1.8,2.938,1.336.885.406.283.128,4.425,2.016-.233,4.434-.06.036-2.769,1.6,2.7.679-.169,3.175-.141,2.664-3.453.328-6.352.6-6.075.243-.194-2.133.064-.26.037-.151.954-3.978-1.236,2.381-.347-3.891,9.114.5.128-2.386-8.315-4.826h0l-.548-.32Zm-19.359-8.808.109-1.492,3.622-.383,2.39-.25c1.058.383,2.176.807,2.979,1.113h0c.62.233,1.049.4,1.108.419l-.516-.488-1.245-1.177,7.134-.237,0,.762-.037,6.222-7.531.041-.292,1.8,6.039,2.75,1.391.635,1.1.5-.516,9.706-.1,1.834-.055,1.049-1.738.169-1.14-.981h0l-.743-.638s-.187.3-.461.739c-.209.338-.469.753-.734,1.172l-.707.068-10.323.976-.114-1.263-.639-7.1,3.663.2,2.058,2.248-.429-2.162,3.435.192.392.023.041-.762v-.018l.082-1.606-.574-.334-4.8-2.787-2.121-1.231-1.368-.794Zm-24.522,14.127.137-.452.67-2.249.156-.529,1.218-4.078-2.09,4.119-.045.1-.027.051v-.142l.041-8.22,0-.3.018-3.955,4.68-.082,1.5,1.027-.739-1.036,1.921-.037.068,3.554.073,3.809.091,4.867.046,2.345.055,2.869,5.063-.671-.045-2.705-.027-1.455.5,1.41.7,1.961-.383-1.993-.388-2.025-.451-2.354-.032-.155-.1-6.468-.059-3.444,1.081-.013,6.194-.073.137,2.71.119,2.413-.972,3.9,1.122-.921.2,4.05.068,1.382.014.3.438,8.707-.246.219-2.979,2.628-4.991.169-2.285-1.327-1.555,1.455-7.395.246-1.529-1.407-.017-.176,0-1.045Zm-23.692,5.824,4.667-3.662-4.557,2.176.178-2.431.282-3.964.082-1.077.16-2.234,1.774-3.677,1.09-2.253c.1.671.21,1.4.315,2.1.228,1.519.424,2.846.424,2.846l-.182-2.874-.178-2.86.424-.876,1.565-3.239,2.9-.118-2.163,1.1,6.058-1.255h0l.01,0,.547-.018.223.365,3.353,5.478,2.491,4.069.132,1.368.219,2.221.287,2.915.8,8.129.009.095v.023a2.708,2.708,0,0,0,.058.568l.08.829-3.458.092a2.738,2.738,0,0,0-.726.13l-3.218.143-.123-.031-.417-5.15-5.98.5-.209,4.479-7.193-.128Zm24.262,29.993-.333.556-12.945.816h0l-6.076-2.611,2.413,1.748,3.726,2.7.345,10.064-11.489-.059h0l-.006-1.526,0-.956.737-4.746.713-4.606c-.013.038-.2.627-.478,1.5s-.633,1.992-.994,3.137h0v0l-.092-18.835.336-.513,1.23-1.887-1.584-1.435-.03-6.29v0l6.446-.169,6.5-.173a2.683,2.683,0,0,0,.54.117c.663.165,1.326.327,1.906.468,1.039.25,1.808.433,1.809.433l.67-1.048,3.575-.159a2.723,2.723,0,0,0,.38-.046l.1,0,3.891,3.891.951.951h0l.582,14Zm23.355,10.906-2.646,2.007-14.391-.342h0l.234-4.549s.1-10.087.181-18.778l0,0h0l.772,1.344,1.139,1.978-1.87-7.988c.008-.8.016-1.554.022-2.262.027-2.943.046-5.032.046-5.379l11.9-.525h0l-.015.477-.74,23.577c-1.086.547-2.586,1.357-3.906,2.083-1.562.859-2.869,1.6-2.941,1.639l6.324-1.646.462-.12,10.733-.292-.146,5.482-.372,5.107a2.715,2.715,0,0,0,0,.371l-3.448-.081ZM600.491,352l-6.873.306-3.622.162h0l-.24-2.976-.214-2.634h0c1.585-1.071,4.167-2.935,5.138-3.638l.389-.283-.942.383-4.716,1.917-4.7.394-3.64.306-.291,6.239h0l-3.247-.058L570.984,352l.137-5.176.573-7.87.569-7.836,1.339-2.775,2.672-5.537v0l0-.005c-.165.862-.345,1.786-.519,2.676-.22,1.119-.43,2.181-.594,3-.173.87-.29,1.453-.306,1.534l2.722-9.909h0l1.974-4.091,2.818-.112a2.73,2.73,0,0,0,1.187.281c.086,0,.172,0,.258-.012l4.963-.47.047,0,.962-.091h.03l.07.115,3.322,5.425-.005,0,0,.005-2.923-2.042-.12-.084,4.662,4.772,2.408,3.936,1.039,1.7h0l.93,9.467,1.287,13.1h0Zm31.9-35.75-.667,5.963-1.258,11.242h0l-7.577,5.068-6.745-2.3,5.341,3.238-.058,13.064h0v0l-4.229.046h0l1.394-1.1,1.122-.884-5.107,2.009-3.675.041.058-13.763-3.835-2.631v-4.591l-1.121,3.147-.193.541h0l-1.684-1.155L603,333.392l-1.147-10.539-.719-6.608,2.493-.137,9.171-.506h0l.044.751L613.5,327.5l1.4.952,1.858,1.261,3.266-2.158.189-3.423.133-2.428v0c.125.342.251.688.373,1.028.551,1.518,1.035,2.891,1.07,2.99l-1.334-6.067.21-3.823,9.945.348,1.778.062Z" transform="translate(-512.605 -283.9)" fill="#280e01"/>
      <path id="Path_2036" data-name="Path 2036" d="M533.529,332.442l2.708,5.589-4.454-.094-.525.641.058,6.707,6.182-.408-.176-6.824Z" transform="translate(-517.557 -296.785)" fill="#280e01"/>
      <path id="Path_2037" data-name="Path 2037" d="M523.377,357.325l.008.006,0,0Z" transform="translate(-515.465 -303.39)" fill="#280e01"/>
      <path id="Path_2038" data-name="Path 2038" d="M608.173,340.32l-3.032,6.59-.388,3.878-4.984,2.416,4.847-1.045,7.116-.408-.408-4.724Z" transform="translate(-535.742 -298.876)" fill="#280e01"/>
    </g>
    <g id="Group_133" data-name="Group 133" transform="translate(515.341 286.637)">
      <g id="Group_130" data-name="Group 130">
        <path id="Path_2039" data-name="Path 2039" d="M537.508,312.429l-.8-8.129-.287-2.915-.219-2.221-.133-1.368-2.49-4.069-3.353-5.478-.223-.364-.548.018-.009.005h-.005l-6.057,1.254,2.162-1.1-2.9.118-1.565,3.239-.425.876.179,2.86.182,2.874s-.2-1.327-.425-2.846c-.1-.693-.214-1.428-.314-2.1l-1.09,2.253-1.775,3.676-.159,2.235-.082,1.077-.283,3.964-.178,2.431,4.556-2.176L516.6,310.2l-.274,3.777,7.194.128.21-4.479,5.98-.5.419,5.186,7.526-.333Zm-8.379-9.365-1.7.1.748,1.994.041.118c-.009-.013-.032-.054-.064-.114-.187-.324-.7-1.218-1.145-1.97l-2.983.168.137-1.373.242-2.39,2.171-4.725,2.263,4.808.178,2.071Z" transform="translate(-516.329 -287.694)" fill="#ffbe1d"/>
        <path id="Path_2040" data-name="Path 2040" d="M569.9,310.566l-.246.219-2.979,2.627-4.99.169-2.285-1.327-1.555,1.455-7.394.246-1.546-1.423,0-1.2.037-6.974.137-.452.67-2.249.155-.529,1.218-4.078-2.089,4.119-.046.1-.027.05v-.141l.041-8.22,0-.3.018-3.955,4.68-.082,1.5,1.026-.739-1.035,1.92-.036.068,3.553.073,3.809.091,4.867.046,2.345.055,2.869,5.063-.671-.046-2.7-.027-1.455.5,1.409.7,1.961-.383-1.993-.388-2.025-.451-2.354-.032-.155-.1-6.468-.059-3.444,1.081-.014,6.194-.073.137,2.71.118,2.413-.971,3.9,1.122-.921.205,4.051.068,1.382.014.3Z" transform="translate(-524.975 -287.731)" fill="#ffbe1d"/>
        <path id="Path_2041" data-name="Path 2041" d="M598.232,300.339l-.516,9.706-.1,1.834-.055,1.049-1.738.169-1.14-.981h0l-.743-.638s-.187.3-.461.739c-.209.338-.469.753-.734,1.172l-.707.068-10.323.976-.114-1.263-.639-7.1,3.663.2,2.058,2.249-.429-2.162,3.435.192.392.023.041-.762v-.018l.082-1.606-.574-.334-4.8-2.787-2.121-1.231-1.369-.794.643-8.922.11-1.492,3.622-.383,2.39-.25c1.058.383,2.176.807,2.979,1.113h0c.621.233,1.049.4,1.108.419l-.516-.488-1.245-1.177,7.134-.237,0,.762-.037,6.222-7.531.041-.292,1.8,6.039,2.75,1.391.635Z" transform="translate(-533.484 -287.626)" fill="#ffbe1d"/>
        <path id="Path_2042" data-name="Path 2042" d="M625.445,300.339l-.233,4.434-.059.036-2.769,1.6,2.7.68-.169,3.175-.141,2.664-3.453.328-7.39.7h0l-5,.474-.224-2.463.064-.26.036-.151.953-3.978-1.236,2.381-.346-3.891,9.114.5.128-2.386-8.316-4.826h0l-.547-.319.009-.114.456-6.322,4.037.858-3.978-1.683.228-3.152,6.733-.712,2.865-.1,2.892-.1,2.988-.1-.046,6.984-5.182.027-2.345.014-.292,1.8,2.938,1.337.885.406.283.128Z" transform="translate(-540.709 -287.626)" fill="#ffbe1d"/>
        <path id="Path_2043" data-name="Path 2043" d="M641.382,313.747v-1.569l-1.364,1.656-3.252.214-.046-4.1-.018-1.642-.119-10.345-.009-.57-.027-2.577,1.409,2.158-1.441-4.963-.041-3.932,8.448-.338.059,8.813,0,1,.018,2.833-4.224,3.832,4.228-3.152.018,2.6.032,5.615.027,4.228Z" transform="translate(-548.221 -287.656)" fill="#ffbe1d"/>
        <path id="Path_2044" data-name="Path 2044" d="M670.282,307.065l-.018.547-.233,6.226-4.415-.036,2.532-1.624-4.922,1.61-9.675-.078.014-2.221.347-2.558,1-7.4-1.318,5.6.05-7.285.018-2.49,0-1.218.05-7.011,1.587-1.086,4.844-.1-4.634,2.285,7.772-2.349,3.23-.068,3.01-.064-.168,6.651-7.946.041-.023.93-.041,1.615-.018.8,1.889-.014c.621.671,1.364,1.519,1.364,1.519l-.187-1.529,3-.018-.082,6.148-6.358-.087.041,3.517Z" transform="translate(-552.754 -287.656)" fill="#ffbe1d"/>
      </g>
      <path id="Path_2045" data-name="Path 2045" d="M569.939,352.912h0l-6.791,1.767s4.442-2.511,6.852-3.723l.755-24.055-11.9.525c0,.431-.028,3.542-.066,7.64l1.871,7.994-1.915-3.328c-.082,8.691-.181,18.778-.181,18.778l-.234,4.549,14.394.342,2.645-2.007,1.337,2.1,3.669.087.292-10.964Z" transform="translate(-527.479 -298.051)" fill="#fff"/>
      <path id="Path_2046" data-name="Path 2046" d="M619.285,340.882l-3.446-5.634-4.663-4.772,3.045,2.127-3.391-5.543-10.265.408-1.974,4.091-2.727,9.932s.813-4.042,1.424-7.231l-4.012,8.314-1.517,20.878,10.032.175.291-6.24,8.34-.7,5.658-2.3s-3.546,2.582-5.527,3.922l.453,5.611,10.5-.467Zm-16.8,7.757-4.846,1.045,4.983-2.416.388-3.878,3.032-6.59,3.15,6.706.408,4.724Z" transform="translate(-536.351 -298.094)" fill="#fff"/>
      <path id="Path_2047" data-name="Path 2047" d="M652.663,327.294l-.209,3.819,1.336,6.08s-.743-2.107-1.449-4.029l-.32,5.852-3.266,2.158-3.266-2.216-.7-11.9-11.664.641,1.866,17.147,2.841,1.949,1.316-3.694v4.6l3.833,2.63-.058,13.764,3.675-.041,5.109-2.01-2.518,1.982,4.231-.047.058-13.064-5.35-3.244,6.756,2.3,7.576-5.067,1.925-17.205Z" transform="translate(-547.332 -298.094)" fill="#fff"/>
      <path id="Path_2048" data-name="Path 2048" d="M543.1,331.822l-4.841-4.841-3.988.106-.736,1.152s-2.2-.522-4.191-1.02l-13.014.346.03,6.29,1.585,1.437-1.567,2.4.092,18.835c.738-2.346,1.475-4.645,1.475-4.645l-1.452,9.359.012,2.484,11.489.059-.345-10.064-6.144-4.447,6.081,2.614,12.947-.817,3.149-5.248Zm-15.747,12.014-.058-6.707.524-.642,4.454.094-2.708-5.589,3.795,5.611.176,6.823Z" transform="translate(-516.33 -298.073)" fill="#fff"/>
      <path id="Path_2049" data-name="Path 2049" d="M545.553,347.466l-3.147,5.25-12.945.817-6.081-2.614,6.715,1.519,11.285-2.016,2.97-2.819.143-14.41.48.277Z" transform="translate(-518.201 -299.722)" fill="#f0ddb6"/>
      <g id="Group_131" data-name="Group 131" transform="translate(0.002 28.851)" opacity="0.2">
        <path id="Path_2050" data-name="Path 2050" d="M543.1,331.823l-7.289-4.205-2.276,1.948-3.53-.064-11.632-1.009-.8,4.028,1.778,2.686-2.08,3.088.2,5.542.27,5.542,1.346.6-.716,9.405,1.537,3.02,5.962-.469L527,354.553l-5.487-5.282,6.139,4.448L528,363.781l-11.49-.059-.01-2.481,1.451-9.36s-.735,2.3-1.474,4.644l-.091-18.835,1.565-2.4-1.583-1.437-.032-6.291,13.013-.342c1.994.5,4.192,1.017,4.192,1.017l.735-1.149,3.986-.105Z" transform="translate(-516.332 -326.924)" fill="#ffbe1d"/>
        <path id="Path_2051" data-name="Path 2051" d="M569.94,352.913l-6.792,1.77s4.443-2.514,6.851-3.726l.757-24.053-11.9.525c0,.429-.027,3.54-.068,7.641l1.87,7.991-1.911-3.325c-.082,8.69-.182,18.775-.182,18.775l-.233,4.552,14.391.342,2.646-2.007,1.336,2.1,3.672.087.292-10.966Zm8.188,8.771-3.563-1.414-2.162,2.623-12.443-1.647-.639-17.831,2.249-.068-2.249-8.394.908-6.08,8.863.739L569.5,349.8l-6.892,5.068,7.558-1.241,9,1.072Z" transform="translate(-527.482 -326.903)" fill="#ffbe1d"/>
        <path id="Path_2052" data-name="Path 2052" d="M619.285,340.879l-3.449-5.633-4.662-4.771,3.047,2.125-3.394-5.542-10.263.411-1.975,4.091-2.724,9.912c.06-.3.835-4.146,1.419-7.211l-4.01,8.311-1.519,20.878,10.031.178.292-6.24,8.343-.7,5.656-2.3s-3.544,2.582-5.528,3.923l.456,5.611,10.5-.47ZM612.05,358.6l4.767-4.634-6.413,1.579-9.5-.739.2,7.659-7.755-1.647.739-17.575.908-1.364,1.309,1.679,3.257-11.048,2.819-3.056,8.265-1.41-1.036,1.208,2.008,3.49,3.594,3.293,2.751,5.907,3.129,20.654-9.1-1.072Z" transform="translate(-536.353 -326.944)" fill="#ffbe1d"/>
        <path id="Path_2053" data-name="Path 2053" d="M652.663,327.291l-.21,3.823,1.337,6.081s-.744-2.107-1.446-4.033l-.324,5.852-3.266,2.158-3.261-2.213-.7-11.9-11.664.643,1.866,17.147,2.842,1.947,1.313-3.695v4.6l3.837,2.632-.06,13.762,3.676-.041,5.109-2.011-2.518,1.984,4.229-.046.059-13.064-5.35-3.243,6.756,2.3,7.577-5.068,1.925-17.206Zm9.255,17.073-7.02,3.727-8.832-1.615,6.482,4.8-.507,9.807-.939-.739-7.44,3.12.757-14.4-4.935-1.811-.132-5.674-3.494,2.313-.84-14.1,8.968-1.98.433,11.248,4.771,5.309,4.06-6.048,1.313.338-1.277-10.61,9.538,1.71Z" transform="translate(-547.335 -326.944)" fill="#ffbe1d"/>
      </g>
      <g id="Group_132" data-name="Group 132" transform="translate(0 0.002)" opacity="0.4">
        <path id="Path_2054" data-name="Path 2054" d="M537.508,312.428l-.8-8.129-.288-2.915-.219-2.222-.132-1.368-2.49-4.069-3.353-5.478-.223-.364-.547.018-.01,0h0l-6.057,1.255,2.162-1.1-2.9.119-1.565,3.239-.425.876.178,2.86.183,2.874s-.2-1.327-.425-2.846c-.105-.693-.214-1.428-.314-2.1l-1.09,2.253-1.775,3.676-.159,2.235-.082,1.077-.283,3.964-.178,2.431,4.556-2.176L516.6,310.2l-.274,3.777,7.194.128.21-4.479,5.98-.5.419,5.186,7.526-.333Zm-6.605-.311-1.186-3.795-6.541.775-.671,3.827-5.1.369-.232-2.486,4.63-4.766-4.229,1.478.807-8.06,1.711-2.924,1.076,2.619.2-6.847,1.642-2.285.776.5,5.346-1.542,6.24,8.731.2,14.811Z" transform="translate(-516.329 -287.696)" fill="#fff"/>
        <path id="Path_2055" data-name="Path 2055" d="M569.458,301.86l-.013-.3-.068-1.382-.206-4.05-1.122.921.972-3.9-.118-2.413-.137-2.71-6.195.073-1.08.013.059,3.444.105,6.468.032.156.451,2.354.388,2.025.383,1.994-.7-1.962-.5-1.41.027,1.455.046,2.705-5.063.671-.054-2.869-.046-2.345-.092-4.867-.073-3.809-.068-3.554-1.92.037.739,1.036-1.5-1.027-4.68.082L549,292.651l0,.3-.041,8.22v.141l.028-.05.046-.1,2.089-4.119-1.218,4.078-.155.529-.671,2.249-.137.451-.036,6.975-.005,1.2,1.547,1.423,7.394-.246,1.555-1.455,2.285,1.327,4.991-.169,2.979-2.627.246-.219Zm-3.845,10.765-6.746-1.587-1.364,2.194-6.773-.657-.981-.68-.228-7.175,2.016-8.488-1.938,1.081-.328-8.01,4.205.128,1.688.757,1.131,16.371,5.82-.557.278-1.282,1.131.931-1.259-8.411.78-8.06,4.913.753.151,3.4-.351,4.534.88-.935.908,13.4Z" transform="translate(-524.975 -287.733)" fill="#fff"/>
        <path id="Path_2056" data-name="Path 2056" d="M597.125,299.839l-1.391-.635-6.039-2.75.292-1.8,7.531-.041.036-6.222,0-.762-7.134.237,1.246,1.177.515.488c-.059-.018-.488-.187-1.108-.419h0c-.8-.306-1.92-.729-2.979-1.113l-2.39.251-3.621.383-.11,1.492-.643,8.922,1.369.794,2.121,1.231,4.8,2.787.575.334-.082,1.606v.018l-.041.762-.392-.022-3.435-.192.429,2.162-2.057-2.248-3.662-.2.638,7.1.114,1.263,10.323-.976.707-.068c.264-.419.524-.834.734-1.172.274-.438.461-.739.461-.739l.743.638h0l1.141.981,1.737-.168.055-1.05.1-1.833.515-9.706Zm-.383,11.75-.958.5-1.866-1.332-1.437,2.039-9.114.2-1.31-4.785,1.711-.73,3.2,1.761.178-1.811,3.225-.3,1-3.831-8.461-4.379V289.4l4.862-.735,4.935,1.765.557-1.158,2.618-.607,1.058,5.291-7.545-.679-.506,3.2,7.85,4.256Z" transform="translate(-533.484 -287.628)" fill="#fff"/>
        <path id="Path_2057" data-name="Path 2057" d="M621.017,298.325l-.283-.128-.884-.406-2.938-1.336.292-1.8,2.345-.014,5.182-.027.046-6.983-2.987.1-2.892.1-2.865.1-6.733.712-.228,3.152,3.978,1.684-4.037-.858-.456,6.322-.009.114.547.32h0l8.315,4.826-.127,2.385-9.114-.5.347,3.891,1.236-2.381-.953,3.978-.036.151-.064.26.223,2.463,5-.475h0l7.39-.7,3.453-.328.142-2.664.168-3.175-2.7-.679,2.769-1.6.06-.037.233-4.433Zm3.02,5.862L621.5,306.1l2.669,1.988-1.108,4.411-11.134.63-2.39-1.136,1.309-4.429-1.008-.785,7.681.785.529-3.654-6.938-4.885-1.4-5.619,4.032.278-4.032-2.819.885-1.309L616,288.367l7.025.151.757,5.364-6.979-.652-.475,3.275,8.284,4.525Z" transform="translate(-540.708 -287.628)" fill="#fff"/>
        <path id="Path_2058" data-name="Path 2058" d="M645.083,313.507l-.028-4.228-.032-5.616-.018-2.6-4.228,3.152L645,300.384l-.018-2.832,0-1-.06-8.812-8.447.337.04,3.932,1.442,4.963-1.41-2.157.027,2.577.01.571.118,10.345.018,1.642.046,4.1,3.253-.215,1.363-1.656v1.569Zm-6.984-.479-.88-16.093.981.278-.981-5.415v-2.946h6.094l.854,10.323-3.6,5.214,3.247-1.232.831,10L642,313.029l-.1-1.966Z" transform="translate(-548.22 -287.658)" fill="#fff"/>
        <path id="Path_2059" data-name="Path 2059" d="M660.992,307.317l-.041-3.517,6.359.087.082-6.148-3,.018.187,1.529s-.743-.848-1.364-1.519l-1.888.013.018-.8.041-1.615.023-.931,7.946-.04.169-6.651-3.011.064-3.229.068-7.773,2.349,4.634-2.285-4.844.1-1.587,1.086-.05,7.011,0,1.218-.018,2.49-.05,7.285,1.318-5.6-1,7.4-.347,2.559-.013,2.221,9.675.078,4.922-1.61-2.531,1.624,4.415.036.232-6.226.018-.547Zm7.882,5.561-.63-1.209-5.164,1.738-8.211-.958,1.236-12.995-2.093,1.838.456-11.609.529-.657,1.61-.328-1.332,1.737,7.2-1.737,5.187.155.931,4.985-7.376-.908-.707,5.114,1.866.552,2.19,1.286,1.359-1.186.607,4.684-6.372-.7.151,4.758,8.99.885Z" transform="translate(-552.753 -287.658)" fill="#fff"/>
      </g>
    </g>
    <g id="Path_2060" data-name="Path 2060" transform="translate(-17.475 -11.382)" fill="#ffbe1d" stroke-miterlimit="10">
      <path d="M 581.7493286132813 351.1487731933594 C 581.7492065429688 351.1487731933594 581.7492065429688 351.1487731933594 581.7490234375 351.1487731933594 C 579.5657958984375 351.1486511230469 577.78955078125 349.3725891113281 577.78955078125 347.189697265625 C 577.78955078125 345.4345703125 578.836669921875 344.0311889648438 580.099609375 342.9768981933594 C 580.0343627929688 342.9828491210938 579.9707641601563 342.9857788085938 579.9086303710938 342.9857788085938 C 579.0789184570313 342.9857788085938 578.5921630859375 342.6516723632813 578.3298950195313 342.3713684082031 C 577.78564453125 341.7897033691406 577.7825927734375 341.0250854492188 577.78955078125 340.8517150878906 L 577.78955078125 330.0863647460938 C 577.78955078125 327.9034423828125 579.56591796875 326.1275329589844 581.7493286132813 326.1275329589844 C 582.4513549804688 326.1275329589844 583.1484985351563 326.3215942382813 583.7654418945313 326.688720703125 L 598.1319580078125 335.2404174804688 C 599.3411865234375 335.96044921875 600.0631103515625 337.2305908203125 600.0630493164063 338.6380310058594 C 600.0630493164063 340.0455017089844 599.3411865234375 341.3155822753906 598.1320190429688 342.0355224609375 L 583.7655029296875 350.5872497558594 C 583.1485595703125 350.95458984375 582.4512939453125 351.1487731933594 581.7493286132813 351.1487731933594 Z M 584.8230590820313 342.3571166992188 L 584.9520874023438 342.97119140625 L 585.0765380859375 343.5632934570313 L 585.3853759765625 343.3547058105469 C 585.4483642578125 343.3025817871094 585.8336181640625 342.9588928222656 585.8576049804688 342.3378601074219 L 585.8721313476563 341.9626770019531 L 586.204345703125 341.7877807617188 C 586.2413330078125 341.7681579589844 589.9276123046875 339.7784423828125 590.7933959960938 336.2290344238281 C 590.3316650390625 336.1300354003906 589.8490600585938 336.0798034667969 589.357177734375 336.0798034667969 C 586.36376953125 336.0798034667969 583.8182983398438 337.9247436523438 583.79296875 337.943359375 L 583.4910278320313 338.1652221679688 L 583.1470336914063 338.0156860351563 C 582.9592895507813 337.9336242675781 582.7634887695313 337.8920288085938 582.5651245117188 337.8920288085938 C 582.2794189453125 337.8920288085938 582.069580078125 337.9786987304688 582.0252685546875 337.99853515625 L 581.7037963867188 338.1854553222656 L 582.1828002929688 338.5555419921875 L 582.6795043945313 338.9392700195313 L 582.3133544921875 339.4490661621094 C 582.100830078125 339.7449951171875 581.9165649414063 340.1245422363281 581.8034057617188 340.3801574707031 L 582.1769409179688 340.9972229003906 L 582.3482055664063 341.2789611816406 L 582.4609985351563 341.4645385742188 L 582.7752075195313 341.948974609375 L 582.9772338867188 342.2604675292969 L 583.1443481445313 342.5182495117188 C 583.2193603515625 342.520751953125 583.3046875 342.5224914550781 583.3963012695313 342.5224914550781 C 583.7064208984375 342.5224914550781 583.9860229492188 342.5024108886719 584.204833984375 342.4644470214844 L 584.8230590820313 342.3571166992188 Z" stroke="none"/>
      <path d="M 581.7493286132813 326.7775268554688 C 580.025146484375 326.77734375 578.4395751953125 328.1545104980469 578.4395751953125 330.0863647460938 L 578.4395751953125 340.8674011230469 C 578.4395751953125 340.8674011230469 578.3418579101563 342.3357849121094 579.9086303710938 342.3357849121094 C 580.435302734375 342.3357849121094 581.1257934570313 342.0199279785156 581.7927856445313 341.6166381835938 L 581.620849609375 341.3338317871094 L 581.0765991210938 340.4347229003906 C 581.0765991210938 340.4347229003906 581.3770751953125 339.6384887695313 581.785400390625 339.0699157714844 L 580.5418090820313 338.109130859375 L 581.7193603515625 337.4245300292969 C 581.7193603515625 337.4245300292969 582.06201171875 337.2420349121094 582.5651245117188 337.2420043945313 C 582.81396484375 337.2420043945313 583.10205078125 337.2866516113281 583.4073486328125 337.4201049804688 C 583.4073486328125 337.4201049804688 586.1004028320313 335.4298706054688 589.357177734375 335.4297790527344 C 589.9364013671875 335.4297790527344 590.5333251953125 335.4927368164063 591.1362915039063 335.6410217285156 C 591.3728637695313 335.6998291015625 591.522705078125 335.9377746582031 591.4720458984375 336.176513671875 C 590.61767578125 340.1989440917969 586.5071411132813 342.3629455566406 586.5071411132813 342.3629455566406 C 586.46826171875 343.3692932128906 585.7681884765625 343.8805236816406 585.7681884765625 343.8805236816406 L 584.6392211914063 344.6430053710938 L 584.3159790039063 343.1048583984375 C 584.0114135742188 343.15771484375 583.6759033203125 343.1724853515625 583.3963012695313 343.1724853515625 C 583.0427856445313 343.1724853515625 582.778564453125 343.1488952636719 582.778564453125 343.1488952636719 L 582.431884765625 342.6141662597656 L 582.2298583984375 342.3026733398438 C 580.5690307617188 343.2488098144531 578.4395751953125 344.9074401855469 578.4395751953125 347.189697265625 C 578.4395751953125 349.1212158203125 580.0252685546875 350.498779296875 581.7490844726563 350.498779296875 C 582.3125610351563 350.498779296875 582.8905639648438 350.3517150878906 583.4330444335938 350.0287170410156 L 597.7994995117188 341.47705078125 C 599.950927734375 340.1960144042969 599.950927734375 337.0800170898438 597.7994995117188 335.7989501953125 L 583.4330444335938 327.2472839355469 C 582.8908081054688 326.9246215820313 582.3125 326.7776184082031 581.7493286132813 326.7775268554688 M 581.7489624023438 325.4775390625 L 581.7489624023438 326.7775268554688 L 581.7489624023438 325.4775390625 L 581.7491455078125 325.4775390625 L 581.7494506835938 325.4775390625 C 582.5685424804688 325.4776306152344 583.3805541992188 325.7033081054688 584.0978393554688 326.130126953125 L 598.4644165039063 334.681884765625 C 599.87255859375 335.5203247070313 600.7130737304688 336.9992370605469 600.7130737304688 338.6380615234375 C 600.7130737304688 340.2768249511719 599.8724975585938 341.7557067871094 598.464599609375 342.5940246582031 L 584.0979614257813 351.1457824707031 C 583.3805541992188 351.5729675292969 582.5682373046875 351.7987976074219 581.7490844726563 351.7987976074219 C 579.2073974609375 351.7987976074219 577.1395874023438 349.7311706542969 577.1395874023438 347.189697265625 C 577.1395874023438 345.844970703125 577.6748657226563 344.5694885253906 578.7115478515625 343.4091186523438 C 578.324951171875 343.2461853027344 578.0466918945313 343.0200805664063 577.855224609375 342.8154602050781 C 577.1578369140625 342.0701293945313 577.1294555664063 341.1322021484375 577.1395874023438 340.8390502929688 L 577.1395874023438 330.0863647460938 C 577.1395874023438 327.5450439453125 579.2073364257813 325.4775390625 581.7489624023438 325.4775390625 Z M 589.9513549804688 336.757080078125 C 589.755859375 336.7389221191406 589.5574951171875 336.7297973632813 589.357177734375 336.7297973632813 C 586.6055908203125 336.7298583984375 584.2034912109375 338.4482116699219 584.1799926757813 338.465576171875 L 583.5755004882813 338.912353515625 L 583.517333984375 338.8869323730469 L 582.84130859375 339.8282470703125 C 582.7337036132813 339.9780883789063 582.6293334960938 340.1642150878906 582.5399780273438 340.3417663574219 L 582.7329711914063 340.6606140136719 L 582.9036254882813 340.9413146972656 L 583.0113525390625 341.1185302734375 L 583.320556640625 341.5953063964844 L 583.4998168945313 341.8716735839844 C 583.7306518554688 341.8679504394531 583.934326171875 341.8516540527344 584.0936279296875 341.8240051269531 L 585.234619140625 341.6259460449219 L 585.2371215820313 341.5624084472656 L 585.9015502929688 341.2126159667969 C 585.9312744140625 341.1967163085938 588.8906860351563 339.5884399414063 589.9513549804688 336.757080078125 Z" stroke="none" fill="#280e01"/>
    </g>
    <path id="Path_2061" data-name="Path 2061" d="M597.8,341.477l-14.364,8.552a3.306,3.306,0,0,1-4.995-2.841,4.066,4.066,0,0,1,.826-2.386l-.242,1.879,1.911,1.98,15.75-7,1.711-2.7-.47-2.235-15.983-8.612-2.285,1.04-1.214,11.9a1.436,1.436,0,0,1,0-.182V330.087a3.306,3.306,0,0,1,4.995-2.842L597.8,335.8A3.3,3.3,0,0,1,597.8,341.477Z" transform="translate(-17.475 -11.381)" fill="#fff" opacity="0.4"/>
  </g>
</svg>
