<svg xmlns="http://www.w3.org/2000/svg" width="105.79" height="139.216" viewBox="0 0 105.79 139.216"><defs><style>.a{fill:#fff193;}.a,.b,.d,.e,.g,.h,.i,.j{stroke:rgba(0,0,0,0);}.a,.b,.d,.e,.f,.g,.h,.i,.j{stroke-width:2px;}.b{fill:#ffb658;}.c,.f,.m{fill:none;}.c,.f{stroke-miterlimit:10;}.d{fill:#f57733;}.e{fill:#d15d1f;}.f{stroke:#000;}.g{fill:#ff9932;}.h{fill:#fff;}.i{fill:#ece0d6;}.k,.l{stroke:none;}</style></defs><g transform="translate(1.025 1.398)"><g transform="translate(0 41.844)"><path class="a" d="M1078.034,457.111c1.965-2.816,6.884-3.759,11.823-2.045,5.581,1.939,9.056,6.526,7.764,10.246a4.872,4.872,0,0,1-.853,1.468C1096.328,466.973,1085.415,471.605,1078.034,457.111Z" transform="translate(-1077.143 -454.209)"/><path class="b" d="M1078.877,456.876a4.866,4.866,0,0,1,.622-1.184c7.381,14.494,18.294,9.862,18.734,9.669-2.094,2.587-6.827,3.414-11.59,1.759C1081.063,465.183,1077.585,460.6,1078.877,456.876Z" transform="translate(-1078.608 -452.789)"/><g class="c" transform="translate(-1078.034 -454.209)"><path class="k" d="M1086.07,468.539c-5.581-1.937-9.058-6.524-7.766-10.244a4.873,4.873,0,0,1,.622-1.184c1.965-2.816,6.884-3.759,11.823-2.045,5.581,1.939,9.056,6.526,7.764,10.246a4.872,4.872,0,0,1-.853,1.468C1095.566,469.367,1090.832,470.194,1086.07,468.539Z"/><path class="l" d="M 1090.965576171875 467.3955993652344 C 1093.234130859375 467.3955993652344 1095.155517578125 466.6950378417969 1096.105102539063 465.5216064453125 L 1096.107421875 465.5187377929688 L 1096.10986328125 465.515869140625 C 1096.361328125 465.2074890136719 1096.52978515625 464.9251708984375 1096.623779296875 464.6560363769531 C 1097.161254882813 463.108154296875 1096.221801757813 461.5314636230469 1095.614013671875 460.7293701171875 C 1094.4013671875 459.1289978027344 1092.388671875 457.7535095214844 1090.092895507813 456.9557495117188 C 1088.6845703125 456.4669494628906 1087.213623046875 456.2086181640625 1085.839233398438 456.2086181640625 C 1083.431518554688 456.2086181640625 1081.460205078125 456.9738159179688 1080.567749023438 458.2528381347656 C 1080.389404296875 458.5093688964844 1080.266967773438 458.7373046875 1080.19287109375 458.9511413574219 C 1079.655517578125 460.498779296875 1080.59521484375 462.0752868652344 1081.203247070313 462.8772583007813 C 1082.416381835938 464.4774475097656 1084.42919921875 465.8523864746094 1086.726318359375 466.6497802734375 C 1088.130126953125 467.1376953125 1089.595947265625 467.3955993652344 1090.965576171875 467.3955993652344 M 1090.965454101563 469.3955993652344 C 1089.412353515625 469.3955993652344 1087.7431640625 469.12060546875 1086.069702148438 468.5389099121094 C 1080.488891601563 466.6017150878906 1077.011840820313 462.0149841308594 1078.303588867188 458.2950744628906 C 1078.452026367188 457.8665466308594 1078.671264648438 457.4770812988281 1078.925659179688 457.1111755371094 C 1080.223022460938 455.2516174316406 1082.809814453125 454.2085876464844 1085.839233398438 454.2085876464844 C 1087.39697265625 454.2085876464844 1089.071411132813 454.4841918945313 1090.748657226563 455.0663146972656 C 1096.329467773438 457.0055236816406 1099.804809570313 461.5921936035156 1098.513061523438 465.3121032714844 C 1098.323120117188 465.8561096191406 1098.020385742188 466.3376159667969 1097.659790039063 466.7798156738281 C 1096.301879882813 468.4576110839844 1093.832397460938 469.3955993652344 1090.965454101563 469.3955993652344 Z"/></g></g><g transform="translate(34.074 101.425)"><ellipse class="d" cx="15.05" cy="9.106" rx="15.05" ry="9.106" transform="translate(13.337 35.053) rotate(-116.302)"/><path class="e" d="M1078.185,511.242c.139-6.1-3.352-12.036-5.25-14.388a4.423,4.423,0,0,0-3.219-1.632c-6.362-.313-9.3,4.463-10.264,6.5-2.27-6.516-1.266-12.762,2.677-14.708,4.508-2.229,11.15,2,14.83,9.457C1079.693,501.99,1080.032,507.735,1078.185,511.242Z" transform="translate(-1053.966 -482.974)"/><g class="f" transform="translate(13.337 35.053) rotate(-116.302)"><ellipse class="k" cx="15.05" cy="9.106" rx="15.05" ry="9.106"/><ellipse class="m" cx="15.05" cy="9.106" rx="14.05" ry="8.106"/></g><ellipse class="g" cx="4.167" cy="2.404" rx="4.167" ry="2.404" transform="matrix(-0.408, -0.913, 0.913, -0.408, 18.329, 28.236)"/><ellipse class="g" cx="3.005" cy="0.989" rx="3.005" ry="0.989" transform="matrix(-0.543, -0.839, 0.839, -0.543, 14.707, 28.566)"/><path class="f" d="M1060.229,497.37s1.842,5.765,5.79,4.925" transform="translate(-1044.503 -472.493)"/></g><path class="a" d="M1100.367,473.474c3.246-37.22-8.377-40.648-8.377-40.648,3.941,27.97-7.43,38.482-7.43,38.482l.01.039a38.652,38.652,0,1,0,15.8,2.127Z" transform="translate(-1048.041 -432.825)"/><path class="b" d="M1062.064,441.476a142.174,142.174,0,0,1,4.1,31.518l.458-.941,1.3-5.35-.487-12.316-2.755-15.774-2.613-3.89Z" transform="translate(-1015.92 -431.009)"/><path class="h" d="M1073.378,461.929a9.446,9.446,0,0,0-4.33,1.839c-3.939,2.984-11.782,11.142-6.608,26.256,4.862,14.2,17.953,11.713,24.884,9.215a15.592,15.592,0,0,0,10.156-11.686c.814-4.4-.117-10.117-5.706-16.782C1091.774,470.772,1084.214,460.364,1073.378,461.929Z" transform="translate(-1043.125 -405.131)"/><g transform="translate(48.932 101.424)"><ellipse class="d" cx="15.05" cy="9.106" rx="15.05" ry="9.106" transform="translate(13.337 35.053) rotate(-116.302)"/><path class="e" d="M1070.591,511.242c.139-6.1-3.35-12.036-5.25-14.388a4.418,4.418,0,0,0-3.217-1.632c-6.363-.313-9.3,4.463-10.266,6.5-2.27-6.516-1.266-12.762,2.677-14.708,4.511-2.229,11.15,2,14.831,9.457C1072.1,501.99,1072.44,507.735,1070.591,511.242Z" transform="translate(-1046.373 -482.974)"/><g class="f" transform="translate(13.337 35.053) rotate(-116.302)"><ellipse class="k" cx="15.05" cy="9.106" rx="15.05" ry="9.106"/><ellipse class="m" cx="15.05" cy="9.106" rx="14.05" ry="8.106"/></g><ellipse class="g" cx="4.167" cy="2.404" rx="4.167" ry="2.404" transform="matrix(-0.408, -0.913, 0.913, -0.408, 18.329, 28.236)"/><ellipse class="g" cx="3.005" cy="0.989" rx="3.005" ry="0.989" transform="matrix(-0.543, -0.839, 0.839, -0.543, 14.707, 28.566)"/><path class="f" d="M1052.636,497.37s1.841,5.765,5.79,4.925" transform="translate(-1036.91 -472.493)"/></g><path class="i" d="M1091.555,486.837a15.576,15.576,0,0,1-10.156,11.682c-5.42,1.955-14.594,3.9-20.67-2.127.378.076,19.63,4.015,24.438-11.089,3.706-11.655-4.634-19.664-8.767-22.783a25.792,25.792,0,0,1,9.446,7.536C1091.437,476.717,1092.369,482.436,1091.555,486.837Z" transform="translate(-1037.199 -404.413)"/><path class="j" d="M1076.493,478.477a2.52,2.52,0,1,1-3.082-3.913,3.986,3.986,0,0,0-3.149-.564c-2.6.718-3.872,4.34-2.839,8.09s3.984,6.209,6.587,5.491,3.874-4.34,2.839-8.091A10.292,10.292,0,0,0,1076.493,478.477Z" transform="translate(-1034.994 -393.546)"/><path class="b" d="M1058.973,500.766a67.054,67.054,0,0,1-10.131-.767,38.66,38.66,0,0,0,63.453-26.012A66.377,66.377,0,0,1,1058.973,500.766Z" transform="translate(-1034.423 -393.441)"/><g class="c" transform="translate(-1048.041 -432.825)"><path class="k" d="M1100.367,473.474c3.246-37.22-8.377-40.648-8.377-40.648,3.51,29.943-7.42,38.522-7.42,38.522a38.652,38.652,0,1,0,15.8,2.127Z"/><path class="l" d="M 1094.47216796875 437.9356689453125 C 1096.24853515625 464.3826293945313 1086.257446289063 472.5642700195313 1085.804321289063 472.919921875 L 1085.32421875 473.2967529296875 L 1084.715454101563 473.3412475585938 C 1075.502197265625 474.0150146484375 1066.945068359375 478.1104125976563 1060.6201171875 484.8729858398438 C 1054.261840820313 491.67138671875 1050.760131835938 500.54541015625 1050.760131835938 509.8603515625 C 1050.760131835938 514.8096923828125 1051.72900390625 519.60986328125 1053.639770507813 524.127685546875 C 1055.48583984375 528.4925537109375 1058.129150390625 532.4129638671875 1061.49609375 535.7800903320313 C 1064.86328125 539.1472778320313 1068.783569335938 541.7907104492188 1073.1484375 543.6368408203125 C 1077.666381835938 545.5478515625 1082.466918945313 546.516845703125 1087.416625976563 546.516845703125 C 1092.365966796875 546.516845703125 1097.166259765625 545.5478515625 1101.684204101563 543.6369018554688 C 1106.048950195313 541.7906494140625 1109.969360351563 539.147216796875 1113.336547851563 535.780029296875 C 1116.703735351563 532.412841796875 1119.34716796875 528.492431640625 1121.193359375 524.127685546875 C 1123.104248046875 519.6098022460938 1124.0732421875 514.8095703125 1124.0732421875 509.8603515625 C 1124.0732421875 502.1483154296875 1121.700073242188 494.7741394042969 1117.210327148438 488.5350646972656 C 1115.048583984375 485.5310668945313 1112.452270507813 482.8756103515625 1109.493774414063 480.6424255371094 C 1106.506225585938 478.3873901367188 1103.209716796875 476.6093139648438 1099.695556640625 475.3575744628906 L 1098.239990234375 474.839111328125 L 1098.374267578125 473.2997741699219 C 1099.073120117188 465.2875366210938 1099.122436523438 458.2528076171875 1098.520874023438 452.3910522460938 C 1098.04248046875 447.7294311523438 1097.15576171875 443.8079833984375 1095.88525390625 440.7356567382813 C 1095.417236328125 439.6039428710938 1094.934326171875 438.6821899414063 1094.47216796875 437.9356689453125 M 1091.989990234375 432.8250732421875 C 1091.989990234375 432.8250732421875 1103.613037109375 436.2532958984375 1100.36669921875 473.4735412597656 C 1115.33642578125 478.8058166503906 1126.0732421875 493.0611572265625 1126.0732421875 509.8603515625 C 1126.0732421875 531.2088012695313 1108.765502929688 548.516845703125 1087.416625976563 548.516845703125 C 1066.066040039063 548.516845703125 1048.760131835938 531.2088012695313 1048.760131835938 509.8603515625 C 1048.760131835938 489.472412109375 1064.55517578125 472.8102111816406 1084.569580078125 471.3465881347656 C 1084.569580078125 471.3465881347656 1095.500366210938 462.76806640625 1091.989990234375 432.8250732421875 Z"/></g><g class="c" transform="translate(-1043.125 -405.131)"><path class="k" d="M1073.378,461.929a9.446,9.446,0,0,0-4.33,1.839c-3.939,2.984-11.782,11.142-6.608,26.256,4.862,14.2,17.953,11.713,24.884,9.215a15.592,15.592,0,0,0,10.156-11.686c.814-4.4-.117-10.117-5.706-16.782C1091.774,470.772,1084.214,460.364,1073.378,461.929Z"/><path class="l" d="M 1075.601928710938 461.7690734863281 L 1075.601928710938 463.7690734863281 L 1075.601928710938 463.7690734863281 C 1074.958251953125 463.7690734863281 1074.30615234375 463.8161010742188 1073.6650390625 463.9087219238281 C 1072.461181640625 464.08349609375 1071.281616210938 464.586669921875 1070.25537109375 465.3629760742188 C 1068.3642578125 466.7957153320313 1065.7734375 469.3049621582031 1064.17041015625 473.1224975585938 C 1062.195556640625 477.825927734375 1062.249877929688 483.2948608398438 1064.332153320313 489.3773498535156 C 1065.558349609375 492.9591674804688 1067.4345703125 495.5861511230469 1069.908447265625 497.1853637695313 C 1071.9453125 498.5020141601563 1074.4521484375 499.1696166992188 1077.359252929688 499.1696166992188 C 1080.882080078125 499.1696166992188 1084.353881835938 498.1846008300781 1086.645751953125 497.3583679199219 C 1091.262573242188 495.6932983398438 1094.660400390625 491.7969360351563 1095.51318359375 487.18994140625 C 1096.402954101563 482.3814697265625 1094.629272460938 477.2901306152344 1090.241455078125 472.057373046875 L 1090.196655273438 472.0039672851563 L 1090.15576171875 471.9476013183594 C 1090.096313476563 471.8658142089844 1084.1171875 463.7691040039063 1075.60205078125 463.7690734863281 L 1075.601928710938 461.7690734863281 M 1075.602172851563 461.76904296875 C 1085.23486328125 461.7691040039063 1091.77392578125 470.7723083496094 1091.77392578125 470.7723083496094 C 1097.362548828125 477.4370422363281 1098.294189453125 483.1529235839844 1097.479858398438 487.5538330078125 C 1096.476440429688 492.9741821289063 1092.511474609375 497.3689575195313 1087.32421875 499.23974609375 C 1084.6455078125 500.2054748535156 1081.047485351563 501.1696166992188 1077.359252929688 501.1696166992188 C 1071.50439453125 501.1696166992188 1065.423217773438 498.7387390136719 1062.43994140625 490.025146484375 C 1057.265869140625 474.9109191894531 1065.108764648438 466.7529602050781 1069.047607421875 463.7688293457031 C 1070.317749023438 462.8080749511719 1071.800903320313 462.1583557128906 1073.377807617188 461.9294738769531 C 1074.1357421875 461.8199768066406 1074.877685546875 461.76904296875 1075.602172851563 461.76904296875 Z"/></g><g transform="translate(0.718 63.612)"><path class="h" d="M1094.153,477.834c.1.458.2.914.311,1.368.728,2.984,3.745,17.053-3.321,19.76-7.915,3.033-10.578-17.087-10.578-17.087s-1.657-9.944,2.971-15.238a3.1,3.1,0,0,1,3.8-.732C1089.414,467.019,1092.423,469.98,1094.153,477.834Z" transform="translate(-1080.084 -465.129)"/><path class="i" d="M1095.924,489.536c-.429,3.28-1.679,6.152-4.516,7.238-8.107,3.109-10.841-17.508-10.841-17.508a27.735,27.735,0,0,1,.606-11.007,33.216,33.216,0,0,0,2.581,18.053C1085.558,490.25,1089.446,495.863,1095.924,489.536Z" transform="translate(-1080.272 -462.533)"/><path class="j" d="M1086.533,479.573a1.637,1.637,0,0,1-.239.082,1.834,1.834,0,0,1-2.051-1.585,1.812,1.812,0,0,1,.769-1.7,1.917,1.917,0,0,0-1.61-.853c-1.5.194-2.354,3.239-1.9,6.8s2.046,6.295,3.551,6.1,2.352-3.238,1.9-6.8A14.833,14.833,0,0,0,1086.533,479.573Z" transform="translate(-1073.597 -455.603)"/><g class="c" transform="translate(-1080.178 -465.333)"><path class="k" d="M1094.4,477.927c.1.467.206.935.319,1.4.746,3.059,3.838,17.476-3.4,20.251-8.109,3.107-10.839-17.51-10.839-17.51s-1.7-10.193,3.043-15.617a3.184,3.184,0,0,1,3.9-.75C1089.543,466.843,1092.626,469.876,1094.4,477.927Z"/><path class="l" d="M 1085.952392578125 467.3331909179688 C 1085.60302734375 467.3331909179688 1085.263916015625 467.4916381835938 1085.023193359375 467.7665100097656 C 1082.965942382813 470.1199340820313 1082.363037109375 473.7152709960938 1082.219482421875 476.3169250488281 C 1082.054809570313 479.3016967773438 1082.443603515625 481.7168884277344 1082.447143554688 481.7385864257813 L 1082.45263671875 481.7715759277344 L 1082.45703125 481.8047180175781 C 1082.462768554688 481.8474731445313 1083.039184570313 486.1296997070313 1084.41357421875 490.3641052246094 C 1085.191040039063 492.7593383789063 1086.057373046875 494.6398620605469 1086.988525390625 495.9534606933594 C 1087.902221679688 497.2423095703125 1088.81005859375 497.8958129882813 1089.68701171875 497.8958129882813 C 1089.96826171875 497.8958129882813 1090.274658203125 497.8330383300781 1090.597778320313 497.7091979980469 C 1091.740112304688 497.2715148925781 1092.57470703125 496.3618774414063 1093.14892578125 494.9283447265625 C 1093.701293945313 493.5494689941406 1093.991455078125 491.7364501953125 1094.01123046875 489.5396423339844 C 1094.0478515625 485.4755859375 1093.158935546875 481.3742370605469 1092.775390625 479.8014526367188 C 1092.662841796875 479.3419494628906 1092.561889648438 478.8900451660156 1092.445556640625 478.35693359375 C 1090.775512695313 470.7733154296875 1087.983276367188 468.2763671875 1086.466186523438 467.4622497558594 C 1086.306884765625 467.3766174316406 1086.134033203125 467.3331909179688 1085.952392578125 467.3331909179688 M 1085.952392578125 465.3331909179688 C 1086.44970703125 465.3331909179688 1086.950317382813 465.4518737792969 1087.4130859375 465.7006225585938 C 1089.542602539063 466.8433837890625 1092.6259765625 469.8764038085938 1094.398803710938 477.9268188476563 C 1094.500732421875 478.394287109375 1094.6044921875 478.8621215820313 1094.718017578125 479.3258056640625 C 1095.463745117188 482.3843383789063 1098.555541992188 496.8019714355469 1091.313354492188 499.5768127441406 C 1090.745239257813 499.7945251464844 1090.203247070313 499.8958129882813 1089.68701171875 499.8958129882813 C 1082.835205078125 499.8958129882813 1080.474365234375 482.0672607421875 1080.474365234375 482.0672607421875 C 1080.474365234375 482.0672607421875 1078.776123046875 471.8743286132813 1083.517333984375 466.4502563476563 C 1084.1494140625 465.7284240722656 1085.045166015625 465.3331909179688 1085.952392578125 465.3331909179688 Z"/></g></g><path class="f" d="M1081.649,452.861s-3.242,4.915-11.993,8.373" transform="translate(-1044.506 -413.655)"/><g transform="translate(69.488 34.337)"><path class="a" d="M1062.1,452.144c-2.459-2.4-7.467-2.4-11.995.217-5.115,2.955-7.667,8.113-5.7,11.523a4.927,4.927,0,0,0,1.115,1.282C1045.993,465.274,1057.583,467.767,1062.1,452.144Z" transform="translate(-1043.745 -450.373)"/><path class="b" d="M1060.391,452.323a4.8,4.8,0,0,0-.834-1.045c-4.52,15.623-16.11,13.13-16.578,13.023,2.544,2.147,7.348,2.066,11.714-.454C1059.809,460.892,1062.361,455.734,1060.391,452.323Z" transform="translate(-1041.199 -449.506)"/><path class="b" d="M1056.524,470.719a5.5,5.5,0,0,0-1.969-3.552c-5.139,15.529-18.809,7.158-18.944,7.074,1.331,3.113,5.835,5.109,10.956,4.612C1052.447,478.28,1056.905,474.638,1056.524,470.719Z" transform="translate(-1022.273 -434.304)"/><path class="a" d="M1055.975,468.431c-2.07-1.843-5.536-2.882-9.368-2.509-5.88.571-10.338,4.213-9.956,8.133a4.877,4.877,0,0,0,.379,1.45C1037.166,475.589,1050.837,483.96,1055.975,468.431Z" transform="translate(-1023.693 -435.567)"/><g transform="translate(0)"><g class="c" transform="translate(-1042.979 -450.373)"><path class="k" d="M1056.472,464.713c5.117-2.955,7.669-8.113,5.7-11.523a4.8,4.8,0,0,0-.834-1.045c-2.46-2.4-7.467-2.4-12,.217-5.115,2.955-7.667,8.113-5.7,11.523a4.93,4.93,0,0,0,1.115,1.282C1047.3,467.313,1052.106,467.233,1056.472,464.713Z"/><path class="l" d="M 1049.579711914063 464.6955871582031 C 1051.4638671875 464.6955871582031 1053.556396484375 464.0865173339844 1055.471801757813 462.9806823730469 C 1057.577758789063 461.7646484375 1059.296020507813 460.0350341796875 1060.186157226563 458.2352905273438 C 1060.632202148438 457.3333435058594 1061.258056640625 455.6084289550781 1060.4384765625 454.189697265625 L 1060.436279296875 454.1858520507813 L 1060.43408203125 454.1820068359375 C 1060.326049804688 453.9931335449219 1060.164428710938 453.7948913574219 1059.940551757813 453.5765075683594 C 1059.143920898438 452.8002014160156 1057.834106445313 452.3726501464844 1056.25244140625 452.3726501464844 C 1054.362670898438 452.3726501464844 1052.263305664063 452.9838256835938 1050.341674804688 454.0933837890625 C 1048.236572265625 455.309326171875 1046.518798828125 457.0389709472656 1045.628662109375 458.8388061523438 C 1045.1826171875 459.7409362792969 1044.556396484375 461.4662475585938 1045.373046875 462.8812255859375 C 1045.516357421875 463.1282348632813 1045.737182617188 463.3757934570313 1046.048217773438 463.63818359375 C 1046.856201171875 464.3200073242188 1048.1103515625 464.6955261230469 1049.57958984375 464.6955871582031 L 1049.579711914063 464.6955871582031 M 1049.579345703125 466.6955871582031 C 1047.658813476563 466.6955261230469 1045.957397460938 466.1784362792969 1044.758422851563 465.1667175292969 C 1044.322265625 464.7987976074219 1043.932739257813 464.3840026855469 1043.643188476563 463.8850402832031 C 1041.6748046875 460.4742736816406 1044.226196289063 455.3161315917969 1049.34130859375 452.3615417480469 C 1051.654541015625 451.0259094238281 1054.092651367188 450.3726501464844 1056.25244140625 450.3726501464844 C 1058.320434570313 450.3726501464844 1060.13330078125 450.9716796875 1061.33642578125 452.1441955566406 C 1061.655395507813 452.4552917480469 1061.9453125 452.7958068847656 1062.170288085938 453.1892395019531 C 1064.140625 456.5998229980469 1061.5888671875 461.7579650878906 1056.471923828125 464.7126770019531 C 1054.163940429688 466.0451965332031 1051.733764648438 466.6956481933594 1049.579345703125 466.6955871582031 Z"/></g><g class="c" transform="translate(-1022.675 -435.567)"><path class="k" d="M1056.926,471.982a5.5,5.5,0,0,0-1.969-3.552c-2.07-1.843-5.536-2.882-9.368-2.509-5.88.571-10.338,4.213-9.956,8.133a4.877,4.877,0,0,0,.38,1.45c1.331,3.113,5.835,5.109,10.956,4.612C1052.85,479.543,1057.307,475.9,1056.926,471.982Z"/><path class="l" d="M 1047.133056640625 467.8463439941406 C 1046.688354492188 467.8463439941406 1046.234619140625 467.8686218261719 1045.783569335938 467.9126281738281 C 1043.364013671875 468.1477355957031 1041.084350585938 469.0111694335938 1039.529174804688 470.2815856933594 C 1038.749633789063 470.9183044433594 1037.465698242188 472.2299499511719 1037.624389648438 473.8610229492188 C 1037.65185546875 474.1432189941406 1037.726440429688 474.4236145019531 1037.852416992188 474.7183837890625 C 1038.245727539063 475.6382751464844 1039.1455078125 476.4867553710938 1040.385986328125 477.1075134277344 C 1041.804321289063 477.8171997070313 1043.543701171875 478.1923217773438 1045.416137695313 478.1923217773438 C 1045.864990234375 478.1923217773438 1046.322631835938 478.1700134277344 1046.775390625 478.1260681152344 C 1049.195190429688 477.8901062011719 1051.475219726563 477.0260009765625 1053.030517578125 475.7553405761719 C 1053.81005859375 475.1184692382813 1055.09423828125 473.8065490722656 1054.935668945313 472.1766662597656 C 1054.858276367188 471.384765625 1054.418579101563 470.6272888183594 1053.627807617188 469.92431640625 C 1052.166381835938 468.6232604980469 1049.738647460938 467.846435546875 1047.13330078125 467.8463439941406 L 1047.133056640625 467.8463439941406 M 1047.133666992188 465.8463439941406 C 1050.340087890625 465.8464965820313 1053.169555664063 466.838623046875 1054.957641601563 468.4305419921875 C 1056.065063476563 469.4149169921875 1056.792846679688 470.6183471679688 1056.926147460938 471.9821166992188 C 1057.307495117188 475.9016723632813 1052.849609375 479.543212890625 1046.969482421875 480.1166381835938 C 1046.444091796875 480.1676025390625 1045.92578125 480.1923217773438 1045.416137695313 480.1923217773438 C 1040.95849609375 480.1923217773438 1037.207641601563 478.2982482910156 1036.013427734375 475.5045166015625 C 1035.81591796875 475.0426025390625 1035.682861328125 474.559326171875 1035.6337890625 474.0545043945313 C 1035.25244140625 470.1348876953125 1039.7099609375 466.4933471679688 1045.590087890625 465.9219970703125 C 1046.112548828125 465.8710327148438 1046.62744140625 465.8463134765625 1047.133666992188 465.8463439941406 Z"/></g></g></g></g></svg>