<svg xmlns="http://www.w3.org/2000/svg" xmlns:xlink="http://www.w3.org/1999/xlink" width="350.704" height="621.197" viewBox="0 0 350.704 621.197">
  <defs>
    <linearGradient id="linear-gradient" x1="1" y1="0.5" x2="0" y2="0.5" gradientUnits="objectBoundingBox">
      <stop offset="0" stop-color="#e87f2e"/>
      <stop offset="1" stop-color="#da6329"/>
    </linearGradient>
    <linearGradient id="linear-gradient-2" x1="1.452" y1="1.325" x2="1.026" y2="0.921" gradientUnits="objectBoundingBox">
      <stop offset="0" stop-color="#93b734"/>
      <stop offset="1" stop-color="#77a142"/>
    </linearGradient>
    <linearGradient id="linear-gradient-3" x1="0.741" y1="0.811" x2="1.617" y2="1.259" xlink:href="#linear-gradient"/>
    <linearGradient id="linear-gradient-4" x1="1.596" y1="1.924" x2="2.165" y2="2.783" gradientUnits="objectBoundingBox">
      <stop offset="0" stop-color="#a4c127"/>
      <stop offset="1" stop-color="#799d39"/>
    </linearGradient>
    <linearGradient id="linear-gradient-5" x1="0" y1="0.5" x2="1" y2="0.5" xlink:href="#linear-gradient"/>
    <linearGradient id="linear-gradient-6" x1="0.02" y1="0.525" x2="0.986" y2="0.466" gradientUnits="objectBoundingBox">
      <stop offset="0" stop-color="#f49a2e"/>
      <stop offset="0.415" stop-color="#f4bb2e"/>
      <stop offset="1" stop-color="#f49a2e"/>
    </linearGradient>
    <linearGradient id="linear-gradient-7" x1="-0.004" y1="0.537" x2="1.024" y2="0.466" xlink:href="#linear-gradient-6"/>
    <linearGradient id="linear-gradient-8" x1="0.001" y1="0.577" x2="0.993" y2="0.357" xlink:href="#linear-gradient-6"/>
    <linearGradient id="linear-gradient-9" x1="7.946" y1="0.661" x2="9.191" y2="0.639" xlink:href="#linear-gradient-6"/>
    <linearGradient id="linear-gradient-10" x1="-5.187" y1="-7.366" x2="-4.187" y2="-7.366" xlink:href="#linear-gradient-6"/>
    <linearGradient id="linear-gradient-11" x1="-201.168" y1="-8949.656" x2="-183.608" y2="-8744.586" xlink:href="#linear-gradient-4"/>
    <clipPath id="clip-path">
      <path id="Path_2463" data-name="Path 2463" d="M321.559,363.222s9.57-31.449,1.907-113.557c0,0,21.547,1.129,26.342-.187,0,0,9.227,37.9,4.223,114.97Z" transform="translate(-321.559 -249.478)" fill="none"/>
    </clipPath>
  </defs>
  <g id="Group_478" data-name="Group 478" transform="translate(-469.391 -295)">
    <g id="Group_477" data-name="Group 477" transform="translate(469.948 295)">
      <path id="Path_2395" data-name="Path 2395" d="M452.819,268.862c-15.817,3.191-22.98,1.709-27.6-1-6.755-3.949-21.5-12.424-31.8-18.338a62.028,62.028,0,0,0-12.325-5.384,120.13,120.13,0,0,1-21.932,6.223c-8.642,19.315-27.515,61.525-27.384,61.488,24.835-6.829,46.117,17.781,90.113,7.2,11.161-2.684,61.868-19.018,81.335-44.57C519.346,253.326,470.217,265.35,452.819,268.862Z" transform="translate(-164.164 7.642)" stroke="#000" stroke-miterlimit="10" stroke-width="1" fill="url(#linear-gradient)"/>
      <path id="Path_2396" data-name="Path 2396" d="M475.6,284.785c-4.713,1.591-9.848,3.276-15.316,4.994-17.43,5.478-26.559-9.385-30.715-19.922-11.98,1.8-17.956.372-21.993-1.99-6.755-3.951-21.5-12.426-31.8-18.336a62.038,62.038,0,0,0-12.325-5.387c-1.884.737-3.826,1.423-5.806,2.081,1.9,20.536,6.457,62.778,6.457,64.43,0,.807,4.38,5.312,9.9,10.672a90.408,90.408,0,0,0,30.243-2.267C413.828,316.752,452.512,304.391,475.6,284.785Z" transform="translate(-146.523 7.641)" opacity="0.3"/>
      <g id="Group_464" data-name="Group 464" transform="translate(0)">
        <path id="Path_2397" data-name="Path 2397" d="M392.386,171.782a8.375,8.375,0,0,0,2.587-8.6c-5.441-19.879-24.9-87.664-87.351-61.6a18.325,18.325,0,0,0,4.79-.846c15.6-4.5,64.579-12.47,73.324,71.252a2.429,2.429,0,0,0,3.07,1.976A10.367,10.367,0,0,0,392.386,171.782Z" transform="translate(-180.635 -93.591)" fill="#799d39"/>
        <circle id="Ellipse_89" data-name="Ellipse 89" cx="7.987" cy="7.987" r="7.987" transform="translate(118.998)" fill="#799d39"/>
        <path id="Path_2398" data-name="Path 2398" d="M336.723,146.643,304.21,194.717l-24.385,60.117s1.507,28.2,3.063,30.761,63.641,37.056,63.641,37.056l44.65-3.944,52.567-21.12,24.526-27.419-13.9-46.818-23.537-59.562-26.914-33.264-59.127-1.566Z" transform="translate(-199.591 -70.906)" fill="url(#linear-gradient-2)"/>
        <g id="Group_463" data-name="Group 463" transform="translate(95.033 134.268)">
          <path id="Path_2399" data-name="Path 2399" d="M308.153,175.682c43.813-8.384,53.051,23.375,53.051,23.375s-17.941-31.846-56.33-17.487S308.153,175.682,308.153,175.682Z" transform="translate(-288.624 -174.273)" fill="#4c6013"/>
          <path id="Path_2400" data-name="Path 2400" d="M403.755,183.018c-41.966-15.122-56.052,14.8-56.052,14.8s22.7-28.653,58.37-8.475S403.755,183.018,403.755,183.018Z" transform="translate(-248.336 -171.219)" fill="#4c6013"/>
          <path id="Path_2401" data-name="Path 2401" d="M339.883,211.119a76.224,76.224,0,0,0,19.62,3.89c8.433.537,19.534,2.044,18.025,6.277-2.4,6.724-10.263,9.73-32.444,7.754s-27.849-12.995-24.1-17.179c1.643-1.83,4.8-2.427,7.829-2.518a31.58,31.58,0,0,1,11.067,1.776Z" transform="translate(-267.284 -150.366)" fill="#fff"/>
          <path id="Path_2402" data-name="Path 2402" d="M378.04,220.48c-1.033,6.43-15.474,10.621-34.009,8.97-22.18-1.99-27.846-12.991-24.089-17.183a4.858,4.858,0,0,1,1.235-1.009c4.9,5.628,5.793,4.195,26.59,7.845C363.436,221.853,369.634,217.564,378.04,220.48Z" transform="translate(-267.998 -149.052)" fill="#4c6013"/>
        </g>
        <path id="Path_2403" data-name="Path 2403" d="M290.592,269.57s8.918-30.233,23.135-58.617c16.11-32.162,38.582-62.83,54.5-60.563,39.107,5.569,54.029,36.965,54.029,36.965l2.482-10.653L377.63,127.839l-27.937,8.938-45.269,62.733-16.207,42.3L286.54,269.68Z" transform="translate(-195.012 -71.67)" opacity="0.3"/>
        <path id="Path_2404" data-name="Path 2404" d="M495.772,265.651c-8.828-29.725-38.572-116.078-95.712-154.507a6.479,6.479,0,0,0-7.7.318l-5.673,4.6a17.229,17.229,0,0,1-9.942,3.831c-22.689,1.2-110.6,14.032-123.545,140.64,0,0-1.317,15.4,24.729-1.66,0,0-9.272,23.539.918,33.914s33.9,53.337,113.115,51.191c59.444-1.611,89.738-39.118,101.156-57.742A25.5,25.5,0,0,0,495.772,265.651ZM475.15,287.569c-5.905,9.269-26.771,34.567-79.28,35.99-50.448,1.366-73.926-24.174-81.72-35.282a14.747,14.747,0,0,1-2.54-10.3c8.564-69.336,57.815-119.205,71.115-131.54a6.6,6.6,0,0,1,7.394-1.061c68.517,33.465,83.928,117.269,86.493,135.35A10.082,10.082,0,0,1,475.15,287.569Z" transform="translate(-217.755 -83.815)" fill="url(#linear-gradient-3)"/>
        <path id="Path_2405" data-name="Path 2405" d="M326.031,147.337c-33.925,47.678-40.09,86.493-40.353,96.679C285.495,186.464,326.366,148.931,326.031,147.337Z" transform="translate(-195.6 -58.374)" fill="#fff"/>
        <path id="Path_2406" data-name="Path 2406" d="M288.564,189.337l-11.538,31.878C251.9,237.341,253.2,222.3,253.2,222.3c2.249-21.985,6.76-40.531,12.8-56.19C238.48,260.352,287.641,190.657,288.564,189.337Z" transform="translate(-217.758 -45.573)" opacity="0.2"/>
        <path id="Path_2407" data-name="Path 2407" d="M264.7,233.037c-.55.183-1.066.348-1.568.5-.217.057-.419.1-.619.151a15.569,15.569,0,0,1-1.623.313c-3.32.461-5.211-.431-6.289-1.68a5.028,5.028,0,0,1-.648-.959,7.2,7.2,0,0,1-.755-3.613c.108-1,.2-1.975.325-2.954.108-.962.217-1.941.341-2.9.234-1.924.486-3.816.772-5.692.1-.743.212-1.487.326-2.23q.689-4.435,1.515-8.655.245-1.244.488-2.486c.015-.086.045-.187.061-.271.161-.829.341-1.642.521-2.454.464-2.133.945-4.232,1.463-6.282.227-.915.454-1.813.683-2.711.656-2.474,1.347-4.9,2.076-7.258.23-.764.462-1.51.711-2.257.187-.594.372-1.187.558-1.748.249-.764.5-1.527.764-2.276.36-1.019.718-2.039,1.078-3.041.315-.849.611-1.682.925-2.5.064-.17.126-.323.19-.476,2.562-6.665,2.8-7.782,5.878-13.435a344.98,344.98,0,0,0-13.592,46.117C254.478,221.6,254.287,235.64,264.7,233.037Z" transform="translate(-217.758 -51.02)" fill="#fff"/>
        <g id="Path_2408" data-name="Path 2408" transform="translate(-217.755 -83.815)" fill="none" stroke-miterlimit="10">
          <path d="M495.772,265.651c-8.828-29.725-38.572-116.078-95.712-154.507a6.479,6.479,0,0,0-7.7.318l-5.673,4.6a17.229,17.229,0,0,1-9.942,3.831c-22.689,1.2-110.6,14.032-123.545,140.64,0,0-1.317,15.4,24.729-1.66,0,0-9.272,23.539.918,33.914s33.9,53.337,113.115,51.191c59.444-1.611,89.738-39.118,101.156-57.742A25.5,25.5,0,0,0,495.772,265.651ZM475.15,287.569c-5.905,9.269-26.771,34.567-79.28,35.99-50.448,1.366-73.926-24.174-81.72-35.282a14.747,14.747,0,0,1-2.54-10.3c8.564-69.336,57.366-119.392,70.668-131.729a7.3,7.3,0,0,1,7.841-.873c68.517,33.465,83.928,117.269,86.493,135.35A10.082,10.082,0,0,1,475.15,287.569Z" stroke="none"/>
          <path d="M 386.2862854003906 344.0564880371094 C 388.1502380371094 344.0566101074219 390.033935546875 344.0310974121094 391.9631042480469 343.9788208007813 C 451.4075622558594 342.3675537109375 481.7008666992188 304.8605041503906 493.1194763183594 286.2364807128906 C 496.8988342285156 280.0722045898438 497.8288269042969 272.5825500488281 495.7718811035156 265.6513061523438 C 486.9434814453125 235.9265594482422 457.2001342773438 149.5729217529297 400.0599365234375 111.144157409668 C 398.9529113769531 110.4001007080078 397.6795043945313 110.0289611816406 396.4115295410156 110.0289611816406 C 394.9709777832031 110.0289611816406 393.5373229980469 110.5075454711914 392.3600769042969 111.462028503418 L 386.6869506835938 116.062126159668 C 383.8546142578125 118.3562927246094 380.3830261230469 119.7018280029297 376.7450256347656 119.8935623168945 C 354.0558166503906 121.0894241333008 266.1463623046875 133.9258880615234 253.2005004882813 260.5331726074219 C 253.2005004882813 260.5331726074219 252.6565093994141 266.9094543457031 259.2080078125 266.9094543457031 C 262.837646484375 266.9094543457031 268.6441955566406 264.953857421875 277.9299011230469 258.8730773925781 C 277.9299011230469 258.8730773925781 268.6574096679688 282.4117736816406 278.8482666015625 292.7875671386719 C 288.7909240722656 302.9123229980469 311.6117858886719 344.0518798828125 386.2862854003906 344.0564880371094 M 386.7861633300781 144.6299285888672 C 387.9472351074219 144.6299285888672 389.1114807128906 144.8840942382813 390.1197509765625 145.37646484375 C 458.6365356445313 178.8418579101563 474.0480651855469 262.6457214355469 476.6130065917969 280.7264709472656 C 476.9527282714844 283.1114501953125 476.443115234375 285.5350952148438 475.1497497558594 287.5685729980469 C 469.2445068359375 296.8377075195313 448.3784484863281 322.1355590820313 395.8702392578125 323.5585021972656 C 394.564697265625 323.5938415527344 393.2748718261719 323.6111755371094 392.0052795410156 323.6111755371094 C 344.2154235839844 323.6111755371094 321.74267578125 299.0966491699219 314.1502990722656 288.2766723632813 C 312.0462341308594 285.2777709960938 311.1615295410156 281.6128234863281 311.6106262207031 277.9781799316406 C 320.1750183105469 208.6422576904297 368.9761962890625 158.5863952636719 382.2785949707031 146.2493896484375 C 383.4593200683594 145.1539459228516 385.1193542480469 144.6299285888672 386.7861633300781 144.6299285888672 M 386.2972106933594 345.0564880371094 L 386.2861938476563 345.0564880371094 C 378.40673828125 345.0559997558594 370.756591796875 344.5913696289063 363.54833984375 343.6754150390625 C 356.8303833007813 342.82177734375 350.3184814453125 341.5535583496094 344.1935729980469 339.9060363769531 C 338.5415649414063 338.3856506347656 333.0690307617188 336.5018615722656 327.927978515625 334.3069152832031 C 323.2483520507813 332.3090209960938 318.7167053222656 329.9990539550781 314.4588623046875 327.4412231445313 C 307.3040771484375 323.14306640625 300.8506774902344 318.1519165039063 294.7298889160156 312.1825866699219 C 289.5620727539063 307.142578125 285.7151184082031 302.4627990722656 282.6240234375 298.7025146484375 C 280.8834228515625 296.5851135253906 279.3802185058594 294.7564697265625 278.134765625 293.4882202148438 C 275.6604309082031 290.9689636230469 274.0731811523438 287.5287170410156 273.4171447753906 283.2631225585938 C 272.9032287597656 279.9217224121094 272.9573364257813 276.0634460449219 273.5779113769531 271.7955017089844 C 274.2030029296875 267.4966735839844 275.2640686035156 263.6886596679688 276.0398254394531 261.2615966796875 C 272.6194458007813 263.3738098144531 269.5286560058594 264.9963684082031 266.8251953125 266.09765625 C 263.8739624023438 267.2998962402344 261.3111572265625 267.9094543457031 259.2080078125 267.9094543457031 C 256.9578247070313 267.9094543457031 255.1923675537109 267.2293701171875 253.9606018066406 265.8880310058594 C 251.9518737792969 263.7006225585938 252.19287109375 260.5799255371094 252.2041320800781 260.4481506347656 L 252.204833984375 260.4397888183594 L 252.2057037353516 260.4314270019531 C 253.7642669677734 245.1888580322266 256.4998474121094 230.8810577392578 260.3363647460938 217.9054260253906 C 263.8771362304688 205.9301300048828 268.43994140625 194.8031921386719 273.8980712890625 184.8337249755859 C 278.8780822753906 175.7375640869141 284.716064453125 167.3980560302734 291.2499389648438 160.0469207763672 C 297.1199340820313 153.4426879882813 303.6744995117188 147.4969329833984 310.7315979003906 142.3747863769531 C 322.2930603027344 133.9833221435547 335.307373046875 127.6692276000977 349.4129943847656 123.6078948974609 C 360.9213256835938 120.2943954467773 370.5997314453125 119.2160568237305 376.6924133300781 118.8949584960938 C 380.1270141601563 118.7139282226563 383.3654174804688 117.4656600952148 386.0574951171875 115.2850570678711 L 391.730224609375 110.6852951049805 C 393.0476379394531 109.6171951293945 394.7101440429688 109.0289611816406 396.4115295410156 109.0289611816406 C 397.9122924804688 109.0289611816406 399.3667907714844 109.473388671875 400.6177673339844 110.3141937255859 C 407.5328979492188 114.9648590087891 414.360595703125 120.5379257202148 420.9114379882813 126.8786926269531 C 426.9746398925781 132.7474517822266 432.9481506347656 139.4164886474609 438.6660461425781 146.7005310058594 C 448.6757507324219 159.4518585205078 458.181640625 174.4235992431641 466.9197387695313 191.1997985839844 C 482.6759033203125 221.4499664306641 492.3601684570313 250.6519927978516 496.73046875 265.3665771484375 C 498.8774108886719 272.6009521484375 497.8719482421875 280.398193359375 493.9720153808594 286.7591857910156 C 488.0602416992188 296.4013977050781 477.5649719238281 310.3938903808594 461.1377258300781 322.2971801757813 C 452.0646667480469 328.87158203125 442.1184387207031 334.1004028320313 431.5753479003906 337.8383483886719 C 425.6459655761719 339.9405517578125 419.427001953125 341.6038513183594 413.0912475585938 342.7821350097656 C 406.3063049316406 344.0438842773438 399.2069091796875 344.7828674316406 391.9902038574219 344.9784545898438 C 390.0790100097656 345.0302124023438 388.1636047363281 345.0564880371094 386.2972106933594 345.0564880371094 Z M 386.7861633300781 145.6299285888672 C 385.2802734375 145.6299285888672 383.8851928710938 146.1229248046875 382.958740234375 146.9824523925781 C 372.7444763183594 156.4554901123047 321.3488159179688 207.2968292236328 312.6031188964844 278.1007995605469 C 312.1810302734375 281.5164489746094 313.021240234375 284.9263305664063 314.9689025878906 287.7023315429688 C 322.333984375 298.1983642578125 344.5840148925781 322.6112060546875 392.0052795410156 322.6112060546875 C 393.268798828125 322.6112060546875 394.56005859375 322.5935974121094 395.8431701660156 322.5588684082031 C 447.1174011230469 321.1693725585938 467.7958374023438 297.2504577636719 474.3063354492188 287.03125 C 475.4624938964844 285.2135314941406 475.9302368164063 283.0242919921875 475.6230163574219 280.8674926757813 C 473.2655944824219 264.2498168945313 458.0435485839844 179.6651306152344 389.6808776855469 146.2749938964844 C 388.8167114257813 145.8529968261719 387.8157043457031 145.6299285888672 386.7861633300781 145.6299285888672 Z" stroke="none"/>
        </g>
        <path id="Path_2409" data-name="Path 2409" d="M373.132,115.482a95.483,95.483,0,0,0-15.76,14.527h-.017c-45.962-6.04-81.126,39.315-93.06,57.187,30.7-62.194,87.309-70.1,104.867-71.018A16.659,16.659,0,0,0,373.132,115.482Z" transform="translate(-210.181 -80.096)" opacity="0.2"/>
        <path id="Path_2410" data-name="Path 2410" d="M308.514,127.092s6.926-3.646,6.179,8.807-8.312,15.655-12.394,14.268c-1.531-.52-2.284-2.257-2.625-4.225a14.256,14.256,0,0,1,2.871-10.988Z" transform="translate(-186.185 -72.519)"/>
        <path id="Path_2411" data-name="Path 2411" d="M352.223,157.928a9.249,9.249,0,0,0-.526-9.907c-12.937-18.417-58.3-81.083-112.636-33.679-.607.53-.175,2.054-.784,2.61,0,0,58.957-56.2,107.11,43.67a2.684,2.684,0,0,0,3.929.907A11.411,11.411,0,0,0,352.223,157.928Z" transform="translate(-227.924 -92.718)" fill="url(#linear-gradient-4)"/>
        <circle id="Ellipse_90" data-name="Ellipse 90" cx="9.983" cy="9.983" r="9.983" transform="translate(0 13.954)" fill="#a4c127"/>
        <path id="Path_2412" data-name="Path 2412" d="M243.207,102.9a9.978,9.978,0,0,1-8.775,17.791,9.98,9.98,0,1,0,8.775-17.791Z" transform="translate(-230.546 -88.675)" fill="#799d39"/>
        <line id="Line_17" data-name="Line 17" y1="45.754" x2="16.564" transform="translate(57.721 134.188)" fill="none" stroke="#000" stroke-miterlimit="10" stroke-width="1"/>
        <path id="Path_2413" data-name="Path 2413" d="M341.139,113.879s-14.19,8.68-24.151,22.942" transform="translate(-174.249 -81.19)" fill="none" stroke="#000" stroke-miterlimit="10" stroke-width="1"/>
        <path id="Path_2414" data-name="Path 2414" d="M287.924,269.5s4.644-81.582,89.159-147.044" transform="translate(-194.068 -75.339)" fill="none" stroke="#000" stroke-miterlimit="10" stroke-width="1"/>
        <path id="Path_2415" data-name="Path 2415" d="M466.721,287.349l-10.335,21.564-.017.017a118.694,118.694,0,0,1-20.193,14.8c-1.159.671-2.37,1.344-3.581,2-14.645,7.8-32.831,13.459-55.125,14.063-27.22.737-47.89-3.852-63.72-10.625-.069-.03-.136-.062-.222-.094l-8.746-4.238a108.275,108.275,0,0,1-30.342-24.417c12.315,7.389,55.633,30.075,106.935,18.96,52.508-1.423,73.376-26.721,79.283-35.983a10.146,10.146,0,0,0,1.463-6.856c-2.558-18.067-17.97-101.878-86.5-135.34a7.3,7.3,0,0,0-7.833.87c-13.312,12.34-62.114,62.388-70.666,131.722a14.759,14.759,0,0,0,2.533,10.314,70.549,70.549,0,0,0,5.034,6.324c-1.261-1.261-11.684-12.118-11.348-25.15.262-10.186,6.428-49,40.353-96.679l.034-.034a333.935,333.935,0,0,1,43.927-49.815,9.532,9.532,0,0,1,11.22-1.347c9.5,5.379,26.088,18.357,38.183,36.234,17.685,26.156,33.2,57.115,43.189,103.686A46.755,46.755,0,0,1,466.721,287.349Z" transform="translate(-203.264 -79.633)" opacity="0.3"/>
        <path id="Path_2416" data-name="Path 2416" d="M335.846,157.922a11.923,11.923,0,0,1-2.915,3.613,2.7,2.7,0,0,1-3.929-.92s15.867-9.314-35.482-52.7C285.772,101.365,275,98,262.3,96.987c35.85-.821,63.385,37.351,73.009,51.038A9.223,9.223,0,0,1,335.846,157.922Z" transform="translate(-211.543 -92.717)" fill="#799d39"/>
        <path id="Path_2417" data-name="Path 2417" d="M240.194,102.924a9.983,9.983,0,1,1-7.784,7.412" transform="translate(-232.122 -88.786)" fill="none" stroke="#799d39" stroke-miterlimit="10" stroke-width="1"/>
        <path id="Path_2418" data-name="Path 2418" d="M306.283,251.191c-1.413-.617-6.533-2.526-11.212-4.558-5-2.173-9.637-2.987-7.733-.414-.38-.343-.725-.688-1.071-1.031-.088-.1-.173-.18-.259-.262q-.78-.762-1.505-1.524c-1.455-1.509-2.79-2.97-4.04-4.383-4.494-5.078-7.656-9.35-10.078-11.807-5.138-5.229-5.32-13.805-4.254-21.017C265.575,214.906,269.464,233.613,306.283,251.191Z" transform="translate(-209.287 -18.237)" fill="#fff"/>
      </g>
      <path id="Path_2419" data-name="Path 2419" d="M450.57,351.77a152.277,152.277,0,0,0-17.7-41.486,126.43,126.43,0,0,1-41.108,7.771,173.446,173.446,0,0,1-39.115-3.068,109.669,109.669,0,0,0-15.689-25.9c-9.984-12.246-24.287-29.774-30.909-37.793-4.533-5.49-8.756-14.379-11.4-34.924-2.908-22.6-8.934-86.719-24.756-63.239-19.107,28.354-16.942,95.088-15.523,109.648,5.591,57.391,39.031,80.938,41.3,113.455-3.324,33.475-17.363,52.745-24.006,72.6-11.452,34.227.156,64.568,5.564,72.982,6.474,10.071,19.124,20.743,20,30.211,2.4,26.068,12.012,34.133,19.134,26.751,17.489-18.133,22.556-25.769,26.28-34.764a23.226,23.226,0,0,0,1.431-10.176c-1.006-7.2,6.977-16.2,6.977-16.2,3.779-4.809,5.936-8.534,10.615-10.966a10.212,10.212,0,0,1,14.081,4.814c8.578,19.468,1.3,41.421-.153,46.394a23.373,23.373,0,0,0-.831,7.522c.3,7.153,7.979,16.17,12.752,23.126,6.326,9.222,15,24.509,26.781,25.042,16.525.749,12.917-12.954,12.917-12.954-2.094-12.931,23.944-25.555,33.161-60.59C482.614,455.5,458.9,384.96,450.57,351.77Z" transform="translate(-217.553 -57.891)" stroke="#000" stroke-miterlimit="10" stroke-width="1" fill="url(#linear-gradient-5)"/>
      <path id="Path_2420" data-name="Path 2420" d="M278.514,153.4c1.118,2.257,1.532,5.174,2.5,7.7-3.048-6.967-9.658-22.262-22.314,10.717C263.96,154.881,272.176,140.62,278.514,153.4Z" transform="translate(-213.998 -57.593)" fill="#fff"/>
      <path id="Path_2421" data-name="Path 2421" d="M366.247,348.729" transform="translate(-140.657 78.962)" fill="none" stroke="#000" stroke-miterlimit="10" stroke-width="1"/>
      <path id="Path_2422" data-name="Path 2422" d="M378.425,395.523" transform="translate(-132.353 110.872)" fill="none" stroke="#000" stroke-miterlimit="10" stroke-width="1"/>
      <path id="Path_2423" data-name="Path 2423" d="M362.677,372.579" transform="translate(-143.092 95.226)" fill="#727272" stroke="#000" stroke-miterlimit="10" stroke-width="1"/>
      <path id="Path_2424" data-name="Path 2424" d="M355.264,369.388" transform="translate(-148.147 93.05)" fill="#727272" stroke="#000" stroke-miterlimit="10" stroke-width="1"/>
      <path id="Path_2425" data-name="Path 2425" d="M337.38,407.178" transform="translate(-160.343 118.82)" fill="#727272"/>
      <path id="Path_2426" data-name="Path 2426" d="M269.441,302.419" transform="translate(-206.672 47.382)" fill="#fff" stroke="#000" stroke-miterlimit="10" stroke-width="1"/>
      <path id="Path_2427" data-name="Path 2427" d="M376.815,439.7s-24.114-35.139-49.54-47.674c0,0,.685-3.586,1.927-11.424,0,0,31.432,14.281,58.011,41.907C387.214,422.508,376.465,433.079,376.815,439.7Z" transform="translate(-167.234 100.696)" stroke="#000" stroke-miterlimit="10" stroke-width="1" fill="url(#linear-gradient-6)"/>
      <path id="Path_2428" data-name="Path 2428" d="M282.039,413.779S295.9,393.8,326.423,381.221c0,0,.959-7.037,2.311-9.367,0,0-22.042,1.551-49.366,26.2,0,0,.431,10.206,2.985,16.806" transform="translate(-199.903 94.731)" stroke="#000" stroke-miterlimit="10" stroke-width="1" fill="url(#linear-gradient-7)"/>
      <path id="Path_2429" data-name="Path 2429" d="M315.888,366.261s7.695-9.772,28.253-9.025" transform="translate(-174.999 84.735)" fill="none" stroke="#000" stroke-miterlimit="10" stroke-width="1"/>
      <path id="Path_2430" data-name="Path 2430" d="M319.945,394.6c-1.006-7.2,6.977-16.2,6.977-16.2,1.2-1.522,2.227-2.923,3.229-4.222l-.471-.6s7.081-12.64,31.151-13c0,0-68.46-24.994-51.242,11.6,11.435,24.3-3.049,45.974-14.486,61.372a83.3,83.3,0,0,1-6.235,8.265,8.744,8.744,0,0,0,3.366-2.274c17.489-18.133,22.556-25.769,26.28-34.762A23.24,23.24,0,0,0,319.945,394.6Z" transform="translate(-193.424 81.357)" opacity="0.3"/>
      <path id="Path_2431" data-name="Path 2431" d="M266.233,426.937a16.321,16.321,0,0,0,.563-2.346c2.471-16,70.688-61.441,39.764-106.222-47.969-69.46-51.985-98.455-52.165-98.793,7.123,53.381,38.461,76.44,40.657,107.884-3.323,33.475-17.363,52.745-24.006,72.6A94.2,94.2,0,0,0,266.233,426.937Z" transform="translate(-216.932 -9.112)" opacity="0.3"/>
      <g id="Group_476" data-name="Group 476" transform="translate(30.573 260.757)">
        <path id="Path_2432" data-name="Path 2432" d="M290.817,310.018s57.388,13.267,63.051,35.031l2.427-25.866S295.807,311.419,290.817,310.018Z" transform="translate(-222.669 -208.194)" fill="#fff" opacity="0.15"/>
        <path id="Path_2433" data-name="Path 2433" d="M279.375,299.441s69.95,38.291,176.566,11.514a290.408,290.408,0,0,1,3.049,29.094s-90.379,32.381-190.7-12.9Z" transform="translate(-238.028 -215.407)" stroke="#000" stroke-miterlimit="10" stroke-width="1" fill="url(#linear-gradient-8)"/>
        <path id="Path_2434" data-name="Path 2434" d="M286.614,295.513c-5.645,20.859-14.937,35.6-19.98,50.673a94.654,94.654,0,0,0-4.836,32.482c6.879,4.578,16.007,5.882,22.05,6.191a7.39,7.39,0,0,0,7.5-5.549c4.555-17.321,22.193-55.971,26.872-66.091a2.725,2.725,0,0,0-1.335-3.62Z" transform="translate(-242.477 -218.085)" opacity="0.3"/>
        <g id="Group_466" data-name="Group 466" transform="translate(63.508 104.973)">
          <g id="Group_465" data-name="Group 465">
            <path id="Path_2435" data-name="Path 2435" d="M294.149,311.89l.8,3.628,3.443,1.4-3.2,1.883-.265,3.706-2.781-2.464-3.607.894,1.484-3.406-1.964-3.154,3.7.359Z" transform="translate(-288.058 -311.89)" fill="#551907"/>
            <path id="Path_2436" data-name="Path 2436" d="M303.688,314.674l.717,3.646,3.41,1.476-3.246,1.809-.35,3.7-2.723-2.528-3.626.81,1.563-3.371-1.891-3.2,3.689.445Z" transform="translate(-281.591 -309.992)" fill="#551907"/>
            <path id="Path_2437" data-name="Path 2437" d="M313.1,316.2l1.023,3.572,3.522,1.183-3.081,2.076-.036,3.716-2.927-2.289-3.545,1.114,1.272-3.491-2.155-3.027,3.713.131Z" transform="translate(-275.026 -308.952)" fill="#551907"/>
            <path id="Path_2438" data-name="Path 2438" d="M355.975,316.743l2.03,3.112,3.715.092-2.333,2.892,1.06,3.561-3.472-1.325-3.059,2.109.187-3.711-2.951-2.258,3.587-.969Z" transform="translate(-245.032 -308.581)" fill="#551907"/>
            <path id="Path_2439" data-name="Path 2439" d="M366.4,315.254l2.119,3.052,3.716-.015-2.248,2.959,1.163,3.529-3.508-1.224-3,2.2.08-3.715-3.015-2.172,3.558-1.072Z" transform="translate(-237.833 -309.596)" fill="#551907"/>
            <path id="Path_2440" data-name="Path 2440" d="M376.412,313.381l2.334,2.891,3.7-.284-2.028,3.114,1.415,3.436-3.588-.967-2.83,2.408-.189-3.711-3.164-1.948,3.471-1.327Z" transform="translate(-230.771 -310.874)" fill="#551907"/>
          </g>
        </g>
        <g id="Group_468" data-name="Group 468" transform="translate(0 59.851)">
          <path id="Path_2441" data-name="Path 2441" d="M270.863,327.115s-9.947-18.989-19.137-4.476l6.679-34.093s14.416,1.706,15.718,10.7Z" transform="translate(-249.326 -282.687)" fill="#fff"/>
          <g id="Path_2442" data-name="Path 2442" transform="translate(-249.326 -282.687)" fill="none" stroke-miterlimit="10">
            <path d="M270.863,327.115s-9.991-19.071-19.137-4.476l6.679-34.093s14.416,1.706,15.718,10.7Z" stroke="none"/>
            <path d="M 270.863037109375 327.1153564453125 L 274.12255859375 299.2491760253906 C 272.8207397460938 290.2525024414063 258.4049377441406 288.5469970703125 258.4049377441406 288.5469970703125 L 251.7260131835938 322.6397094726563 C 254.2576599121094 318.5996704101563 256.8529968261719 317.1394653320313 259.2842712402344 317.1394653320313 C 265.6366271972656 317.1394653320313 270.863037109375 327.1153564453125 270.863037109375 327.1153564453125 M 271.4800415039063 330.4479064941406 L 269.9772338867188 327.5794372558594 C 269.9151306152344 327.4614868164063 264.9474792480469 318.1394653320313 259.2842712402344 318.1394653320313 C 256.9232788085938 318.1394653320313 254.6654205322266 319.8322143554688 252.5733795166016 323.1707153320313 L 249.7068023681641 327.7452392578125 L 250.7446594238281 322.4474487304688 L 257.423583984375 288.354736328125 L 257.601806640625 287.4450073242188 L 258.5224304199219 287.5539245605469 C 258.6751403808594 287.5719909667969 262.3069458007813 288.0146484375 266.1563110351563 289.5996704101563 C 268.4542236328125 290.5458374023438 270.3523559570313 291.7062683105469 271.7979431152344 293.0487365722656 C 273.6666870117188 294.7840881347656 274.7817687988281 296.8220520019531 275.1122436523438 299.10595703125 L 275.1309814453125 299.2354125976563 L 275.1157836914063 299.3653564453125 L 271.8562622070313 327.2315368652344 L 271.4800415039063 330.4479064941406 Z" stroke="none" fill="#020202"/>
          </g>
          <path id="Path_2443" data-name="Path 2443" d="M269.846,319.822S267.3,304.338,250.3,306.286l14.318-21.009s19.327,1.946,18.05,10.946Z" transform="translate(-250.299 -284.917)" fill="#fff"/>
          <path id="Path_2444" data-name="Path 2444" d="M269.846,319.968S267.3,304.683,250.3,306.432l14.564-21.369s19.082,2.306,17.8,11.306Z" transform="translate(-250.299 -285.063)" fill="none" stroke="#000" stroke-miterlimit="10" stroke-width="1.307"/>
          <g id="Group_467" data-name="Group 467" transform="translate(5.979 6.842)">
            <path id="Path_2445" data-name="Path 2445" d="M318.782,306.577s-25.956,55.05-27.5,70.382c0,0-33.156,2.476-37.431-19.364,0,0,4.923-19.063,14.431-35.95s19.436-26.608,19.436-26.608Z" transform="translate(-253.854 -285.104)" fill="#551907"/>
            <path id="Path_2446" data-name="Path 2446" d="M312.176,301.872c-7.138.543-17.068,3.64-25.424,14.868-.017-.005-.017-.005-.005.017-.752.976-1.47,2.018-2.175,3.139-12.25,19.325-20.516,12.344-23.246,8.919A8.628,8.628,0,0,1,264.48,326a6.168,6.168,0,0,0,2.873,1.719,1.408,1.408,0,0,0,.276.067,2.484,2.484,0,0,0,.35.072c1.462.271,3.26-.116,5.364-1.657a12.811,12.811,0,0,0,1.319-1.06,4.951,4.951,0,0,0,.442-.4c.133-.126.281-.247.42-.39l.027-.029c.066-.091.143-.16.209-.251.348-.338.668-.7,1.014-1.1a36.055,36.055,0,0,0,2.511-3.2c.209-.308.432-.611.646-.933.723-1.06,1.463-2.059,2.217-2.977.353-.412.678-.8,1.019-1.172.373-.424.76-.824,1.147-1.224.38-.383.762-.769,1.159-1.147.394-.362.78-.706,1.172-1.068a37.129,37.129,0,0,1,3.616-2.743c.422-.278.822-.543,1.233-.787s.824-.488,1.231-.715a38.663,38.663,0,0,1,7.184-3.137c1.14-.37,2.26-.671,3.323-.917.36-.074.7-.153,1.06-.227,1.014-.205,1.995-.363,2.91-.488.3-.056.584-.079.875-.118.562-.066,1.095-.1,1.611-.148.382-.029.742-.047,1.061-.059C311.293,301.894,311.765,301.874,312.176,301.872Z" transform="translate(-248.759 -280.443)" opacity="0.2"/>
            <g id="Path_2447" data-name="Path 2447" transform="translate(-253.824 -285.104)" fill="none" stroke-miterlimit="10">
              <path d="M318.348,307.438c-3.229,6.906-24.81,53.474-26.987,68.661a1.058,1.058,0,0,1-1.014.9c-5.293.2-32.068.274-36.387-18.764a2.638,2.638,0,0,1,.034-1.28c.94-3.436,5.774-20.244,14.261-35.315,9.508-16.887,19.436-26.608,19.436-26.608l30.162,11.207A.877.877,0,0,1,318.348,307.438Z" stroke="none"/>
              <path d="M 287.6916809082031 295.0369873046875 C 287.6916809082031 295.0369873046875 277.7632751464844 304.758544921875 268.2552795410156 321.6451416015625 C 259.7682800292969 336.7169189453125 254.9344177246094 353.5244750976563 253.9942016601563 356.9606323242188 C 253.8798522949219 357.3794555664063 253.8647155761719 357.8167419433594 253.9605712890625 358.2406005859375 C 257.8619079589844 375.4365844726563 280.0826416015625 377.0423278808594 288.2464294433594 377.0423278808594 C 289.1207885742188 377.0423278808594 289.8354187011719 377.0238647460938 290.3474731445313 377.0041809082031 C 290.8604431152344 376.9857177734375 291.2893371582031 376.6072998046875 291.3616638183594 376.0993041992188 C 293.5380859375 360.9115295410156 315.1189270019531 314.3438720703125 318.3482360839844 307.4378967285156 C 318.5668640136719 306.9702758789063 318.33642578125 306.4236755371094 317.853759765625 306.2437438964844 L 287.6916809082031 295.0369873046875 M 287.481689453125 294.0496520996094 L 287.9885559082031 294.2379760742188 L 318.150634765625 305.4447326660156 C 318.6063842773438 305.6146240234375 318.9721069335938 305.9682922363281 319.1549987792969 306.4153137207031 C 319.3365783691406 306.8591918945313 319.323974609375 307.3634643554688 319.1203918457031 307.7988891601563 C 317.3925170898438 311.4939880371094 311.2855529785156 324.6637268066406 305.2455749511719 338.9939880371094 C 297.6077270507813 357.1152038574219 293.0985412597656 369.9878234863281 292.2054138183594 376.22021484375 C 292.0752868652344 377.1343078613281 291.3067626953125 377.8225708007813 290.3781433105469 377.8560180664063 C 289.7109680175781 377.8816528320313 288.9930419921875 377.8947143554688 288.2464294433594 377.8947143554688 C 284.2444763183594 377.8947143554688 276.4504699707031 377.5045471191406 269.2155456542969 374.8916625976563 C 265.1902465820313 373.4378967285156 261.8322448730469 371.4747924804688 259.2348022460938 369.0568237304688 C 256.1270751953125 366.163818359375 254.0728759765625 362.5881652832031 253.1293029785156 358.42919921875 C 253.0049133300781 357.8789978027344 253.0196838378906 357.2937622070313 253.1719360351563 356.7361145019531 C 254.0645751953125 353.4737548828125 258.9506530761719 336.4317321777344 267.5125732421875 321.2269287109375 C 272.4530029296875 312.4524841308594 277.506591796875 305.6414489746094 280.8760681152344 301.4727783203125 C 284.5357666015625 296.945068359375 286.9925537109375 294.5286254882813 287.0953369140625 294.427978515625 L 287.481689453125 294.0496520996094 Z" stroke="none"/>
            </g>
            <path id="Path_2448" data-name="Path 2448" d="M257.681,340.209c-.878,2.686-1.806,5.712-2.755,9.1a19.232,19.232,0,0,1-.957-3.075,2.512,2.512,0,0,1,.027-1.278.778.778,0,0,0,.04-.192l.054-.17c.4-1.4,1.214-4.24,2.462-7.929.762-2.259,1.665-4.846,2.726-7.643.639-1.626,1.309-3.354,2.059-5.095q.58-1.41,1.229-2.858c1.219-2.767,2.578-5.621,4.055-8.437.027.511.059,1.061.1,1.594a12.921,12.921,0,0,0,2.826,4.424C268.088,319.264,263.549,322.52,257.681,340.209Z" transform="translate(-253.824 -273.1)" fill="#fff"/>
            <path id="Path_2449" data-name="Path 2449" d="M293.16,346.649s-32.888,5.3-37.9-20.684" transform="translate(-252.896 -264.013)" fill="none" stroke="#000" stroke-miterlimit="10" stroke-width="0.852"/>
            <path id="Path_2450" data-name="Path 2450" d="M313.608,310.6l-30.115-21.473s-24.08,8.522-21.914,41.13c0,0,5.592,15.94,18.278-2.742S313.608,310.6,313.608,310.6Z" transform="translate(-248.68 -289.131)" fill="#9b6720"/>
            <path id="Path_2451" data-name="Path 2451" d="M289.825,297.173l-3.678-6.105-1.949-1.393a1.961,1.961,0,0,0-2.017-.165c-4.318,2.19-21,11.8-20.388,38.018l-.005.017,0,.168a10.4,10.4,0,0,0,2.163,6.3,7.9,7.9,0,0,0,2.008,1.779l.015.024.054.027.027.02-.007-.01a6.334,6.334,0,0,0,.994.431,3.925,3.925,0,0,0,.626.14c2,.272,4.508-.5,7.55-3.5l.029-.029a2.262,2.262,0,0,1,.229-.269c-6.845,5.288-9.722,2.679-10.774.908a20.028,20.028,0,0,1-1.835-7.962l.007-.017c-.143-4.311.8-9.885,4.057-16.839C276.272,288.686,289.825,297.173,289.825,297.173Z" transform="translate(-248.452 -289.012)" fill="#fff"/>
            <g id="Path_2452" data-name="Path 2452" transform="translate(-248.457 -289.012)" fill="none" stroke-miterlimit="10">
              <path d="M312.508,309.861,284.2,289.676a1.949,1.949,0,0,0-2.013-.163c-4.316,2.185-21.1,11.849-20.4,38.2a10.442,10.442,0,0,0,2.166,6.292c2.526,3.145,7.522,5.4,15.677-6.607,10.988-16.18,28.261-17.021,32.688-16.957A.319.319,0,0,0,312.508,309.861Z" stroke="none"/>
              <path d="M 283.0548706054688 289.3062438964844 C 282.7592163085938 289.3062438964844 282.4626770019531 289.3739624023438 282.1880187988281 289.5126953125 C 277.8721618652344 291.6975402832031 261.0915832519531 301.3619079589844 261.7896118164063 327.7143859863281 C 261.85009765625 329.9849853515625 262.5329895019531 332.2370910644531 263.9559020996094 334.0064697265625 C 265.0244445800781 335.3368225097656 266.5353088378906 336.5084838867188 268.5396118164063 336.5084838867188 C 271.27392578125 336.5084838867188 274.9271240234375 334.329345703125 279.6331787109375 327.3998413085938 C 290.3053283691406 311.684814453125 306.9068298339844 310.439697265625 311.9084777832031 310.439697265625 C 312.0565185546875 310.439697265625 312.1942443847656 310.4407958984375 312.3215026855469 310.442626953125 C 312.3234558105469 310.4426574707031 312.3254699707031 310.4426574707031 312.3274230957031 310.4426574707031 C 312.6393127441406 310.4426574707031 312.7638854980469 310.0428771972656 312.5082092285156 309.8607177734375 L 284.2012939453125 289.6758728027344 C 283.8597106933594 289.4322814941406 283.4581298828125 289.3062438964844 283.0548706054688 289.3062438964844 M 283.0548706054688 288.4538879394531 C 283.6442565917969 288.4538879394531 284.2118225097656 288.636474609375 284.6961975097656 288.9819030761719 L 313.0030822753906 309.1667175292969 C 313.4215698242188 309.46484375 313.5979919433594 309.9935607910156 313.4417419433594 310.4821472167969 C 313.2862548828125 310.9683532714844 312.8384399414063 311.2950439453125 312.3274230957031 311.2950439453125 L 312.3085327148438 311.2948913574219 C 312.1856994628906 311.2931213378906 312.0520935058594 311.2920532226563 311.9084777832031 311.2920532226563 C 307.1448669433594 311.2920532226563 290.7901000976563 312.4881591796875 280.3383178710938 327.8787231445313 C 278.0896606445313 331.1897888183594 275.9117431640625 333.6629638671875 273.8650817871094 335.2295837402344 C 272.0175170898438 336.643798828125 270.2257690429688 337.3608703613281 268.5396118164063 337.3608703613281 C 266.5883178710938 337.3608703613281 264.7734985351563 336.3855285644531 263.2913513183594 334.5402526855469 C 261.8214416503906 332.7124328613281 261.0074157714844 330.3598022460938 260.9375305175781 327.7370910644531 C 260.7738647460938 321.5577392578125 261.5574340820313 315.8144226074219 263.2665100097656 310.6665954589844 C 264.6887817382813 306.3825988769531 266.7643127441406 302.4667663574219 269.4354248046875 299.0278015136719 C 273.6828918457031 293.5594482421875 278.5054016113281 290.4216003417969 281.8030395507813 288.7522277832031 C 282.1896362304688 288.5569152832031 282.6222839355469 288.4538879394531 283.0548706054688 288.4538879394531 Z" stroke="none"/>
            </g>
            <ellipse id="Ellipse_91" data-name="Ellipse 91" cx="6.684" cy="3.909" rx="6.684" ry="3.909" transform="matrix(0.271, -0.962, 0.962, 0.271, 14.94, 40.929)"/>
          </g>
          <path id="Path_2453" data-name="Path 2453" d="M261.323,289.442a2.673,2.673,0,0,1,3.505,1.416l.165.39,2.087,4.92-4.92,2.087-.39.166a2.674,2.674,0,0,1-3.5-1.416h0a2.673,2.673,0,0,1,1.416-3.505l.389-.165-.165-.39a2.671,2.671,0,0,1,1.416-3.5Z" transform="translate(-245.011 -282.222)" fill="#e52020"/>
          <path id="Path_2454" data-name="Path 2454" d="M254.374,305.016l3.964-.867,4.5,1.605-4.21-4.6Z" transform="translate(-247.52 -274.093)" fill="#b72020"/>
        </g>
        <path id="Path_2455" data-name="Path 2455" d="M321.559,363.222s9.57-31.449,1.907-113.557c0,0,21.547,1.129,26.342-.187,0,0,9.227,37.9,4.223,114.97Z" transform="translate(-201.705 -249.478)" stroke="#000" stroke-miterlimit="10" stroke-width="1" fill="url(#linear-gradient-9)"/>
        <g id="Group_473" data-name="Group 473" transform="translate(107.54 94.176)">
          <path id="Path_2456" data-name="Path 2456" d="M350.752,311.8s9.927,13.874,2.928,29.089l-6.919.856-2.979-28.956Z" transform="translate(-294.09 -301.157)" opacity="0.2"/>
          <circle id="Ellipse_92" data-name="Ellipse 92" cx="28.381" cy="28.381" r="28.381" transform="translate(1.138 0.838)" fill="url(#linear-gradient-10)"/>
          <path id="Path_2457" data-name="Path 2457" d="M365.754,332.631a27.614,27.614,0,0,1-28.552,26.66c-8.366-.286-14.865-5.264-19.714-11.318.291.7-.333-.663,0,0-2.276-4.523-3.416-6.662-3.231-12.068a31.512,31.512,0,0,1,32.571-30.416l-.269.585C357.888,309.821,366.183,320.1,365.754,332.631Z" transform="translate(-314.237 -305.471)" fill="#fff" opacity="0.2"/>
          <g id="Ellipse_93" data-name="Ellipse 93" transform="translate(1.138 0.838)" fill="none" stroke="#000" stroke-miterlimit="10" stroke-width="1">
            <circle cx="28.381" cy="28.381" r="28.381" stroke="none"/>
            <circle cx="28.381" cy="28.381" r="28.881" fill="none"/>
          </g>
          <g id="Group_472" data-name="Group 472" transform="translate(11.372 9.79)">
            <g id="Group_469" data-name="Group 469" transform="translate(15.027 0.002)">
              <line id="Line_18" data-name="Line 18" x1="1.454" y1="0.05" fill="url(#linear-gradient-11)"/>
            </g>
            <g id="Group_470" data-name="Group 470">
              <path id="Path_2458" data-name="Path 2458" d="M338.732,334l-1.66-4.965-1.455-.049,1.662,4.965a1.744,1.744,0,0,0,1.67,1.167l1.455.051A1.744,1.744,0,0,1,338.732,334Z" transform="translate(-311.03 -299.224)"/>
              <path id="Path_2459" data-name="Path 2459" d="M332.1,316.668l4.07,13.048,1.454.05-4.07-13.048Z" transform="translate(-313.431 -307.625)"/>
              <path id="Path_2460" data-name="Path 2460" d="M335.683,311.3a2.283,2.283,0,0,0-.294.054c-.025.007-.052.008-.076.015l-.037.007c-.027.007-.042.03-.069.039a1.806,1.806,0,0,0-.619.363,1.93,1.93,0,0,0-.158.153,2.455,2.455,0,0,0-.478.76L321.06,344.717a1.733,1.733,0,0,0-.061.449,1,1,0,0,0,.3.745.978.978,0,0,0,.723.355l1.453.05a.981.981,0,0,1-.723-.355,1,1,0,0,1-.3-.745,1.735,1.735,0,0,1,.061-.449l12.892-32.024a2.446,2.446,0,0,1,.478-.762,1.954,1.954,0,0,1,.158-.151,1.788,1.788,0,0,1,.621-.363c.037-.012.066-.037.1-.047.023-.007.052-.008.076-.013a2.492,2.492,0,0,1,.637-.064l-1.453-.049A2.561,2.561,0,0,0,335.683,311.3Z" transform="translate(-320.999 -311.292)"/>
            </g>
            <g id="Group_471" data-name="Group 471" transform="translate(1.453 0.049)">
              <path id="Path_2461" data-name="Path 2461" d="M357.419,345.964a1.214,1.214,0,0,1,.045.451,1.071,1.071,0,0,1-.355.723,1.008,1.008,0,0,1-.747.306l-6.58-.225a1.743,1.743,0,0,1-1.672-1.169l-1.66-4.965L333.2,340.63l-1.981,4.841a1.776,1.776,0,0,1-1.761,1.051l-6.566-.225a.981.981,0,0,1-.723-.355,1,1,0,0,1-.3-.745,1.737,1.737,0,0,1,.061-.449l12.892-32.024a2,2,0,0,1,2.074-1.4l7.885.271a1.972,1.972,0,0,1,1.973,1.539ZM335.59,333.1l9.008.308-4.07-13.048L335.59,333.1" transform="translate(-321.863 -311.321)" fill="#fff"/>
            </g>
          </g>
        </g>
        <g id="Group_475" data-name="Group 475" transform="translate(119.854)">
          <g id="Group_474" data-name="Group 474" clip-path="url(#clip-path)">
            <path id="Path_2462" data-name="Path 2462" d="M358.527,339.3s-14.5-11.494-18.949-28.2-7.081-33.188-12.371-45.646l-4.689,1.734-3.487,88.988s39.858,10.115,39.808,9.279S358.527,339.3,358.527,339.3Z" transform="translate(-323.282 -238.584)" fill="#fff" opacity="0.15"/>
          </g>
        </g>
      </g>
      <path id="Path_2464" data-name="Path 2464" d="M384.466,454.55c-1.384,91.534-25.757,68.991-22.476,87.407,3.616,3.312,7.634,5.641,12.1,5.843,16.525.747,12.917-12.954,12.917-12.954-2.094-12.932,23.944-25.555,33.161-60.592,22.24-84.527-1.477-155.072-9.8-188.262a152.253,152.253,0,0,0-17.7-41.486,126.43,126.43,0,0,1-41.108,7.771,173.442,173.442,0,0,1-39.115-3.068S385.85,363.009,384.466,454.55Z" transform="translate(-177.349 7.888)" opacity="0.3"/>
      <path id="Path_2465" data-name="Path 2465" d="M297.412,216.262s-13.728-6.578-27.557-3.243c0,0,21.641-3.329,19.6-9.1C289.46,203.92,292.453,212.246,297.412,216.262Z" transform="translate(-206.39 -19.788)" opacity="0.3"/>
      <path id="Path_2466" data-name="Path 2466" d="M320.095,360.412a5.629,5.629,0,0,0-.754,1.547,10.171,10.171,0,0,1,12.118,5.592c8.58,19.468,1.3,41.423-.151,46.394a23.318,23.318,0,0,0-.831,7.52c.2,4.819,3.751,10.477,7.5,15.787.257-.389.415-.629.415-.629s-9.959-10.216-4.719-21.631c3.224-7.024,12.709-55.551-10.835-55.867C322.841,359.125,320.421,359.934,320.095,360.412Z" transform="translate(-172.644 86.051)" opacity="0.3"/>
      <path id="Path_2467" data-name="Path 2467" d="M315.93,490.612s-13.324-31.058-4.109-66.47" transform="translate(-179.987 130.388)" fill="none" stroke="#fff" stroke-miterlimit="10" stroke-width="1"/>
      <path id="Path_2468" data-name="Path 2468" d="M296.612,467.243s-2.43-26.835,30.209-70.279" transform="translate(-188.172 111.855)" fill="none" stroke="#fff" stroke-miterlimit="10" stroke-width="1"/>
      <path id="Path_2469" data-name="Path 2469" d="M433.573,279.707s5.352-5.2,11.1-15.277" transform="translate(-94.746 21.476)" fill="none" stroke="#fff" stroke-miterlimit="10" stroke-width="0.5"/>
      <path id="Path_2470" data-name="Path 2470" d="M246.457,170.161s4.24-19.312,20.683-33.016" transform="translate(-222.346 -65.324)" fill="none" stroke="#fff" stroke-miterlimit="10" stroke-width="1"/>
      <path id="Path_2471" data-name="Path 2471" d="M241.844,156.538s7.649-18.23,26.294-28.748" transform="translate(-225.492 -71.703)" fill="none" stroke="#fff" stroke-miterlimit="10" stroke-width="1"/>
    </g>
  </g>
</svg>
