<svg xmlns="http://www.w3.org/2000/svg" xmlns:xlink="http://www.w3.org/1999/xlink" viewBox="0 0 208.19 369.22"><defs><style>.cls-1,.cls-21,.cls-22{fill:none;}.cls-12,.cls-13,.cls-14,.cls-16,.cls-2,.cls-21,.cls-22,.cls-26,.cls-29{stroke:#000;}.cls-12,.cls-13,.cls-14,.cls-16,.cls-2,.cls-21,.cls-22,.cls-26{stroke-miterlimit:10;}.cls-2{fill:url(#linear-gradient);}.cls-3{opacity:0.3;}.cls-4{fill:#799d39;}.cls-5{fill:url(#linear-gradient-2);}.cls-6{fill:#4c6013;}.cls-15,.cls-28,.cls-29,.cls-7{fill:#fff;}.cls-8{fill:url(#linear-gradient-3);}.cls-28,.cls-9{opacity:0.2;}.cls-10{fill:url(#linear-gradient-4);}.cls-11{fill:#a4c127;}.cls-12{fill:url(#linear-gradient-5);}.cls-13{fill:url(#linear-gradient-6);}.cls-14{fill:url(#linear-gradient-7);}.cls-15{opacity:0.15;}.cls-16{fill:url(#linear-gradient-8);}.cls-17{fill:#551907;}.cls-18{fill:url(#linear-gradient-9);}.cls-19{fill:#020202;}.cls-20{fill:url(#linear-gradient-10);}.cls-21{stroke-width:1.31px;}.cls-22{stroke-width:0.85px;}.cls-23{fill:#9b6720;}.cls-24{fill:#e52020;}.cls-25{fill:#b72020;}.cls-26{fill:url(#linear-gradient-11);}.cls-27{fill:url(#linear-gradient-12);}.cls-30{clip-path:url(#clip-path);}</style><linearGradient id="linear-gradient" x1="203.61" y1="172.77" x2="99.77" y2="172.77" gradientUnits="userSpaceOnUse"><stop offset="0" stop-color="#e87f2e"/><stop offset="1" stop-color="#da6329"/></linearGradient><linearGradient id="linear-gradient-2" x1="197.19" y1="168.38" x2="149.49" y2="121.78" gradientTransform="translate(-76.98 -45.26) rotate(-1.55)" gradientUnits="userSpaceOnUse"><stop offset="0" stop-color="#93b734"/><stop offset="1" stop-color="#77a142"/></linearGradient><linearGradient id="linear-gradient-3" x1="115.25" y1="109.63" x2="242.17" y2="172.06" gradientTransform="translate(-76.98 -45.26) rotate(-1.55)" xlink:href="#linear-gradient"/><linearGradient id="linear-gradient-4" x1="102.22" y1="58.18" x2="141.2" y2="91.42" gradientTransform="translate(-76.98 -45.26) rotate(-1.55)" gradientUnits="userSpaceOnUse"><stop offset="0" stop-color="#a4c127"/><stop offset="1" stop-color="#799d39"/></linearGradient><linearGradient id="linear-gradient-5" x1="21.48" y1="192" x2="149.99" y2="192" xlink:href="#linear-gradient"/><linearGradient id="linear-gradient-6" x1="95.97" y1="304.61" x2="130.39" y2="302.54" gradientUnits="userSpaceOnUse"><stop offset="0" stop-color="#f49a2e"/><stop offset="0.41" stop-color="#f4bb2e"/><stop offset="1" stop-color="#f49a2e"/></linearGradient><linearGradient id="linear-gradient-7" x1="47.25" y1="291.14" x2="77.43" y2="289.33" xlink:href="#linear-gradient-6"/><linearGradient id="linear-gradient-8" x1="36.36" y1="222.78" x2="148.89" y2="216.01" xlink:href="#linear-gradient-6"/><linearGradient id="linear-gradient-9" x1="-889.75" y1="-194.88" x2="-872.03" y2="-199.46" gradientTransform="translate(814.75 657.02) rotate(17.37)" gradientUnits="userSpaceOnUse"><stop offset="0.08" stop-color="#fff"/><stop offset="1" stop-color="#231f20"/></linearGradient><linearGradient id="linear-gradient-10" x1="-885.7" y1="-201.34" x2="-855.86" y2="-193.14" gradientTransform="translate(814.75 657.02) rotate(17.37)" gradientUnits="userSpaceOnUse"><stop offset="0" stop-color="#fff"/><stop offset="1" stop-color="#231f20"/></linearGradient><linearGradient id="linear-gradient-11" x1="221.35" y1="158.48" x2="246.49" y2="156.97" gradientTransform="translate(-144.67 45.95) rotate(-3.42)" xlink:href="#linear-gradient-6"/><linearGradient id="linear-gradient-12" x1="-74.62" y1="-13.89" x2="-40.87" y2="-13.89" gradientTransform="translate(157.01 244.26) rotate(1.96)" xlink:href="#linear-gradient-6"/><clipPath id="clip-path" transform="translate(0)"><path class="cls-1" d="M89.55,222.66s5.69-18.7,1.13-67.51c0,0,12.82.67,15.67-.11,0,0,5.48,22.53,2.51,68.35Z"/></clipPath></defs><title>Asset 8@3xyh2</title><g id="Layer_2" data-name="Layer 2"><g id="Layer_1-2" data-name="Layer 1"><path class="cls-2" d="M171.73,164.4c-9.4,1.89-13.66,1-16.41-.59-4-2.35-12.78-7.39-18.9-10.91a37.2,37.2,0,0,0-7.33-3.2,70.84,70.84,0,0,1-13,3.7C110.91,164.89,99.69,190,99.77,190c14.76-4.06,27.42,10.57,53.58,4.28,6.63-1.59,36.78-11.31,48.35-26.5C211.29,155.16,182.08,162.31,171.73,164.4Z" transform="translate(0)"/><path class="cls-3" d="M195.77,173.86c-2.8.95-5.86,1.95-9.11,3-10.36,3.26-15.79-5.58-18.26-11.84-7.12,1.07-10.68.22-13.08-1.18-4-2.35-12.78-7.39-18.9-10.91a37.2,37.2,0,0,0-7.33-3.2c-1.12.44-2.27.85-3.45,1.24,1.13,12.21,3.84,37.32,3.84,38.31,0,.47,2.6,3.15,5.89,6.34a53.85,53.85,0,0,0,18-1.35C159,192.87,182,185.52,195.77,173.86Z" transform="translate(0)"/><path class="cls-4" d="M126,46.49a5,5,0,0,0,1.54-5.12c-3.24-11.81-14.81-52.12-51.94-36.62a11.19,11.19,0,0,0,2.85-.5c9.28-2.68,38.4-7.42,43.6,42.36a1.44,1.44,0,0,0,1.82,1.17A5.93,5.93,0,0,0,126,46.49Z" transform="translate(0)"/><circle class="cls-4" cx="75.61" cy="4.75" r="4.75"/><path class="cls-5" d="M81.65,45,62.31,73.61,47.82,109.36s.89,16.76,1.82,18.29,37.84,22,37.84,22L114,147.33l31.26-12.55,14.58-16.31-8.27-27.83-14-35.41-16-19.78-35.16-.93Z" transform="translate(0)"/><path class="cls-6" d="M68.23,80.67c26.05-5,31.54,13.9,31.54,13.9S89.1,75.63,66.28,84.17,68.23,80.67,68.23,80.67Z" transform="translate(0)"/><path class="cls-6" d="M149,86.85c-25-9-33.33,8.8-33.33,8.8s13.5-17,34.71-5S149,86.85,149,86.85Z" transform="translate(0)"/><path class="cls-7" d="M99.78,116a45.08,45.08,0,0,0,11.66,2.31c5,.32,11.62,1.22,10.72,3.74-1.42,4-6.1,5.78-19.29,4.61s-16.56-7.73-14.32-10.22c1-1.08,2.85-1.44,4.65-1.49a18.67,18.67,0,0,1,6.58,1Z" transform="translate(0)"/><path class="cls-6" d="M122,122.3c-.61,3.82-9.2,6.31-20.22,5.33-13.19-1.18-16.55-7.72-14.32-10.21a2.66,2.66,0,0,1,.73-.6c2.91,3.34,3.45,2.49,15.81,4.66C113.36,123.11,117,120.57,122,122.3Z" transform="translate(0)"/><path class="cls-3" d="M56.94,117.66A241,241,0,0,1,70.7,82.81c9.57-19.12,22.93-37.35,32.4-36a43.27,43.27,0,0,1,32.12,22l1.48-6.33-28-29.05L92.08,38.71,65.16,76l-9.63,25.15-1,16.57Z" transform="translate(0)"/><path class="cls-8" d="M165.41,108.11c-5.25-17.67-22.93-69-56.91-91.86a3.83,3.83,0,0,0-4.57.19l-3.38,2.73a10.15,10.15,0,0,1-5.91,2.28c-13.49.71-65.76,8.34-73.45,83.62,0,0-.79,9.15,14.7-1,0,0-5.51,14,.55,20.17S56.59,156,103.69,154.68c35.34-1,53.35-23.25,60.14-34.33A15.16,15.16,0,0,0,165.41,108.11Zm-12.26,13c-3.51,5.52-15.92,20.56-47.14,21.4-30,.81-43.95-14.37-48.58-21a8.75,8.75,0,0,1-1.51-6.12C61,74.22,90.29,44.57,98.2,37.23a3.93,3.93,0,0,1,4.39-.63c40.74,19.9,49.9,69.73,51.43,80.48A6,6,0,0,1,153.15,121.14Z" transform="translate(0)"/><path class="cls-7" d="M77.66,52.9c-20.17,28.34-23.83,51.42-24,57.48C53.56,76.16,77.86,53.84,77.66,52.9Z" transform="translate(0)"/><path class="cls-9" d="M42.21,85.48l-6.86,19c-14.93,9.59-14.17.64-14.17.64a129.09,129.09,0,0,1,7.61-33.4C12.43,127.7,41.66,86.26,42.21,85.48Z" transform="translate(0)"/><path class="cls-7" d="M28,108.22l-.93.3c-.13,0-.25,0-.37.09-.34.07-.65.14-1,.18-2,.27-3.1-.25-3.74-1a2.74,2.74,0,0,1-.39-.57,4.26,4.26,0,0,1-.45-2.15c.07-.59.12-1.17.2-1.75s.13-1.16.2-1.73c.14-1.14.29-2.27.46-3.38.06-.44.12-.89.19-1.33q.42-2.64.9-5.14c.1-.5.2-1,.29-1.48,0-.05,0-.11,0-.16.1-.5.2-1,.31-1.46.28-1.27.56-2.52.87-3.74.13-.54.27-1.08.41-1.61.39-1.47.8-2.91,1.23-4.31.14-.46.28-.9.42-1.35s.22-.7.34-1,.29-.9.45-1.35l.64-1.81c.19-.5.36-1,.55-1.48,0-.1.07-.19.11-.28a48.85,48.85,0,0,1,3.5-8A205.31,205.31,0,0,0,24.21,91.1C22,101.42,21.83,109.77,28,108.22Z" transform="translate(0)"/><path d="M106.33,15.59a3.87,3.87,0,0,1,2.17.66c34,22.85,51.66,74.19,56.91,91.86a15.16,15.16,0,0,1-1.58,12.24c-6.79,11.08-24.8,33.38-60.14,34.33-1.15,0-2.27,0-3.37,0-44.4,0-58-24.46-63.88-30.48s-.55-20.17-.55-20.17c-5.52,3.62-9,4.78-11.13,4.78a3.39,3.39,0,0,1-3.57-3.79c7.69-75.28,60-82.91,73.45-83.62a10.15,10.15,0,0,0,5.91-2.28l3.38-2.73a3.79,3.79,0,0,1,2.4-.85m-2.62,127,2.3,0c31.22-.84,43.63-15.88,47.14-21.4a6,6,0,0,0,.87-4.06c-1.53-10.75-10.69-60.58-51.43-80.48a4.59,4.59,0,0,0-2-.44,3.94,3.94,0,0,0-2.68,1C90,44.46,61,74.22,55.92,115.44a8.7,8.7,0,0,0,1.51,6.12c4.51,6.44,17.87,21,46.28,21m2.62-128a4.83,4.83,0,0,0-3,1.07L99.92,18.4a9.15,9.15,0,0,1-5.33,2.05,75.93,75.93,0,0,0-39.44,14C35.26,48.93,23.5,72.64,20.19,105a5,5,0,0,0,1.15,3.56,4.44,4.44,0,0,0,3.42,1.33c2.29,0,5.42-1.16,9.3-3.46C32.74,110.93,30.91,120,35.72,125c.73.74,1.62,1.82,2.65,3.07,7.39,9,22.78,27.71,62,27.71,1.11,0,2.26,0,3.4,0,15.59-.42,29.5-5,41.34-13.56a74.78,74.78,0,0,0,19.63-21.25,16.2,16.2,0,0,0,1.68-13,258.53,258.53,0,0,0-17.75-44.17c-11.52-22.1-24.82-38.33-39.56-48.24a4.9,4.9,0,0,0-2.73-.83Zm-2.62,127c-28,0-41.12-14.39-45.47-20.58a7.76,7.76,0,0,1-1.33-5.43c5.18-41.95,35.65-72.09,41.7-77.7a2.93,2.93,0,0,1,2-.7,3.58,3.58,0,0,1,1.54.34c40.46,19.76,49.48,69.87,50.88,79.72a5,5,0,0,1-.72,3.39c-3.84,6-16,20.11-46.32,20.93l-2.28,0Z" transform="translate(0)"/><path class="cls-9" d="M97,21a56,56,0,0,0-9.37,8.64h0c-27.33-3.59-48.24,23.37-55.33,34C50.54,26.7,84.2,22,94.64,21.45A9.89,9.89,0,0,0,97,21Z" transform="translate(0)"/><path d="M72.84,32.45s4.12-2.17,3.68,5.23S71.58,47,69.15,46.17c-.91-.31-1.36-1.34-1.56-2.51a8.49,8.49,0,0,1,1.71-6.54Z" transform="translate(0)"/><path class="cls-10" d="M74,38.77a5.49,5.49,0,0,0-.32-5.89c-7.69-11-34.66-48.21-67-20-.36.31-.1,1.22-.46,1.55,0,0,35.05-33.41,63.68,26a1.6,1.6,0,0,0,2.34.54A6.82,6.82,0,0,0,74,38.77Z" transform="translate(0)"/><circle class="cls-11" cx="6.05" cy="14.23" r="5.94"/><path class="cls-4" d="M7.64,8.46a5.93,5.93,0,0,1-3,10.93A6.1,6.1,0,0,1,2.42,19,5.94,5.94,0,1,0,7.64,8.46Z" transform="translate(0)"/><polygon points="33.96 106.82 44.28 79.78 34.9 107.16 33.96 106.82"/><path d="M99.6,19.86c-1.39.84-2.76,1.79-4.07,2.77s-2.6,2-3.83,3.15S89.28,28,88.16,29.25A48.54,48.54,0,0,0,85,33.08a46.59,46.59,0,0,1,3-4q1.61-1.92,3.39-3.68c1.18-1.17,2.42-2.3,3.7-3.36a48.66,48.66,0,0,1,4-3Z" transform="translate(0)"/><path d="M55.92,115.44a82.35,82.35,0,0,1,2.06-13c.57-2.12,1-4.26,1.74-6.34S61,92,61.8,89.91l1.14-3.08c.37-1,.86-2,1.28-3,.91-2,1.7-4,2.75-6s2-3.93,3-5.84l3.34-5.67c.54-1,1.18-1.85,1.8-2.76L77,60.84l1.87-2.71c.64-.89,1.34-1.73,2-2.6L85,50.37c1.46-1.64,3-3.24,4.44-4.85l2.22-2.42c.75-.81,1.58-1.52,2.37-2.28l4.78-4.51L100,35.2l1.28-1,2.56-2.06L108.93,28l-5,4.29-2.48,2.14-1.24,1.07-1.16,1.15-4.67,4.59c-.76.78-1.58,1.51-2.3,2.32L90,46l-4.33,4.89-4,5.16c-.66.86-1.36,1.7-2,2.59l-1.83,2.7L76,64.09c-.61.9-1.24,1.79-1.77,2.74A134.28,134.28,0,0,0,62.52,90.18,107,107,0,0,0,55.92,115.44Z" transform="translate(0)"/><path class="cls-3" d="M156.75,123.5l-6.14,12.82h0a71,71,0,0,1-12,8.8c-.69.4-1.41.8-2.13,1.19a73,73,0,0,1-32.77,8.36c-16.19.44-28.47-2.29-37.89-6.32l-.13-.06-5.2-2.52a64.3,64.3,0,0,1-18-14.51c7.32,4.39,33.08,17.88,63.58,11.27,31.22-.85,43.63-15.89,47.14-21.39a6,6,0,0,0,.87-4.08c-1.52-10.74-10.69-60.57-51.43-80.47a4.35,4.35,0,0,0-4.66.52C90,44.46,61,74.21,55.92,115.44a8.82,8.82,0,0,0,1.5,6.13,42.43,42.43,0,0,0,3,3.76c-.75-.75-7-7.21-6.75-15,.16-6.06,3.82-29.14,24-57.48l0,0A198.51,198.51,0,0,1,103.8,23.26a5.65,5.65,0,0,1,6.67-.8C116.12,25.65,126,33.37,133.17,44c10.52,15.55,19.74,34,25.68,61.65A27.82,27.82,0,0,1,156.75,123.5Z" transform="translate(0)"/><path class="cls-4" d="M74,38.77a7.14,7.14,0,0,1-1.73,2.15A1.61,1.61,0,0,1,70,40.37S79.38,34.83,48.85,9c-4.6-3.9-11-5.89-18.56-6.5C51.61,2.05,68,24.75,73.7,32.89A5.47,5.47,0,0,1,74,38.77Z" transform="translate(0)"/><path class="cls-4" d="M4.91,8.41a5.89,5.89,0,0,1,3.83.26,6.22,6.22,0,0,1,3.63,6.62A6.34,6.34,0,0,1,6.8,20.6a6.24,6.24,0,0,1-3.92-.9A6.3,6.3,0,0,1,.36,16.65a6,6,0,0,1-.08-3.84,6,6,0,0,0,3,6.22,5.59,5.59,0,0,0,6.52-.87,5.48,5.48,0,0,0,1.65-3A5.79,5.79,0,0,0,11,11.69,5.94,5.94,0,0,0,4.91,8.41Z" transform="translate(0)"/><path class="cls-7" d="M57.78,138.5c-.84-.36-3.88-1.5-6.66-2.71-3-1.29-5.73-1.77-4.6-.24l-.64-.61-.15-.16c-.31-.3-.61-.6-.9-.91-.86-.89-1.66-1.76-2.4-2.6-2.67-3-4.55-5.56-6-7-3.06-3.11-3.16-8.21-2.53-12.5C33.58,116.93,35.89,128.05,57.78,138.5Z" transform="translate(0)"/><path class="cls-12" d="M138.65,174.73a90.64,90.64,0,0,0-10.52-24.67,74.86,74.86,0,0,1-24.44,4.62,103.31,103.31,0,0,1-23.26-1.82,65,65,0,0,0-9.32-15.4c-5.94-7.28-14.44-17.7-18.38-22.47-2.7-3.26-5.21-8.55-6.78-20.76-1.73-13.44-5.31-51.56-14.72-37.6C19.87,73.49,21.16,113.16,22,121.82c3.33,34.12,23.21,48.12,24.56,67.46-2,19.9-10.32,31.36-14.27,43.16-6.81,20.35.09,38.39,3.31,43.39,3.84,6,11.37,12.34,11.88,18,1.43,15.49,7.15,20.29,11.38,15.9,10.4-10.78,13.41-15.32,15.63-20.67a13.87,13.87,0,0,0,.85-6c-.6-4.28,4.14-9.63,4.14-9.63,2.25-2.86,3.53-5.07,6.32-6.52a6.07,6.07,0,0,1,8.37,2.86c5.1,11.58.77,24.63-.09,27.59a13.78,13.78,0,0,0-.5,4.47c.18,4.25,4.75,9.61,7.58,13.75,3.77,5.48,8.93,14.57,15.93,14.89,9.82.44,7.68-7.7,7.68-7.7-1.25-7.69,14.23-15.2,19.71-36C157.71,236.4,143.61,194.46,138.65,174.73Z" transform="translate(0)"/><path class="cls-7" d="M38.47,57c.67,1.34.91,3.08,1.49,4.58-1.81-4.14-5.74-13.24-13.27,6.37C29.82,57.84,34.7,49.36,38.47,57Z" transform="translate(0)"/><path class="cls-13" d="M124.72,321.3S110.38,300.4,95.27,293c0,0,.4-2.13,1.14-6.79a126.42,126.42,0,0,1,34.49,24.91S124.51,317.36,124.72,321.3Z" transform="translate(0)"/><path class="cls-14" d="M49,302.34S57.19,290.46,75.34,283c0,0,.57-4.18,1.37-5.57,0,0-13.1.92-29.35,15.58,0,0,.26,6.07,1.77,10" transform="translate(0)"/><path d="M83.49,267.83a13.4,13.4,0,0,1,3.81-2.74,21.16,21.16,0,0,1,4.32-1.59,27.66,27.66,0,0,1,4.51-.71c.76-.06,1.52-.05,2.28-.08l2.27.07-2.27.05c-.75.07-1.51.11-2.25.21a27.23,27.23,0,0,0-4.41.94,20.07,20.07,0,0,0-4.09,1.77,12.78,12.78,0,0,0-3.39,2.7Z" transform="translate(0)"/><path class="cls-3" d="M75.34,283c-.6-4.28,4.14-9.63,4.14-9.63.72-.9,1.33-1.74,1.93-2.51l-.29-.36s4.21-7.51,18.53-7.73c0,0-40.71-14.86-30.47,6.9C76,284.1,67.37,297,60.57,306.14a49.79,49.79,0,0,1-3.71,4.91,5.21,5.21,0,0,0,2-1.35c10.4-10.78,13.41-15.32,15.63-20.67A13.87,13.87,0,0,0,75.34,283Z" transform="translate(0)"/><path class="cls-3" d="M29.43,248.42a9.37,9.37,0,0,0,.33-1.39c1.47-9.52,42-36.53,23.64-63.16-28.52-41.3-30.91-58.54-31-58.74,4.23,31.74,22.86,45.45,24.17,64.15-2,19.9-10.32,31.36-14.27,43.16A55.71,55.71,0,0,0,29.43,248.42Z" transform="translate(0)"/><path class="cls-15" d="M58.81,215.58s34.12,7.88,37.49,20.82L97.74,221S61.78,216.41,58.81,215.58Z" transform="translate(0)"/><path class="cls-16" d="M42.87,205s41.59,22.77,105,6.85a171.78,171.78,0,0,1,1.81,17.29S95.93,248.4,36.29,221.47Z" transform="translate(0)"/><path class="cls-3" d="M44.53,201.07c-3.35,12.4-8.88,21.17-11.88,30.13a56.3,56.3,0,0,0-2.87,19.31c4.09,2.72,9.52,3.5,13.11,3.68a4.39,4.39,0,0,0,4.46-3.3c2.71-10.3,13.19-33.27,16-39.29a1.63,1.63,0,0,0-.8-2.15Z" transform="translate(0)"/><polygon class="cls-17" points="59.67 217.45 60.15 219.61 62.2 220.44 60.29 221.56 60.13 223.76 58.48 222.29 56.34 222.83 57.22 220.8 56.05 218.93 58.25 219.14 59.67 217.45"/><polygon class="cls-17" points="69.19 220.23 69.61 222.4 71.64 223.28 69.71 224.35 69.5 226.55 67.88 225.05 65.73 225.53 66.66 223.53 65.53 221.63 67.73 221.89 69.19 220.23"/><polygon class="cls-17" points="78.69 221.76 79.29 223.88 81.39 224.59 79.56 225.82 79.53 228.03 77.79 226.67 75.69 227.33 76.44 225.25 75.16 223.45 77.37 223.53 78.69 221.76"/><polygon class="cls-17" points="122.01 222.3 123.22 224.15 125.43 224.21 124.04 225.93 124.67 228.04 122.61 227.26 120.79 228.51 120.9 226.3 119.14 224.96 121.28 224.38 122.01 222.3"/><polygon class="cls-17" points="132.49 220.81 133.75 222.63 135.96 222.62 134.62 224.38 135.31 226.47 133.23 225.75 131.45 227.05 131.49 224.84 129.7 223.55 131.82 222.92 132.49 220.81"/><polygon class="cls-17" points="142.64 218.94 144.03 220.66 146.23 220.49 145.03 222.34 145.87 224.38 143.74 223.81 142.05 225.24 141.94 223.03 140.06 221.88 142.12 221.09 142.64 218.94"/><path class="cls-18" d="M31.1,217s-5.92-11.29-11.38-2.66l4-20.28s8.57,1,9.34,6.37Z" transform="translate(0)"/><path class="cls-19" d="M23.69,194.1s8.57,1,9.34,6.37L31.1,217s-3.11-5.93-6.89-5.94c-1.44,0-3,.87-4.49,3.28l4-20.28m-.8-1.1-.18.91-4,20.27-1,5.3,2.86-4.57c1.17-1.86,2.4-2.81,3.65-2.81,2.6,0,5.21,3.9,6,5.4l1.5,2.87.38-3.22L34,200.58v-.13l0-.13c-.87-6-9.83-7.16-10.21-7.21l-.92-.11Z" transform="translate(0)"/><path class="cls-20" d="M29.91,211.37s-1.51-9.2-11.62-8l8.51-12.5s11.5,1.16,10.74,6.51Z" transform="translate(0)"/><path class="cls-21" d="M29.91,211.37s-1.51-9.08-11.62-8L27,190.62S38.3,192,37.54,197.34Z" transform="translate(0)"/><path class="cls-17" d="M60.45,207.46S45,240.19,44.1,249.3c0,0-19.71,1.47-22.25-11.51a101.09,101.09,0,0,1,8.58-21.38A76.27,76.27,0,0,1,42,200.6Z" transform="translate(0)"/><path class="cls-9" d="M59.55,207.43c-4.24.32-10.15,2.16-15.11,8.84,0,0,0,0,0,0a22.7,22.7,0,0,0-1.29,1.87c-7.28,11.49-12.2,7.33-13.82,5.3a5.09,5.09,0,0,1,1.87-1.67,3.77,3.77,0,0,0,1.71,1l.17,0,.2,0a4.13,4.13,0,0,0,3.19-1,7,7,0,0,0,.79-.63l.26-.23c.08-.08.17-.15.25-.24h0c0-.06.09-.1.13-.15a7.73,7.73,0,0,0,.6-.66,18.3,18.3,0,0,0,1.49-1.9l.39-.55c.43-.63.87-1.23,1.32-1.77.21-.25.4-.48.6-.7l.68-.73.69-.68.7-.64a22.54,22.54,0,0,1,2.15-1.63l.73-.47c.25-.14.49-.29.74-.42a23.33,23.33,0,0,1,4.27-1.87c.68-.21,1.34-.39,2-.54l.63-.14c.61-.12,1.19-.21,1.73-.29l.52-.06,1-.09.63,0Z" transform="translate(0)"/><path d="M42,200.6l17.94,6.66a.52.52,0,0,1,.29.71c-1.92,4.1-14.75,31.79-16.05,40.82a.62.62,0,0,1-.6.54l-1.25,0c-4.85,0-18.06-.95-20.38-11.18a1.51,1.51,0,0,1,0-.76,101.48,101.48,0,0,1,8.48-21A76.27,76.27,0,0,1,42,200.6m-.21-1-.38.38a76.44,76.44,0,0,0-11.71,16,103,103,0,0,0-8.56,21.19,2.44,2.44,0,0,0,0,1.17c2.42,10.69,15.64,11.84,21.21,11.84l1.28,0A1.49,1.49,0,0,0,45,248.91c1.29-9,14.47-37.37,16-40.58a1.4,1.4,0,0,0,0-1.1,1.38,1.38,0,0,0-.8-.77L42.28,199.8l-.51-.19Z" transform="translate(0)"/><path class="cls-7" d="M24.14,234.59c-.52,1.6-1.08,3.4-1.64,5.41a11.18,11.18,0,0,1-.57-1.83,1.51,1.51,0,0,1,0-.76.36.36,0,0,0,0-.11l0-.1c.24-.83.73-2.52,1.47-4.72.45-1.34,1-2.88,1.62-4.54.38-1,.78-2,1.22-3,.23-.56.48-1.12.73-1.7.73-1.64,1.54-3.34,2.41-5,0,.3,0,.63.06,1a7.69,7.69,0,0,0,1.68,2.63C30.33,222.14,27.63,224.07,24.14,234.59Z" transform="translate(0)"/><path class="cls-22" d="M45.78,243.82S26.23,247,23.25,231.52" transform="translate(0)"/><path class="cls-23" d="M60.45,207.46,42.54,194.69s-14.31,5.07-13,24.45c0,0,3.32,9.48,10.86-1.63S60.45,207.46,60.45,207.46Z" transform="translate(0)"/><path class="cls-7" d="M46.44,199.54l-2.18-3.63-1.16-.83a1.18,1.18,0,0,0-1.2-.1c-2.57,1.31-12.49,7-12.12,22.61h0v.1a6.2,6.2,0,0,0,1.28,3.75,4.71,4.71,0,0,0,1.2,1.06h0v0h0a3.42,3.42,0,0,0,.59.26l.37.08c1.19.16,2.68-.3,4.49-2.08l0,0,.13-.16c-4.07,3.14-5.78,1.59-6.4.54a11.73,11.73,0,0,1-1.09-4.73h0a22.15,22.15,0,0,1,2.41-10C38.39,194.5,46.44,199.54,46.44,199.54Z" transform="translate(0)"/><path d="M42.42,194.86a1.2,1.2,0,0,1,.68.22l16.83,12a.19.19,0,0,1-.11.34h-.25a23.29,23.29,0,0,0-19.19,10.08c-2.8,4.12-5,5.42-6.59,5.42a3.53,3.53,0,0,1-2.73-1.49,6.2,6.2,0,0,1-1.29-3.74C29.36,202,39.33,196.29,41.9,195a1.06,1.06,0,0,1,.52-.13m0-.85h0a2,2,0,0,0-.9.22c-3.93,2-13,8.25-12.6,23.49A6.9,6.9,0,0,0,30.4,222a4.31,4.31,0,0,0,3.39,1.81c2.26,0,4.65-1.89,7.3-5.79a22.48,22.48,0,0,1,18.48-9.71h.24a1,1,0,0,0,.61-1.89l-16.83-12a2,2,0,0,0-1.17-.38Z" transform="translate(0)"/><ellipse cx="34.04" cy="215.83" rx="3.97" ry="2.32" transform="translate(-182.93 190.03) rotate(-74.25)"/><path class="cls-24" d="M28,194.91a1.59,1.59,0,0,1,2.08.85l.1.23,1.24,2.92-2.92,1.24-.24.1a1.58,1.58,0,0,1-2.08-.84h0a1.59,1.59,0,0,1,.84-2.08l.24-.1-.1-.23a1.59,1.59,0,0,1,.84-2.09Z" transform="translate(0)"/><polygon class="cls-25" points="22.37 209.01 24.72 208.49 27.4 209.44 24.9 206.71 22.37 209.01"/><path class="cls-26" d="M89.55,222.66s5.69-18.7,1.13-67.51c0,0,12.82.67,15.67-.11,0,0,5.48,22.53,2.51,68.35Z" transform="translate(0)"/><path class="cls-9" d="M115.92,217.36s5.9,8.24,1.74,17.29l-4.12.51-1.77-17.22Z" transform="translate(0)"/><circle class="cls-27" cx="99.78" cy="228.4" r="16.87"/><path class="cls-28" d="M112.86,227.18a16.42,16.42,0,0,1-17,15.85c-5-.17-8.83-3.13-11.72-6.73.18.42-.2-.4,0,0-1.35-2.69-2-4-1.92-7.18A18.74,18.74,0,0,1,101.61,211l-.16.35A16.14,16.14,0,0,1,112.86,227.18Z" transform="translate(0)"/><path d="M99.77,211.53h.59a16.87,16.87,0,0,1-.57,33.73H99.2a16.87,16.87,0,0,1,.57-33.73m0-1h0a17.87,17.87,0,0,0-.6,35.73h.62a17.87,17.87,0,0,0,.6-35.73Z" transform="translate(0)"/><path id="Path_402" data-name="Path 402" d="M109.7,225.69,96,217.52a3.15,3.15,0,0,0-4.76,2.71v10.3a1.29,1.29,0,0,0,1.19,1.4h.21a4.08,4.08,0,0,0,1.8-.68l-.17-.27-.52-.86a7.08,7.08,0,0,1,.68-1.31l-1.19-.91,1.13-.66a2,2,0,0,1,1.61,0s3.57-2.64,7.38-1.7a.43.43,0,0,1,.32.51c-.81,3.85-4.74,5.91-4.74,5.91a2,2,0,0,1-.71,1.45l-1.07.73-.31-1.47a6.58,6.58,0,0,1-1.47,0L95,232.2l-.19-.3c-1.59.9-3.62,2.49-3.62,4.67A3.16,3.16,0,0,0,96,239.28l13.72-8.17a3.16,3.16,0,0,0,1.09-4.32A3.22,3.22,0,0,0,109.7,225.69Z" transform="translate(0)"/><path id="Path_403" data-name="Path 403" class="cls-29" d="M110.7,225.69,97,217.52a3.15,3.15,0,0,0-4.77,2.71v10.3a1.29,1.29,0,0,0,1.19,1.4h.21a4,4,0,0,0,1.8-.68l-.16-.27-.52-.86a6.48,6.48,0,0,1,.67-1.31l-1.18-.91,1.12-.66a2,2,0,0,1,1.61,0s3.57-2.64,7.38-1.7a.43.43,0,0,1,.32.51c-.81,3.85-4.74,5.91-4.74,5.91a1.94,1.94,0,0,1-.7,1.45l-1.08.73-.31-1.47a6.47,6.47,0,0,1-1.46,0L96,232.2l-.2-.3c-1.58.9-3.62,2.49-3.62,4.67A3.16,3.16,0,0,0,97,239.28l13.72-8.17a3.16,3.16,0,0,0,0-5.42Z" transform="translate(0)"/><g class="cls-30"><path class="cls-15" d="M110.51,214.92s-8.62-6.84-11.27-16.77S95,178.42,91.89,171l-2.79,1L87,225s23.7,6,23.67,5.52S110.51,214.92,110.51,214.92Z" transform="translate(0)"/></g><path class="cls-3" d="M123.26,275c-.83,54.42-15.32,41-13.37,52a11.64,11.64,0,0,0,7.2,3.48c9.82.44,7.68-7.7,7.68-7.7-1.25-7.69,14.23-15.2,19.71-36,13.23-50.26-.87-92.2-5.83-111.93a90.64,90.64,0,0,0-10.52-24.67,75.12,75.12,0,0,1-24.44,4.62,103.31,103.31,0,0,1-23.26-1.82S124.08,220.52,123.26,275Z" transform="translate(0)"/><path class="cls-3" d="M54.23,116.82s-8.16-3.91-16.38-1.93c0,0,12.86-2,11.65-5.41C49.5,109.48,51.28,114.43,54.23,116.82Z" transform="translate(0)"/><path class="cls-3" d="M87.78,265.45a3.72,3.72,0,0,0-.45.92,6,6,0,0,1,7.21,3.32c5.1,11.58.77,24.63-.09,27.59a13.78,13.78,0,0,0-.5,4.47c.13,2.86,2.23,6.23,4.46,9.38l.25-.37s-5.92-6.07-2.8-12.86c1.91-4.18,7.55-33-6.45-33.22A6.06,6.06,0,0,0,87.78,265.45Z" transform="translate(0)"/><path class="cls-7" d="M80.94,369.22a49.21,49.21,0,0,1-3.21-9.55,59.16,59.16,0,0,1-1.49-10c-.15-1.68-.12-3.37-.14-5.06s.09-3.37.35-5a50.18,50.18,0,0,1,2-9.87c-.23,1.67-.64,3.29-.79,5l-.32,2.48c-.09.83-.11,1.66-.18,2.49-.14,1.66-.12,3.33-.17,5s0,3.33.19,5a80.68,80.68,0,0,0,1.25,9.9c.3,1.64.66,3.27,1.07,4.89S80.42,367.63,80.94,369.22Z" transform="translate(0)"/><path class="cls-7" d="M64.59,344.31A34.92,34.92,0,0,1,66,332.83,68,68,0,0,1,70,322a95.34,95.34,0,0,1,5.65-10.12c1.08-1.61,2.19-3.18,3.28-4.77s2.36-3.05,3.58-4.55c-1,1.63-2.12,3.22-3.17,4.83s-2,3.25-3,4.9a112,112,0,0,0-5.41,10.14A76.89,76.89,0,0,0,66.71,333l-.8,2.76c-.2.93-.46,1.86-.62,2.8A28.76,28.76,0,0,0,64.59,344.31Z" transform="translate(0)"/><path class="cls-7" d="M201.55,179.05a43.3,43.3,0,0,0,3.42-4.44l1.53-2.35c.54-.76,1.05-1.54,1.64-2.28l.05,0a19.94,19.94,0,0,1-1.27,2.53,26.57,26.57,0,0,1-1.62,2.31,35,35,0,0,1-3.72,4.25Z" transform="translate(0)"/><path class="cls-7" d="M14.45,62.33A25.25,25.25,0,0,1,16,56.63a33,33,0,0,1,2.67-5.31c.51-.85,1.11-1.65,1.68-2.46a29.53,29.53,0,0,1,1.92-2.27,26.21,26.21,0,0,1,4.46-3.89c-1.35,1.44-2.68,2.86-3.87,4.4a46.08,46.08,0,0,0-3.34,4.75,51.29,51.29,0,0,0-2.8,5.09A57,57,0,0,0,14.45,62.33Z" transform="translate(0)"/><path class="cls-7" d="M9.84,50.44a25.1,25.1,0,0,1,2.57-5.32A32.38,32.38,0,0,1,16,40.38c.66-.75,1.39-1.43,2.09-2.12a29.59,29.59,0,0,1,2.3-1.89,25.68,25.68,0,0,1,5.09-3c-1.59,1.17-3.15,2.32-4.6,3.62a46.89,46.89,0,0,0-4.14,4.08,51.41,51.41,0,0,0-3.67,4.5A55.74,55.74,0,0,0,9.84,50.44Z" transform="translate(0)"/></g></g></svg>