<svg xmlns="http://www.w3.org/2000/svg" viewBox="0 0 53.03 67.99"><defs><style>.cls-1{fill:#fff193;}.cls-2{fill:#ffb658;}.cls-3{fill:#f57733;}.cls-4{fill:#d15d1f;}.cls-5{fill:#ff9932;}.cls-6{fill:#fff;}.cls-7{fill:#ece0d6;}</style></defs><title>bird@3xyh2</title><g id="Layer_2" data-name="Layer 2"><g id="Layer_1-2" data-name="Layer 1"><path class="cls-1" d="M52.57,22.87c-1-1.44-3.52-1.92-6-1.05-2.85,1-4.63,3.34-4,5.24a2.47,2.47,0,0,0,.44.75C43.22,27.91,48.8,30.27,52.57,22.87Z"/><path class="cls-2" d="M52.89,23.47a2.46,2.46,0,0,0-.32-.6c-3.77,7.4-9.35,5-9.57,4.94,1.07,1.32,3.49,1.74,5.92.9C51.77,27.72,53.55,25.37,52.89,23.47Z"/><path d="M49,22.38a3.26,3.26,0,0,1,2.71,1.06,1.58,1.58,0,0,1,.19.36c.47,1.35-1.06,3.17-3.35,4a6.71,6.71,0,0,1-2.17.38,3.44,3.44,0,0,1-2.65-1,1.43,1.43,0,0,1-.26-.45c-.47-1.35,1.06-3.17,3.35-4A6.73,6.73,0,0,1,49,22.38m0-1a7.64,7.64,0,0,0-2.51.44c-2.85,1-4.63,3.34-4,5.24a2.47,2.47,0,0,0,.44.75,4.32,4.32,0,0,0,3.42,1.33,7.83,7.83,0,0,0,2.5-.43c2.85-1,4.63-3.34,4-5.24a2.46,2.46,0,0,0-.32-.6A4.21,4.21,0,0,0,49,21.38Z"/><ellipse class="cls-3" cx="28.03" cy="60.79" rx="7.69" ry="4.65" transform="translate(-38.88 58.98) rotate(-63.7)"/><path class="cls-4" d="M23.24,66.28a12.62,12.62,0,0,1,2.68-7.36,2.25,2.25,0,0,1,1.64-.83,5.44,5.44,0,0,1,5.25,3.32c1.16-3.33.65-6.52-1.37-7.52-2.3-1.13-5.7,1-7.58,4.84C22.47,61.55,22.29,64.49,23.24,66.28Z"/><path d="M30.1,54.59a2,2,0,0,1,.9.2c1.77.88,1.92,4.37.31,7.62C29.82,65.41,27.5,67,26,67a2,2,0,0,1-.9-.2,3.24,3.24,0,0,1-1.4-2.67,9.65,9.65,0,0,1,1.09-5c1.48-3,3.81-4.58,5.34-4.58m0-1c-2.14,0-4.7,2-6.24,5.14-1.88,3.8-1.54,7.81.77,9A2.9,2.9,0,0,0,26,68c2.14,0,4.69-2,6.24-5.14,1.88-3.81,1.54-7.82-.77-9a3.06,3.06,0,0,0-1.34-.3Z"/><ellipse class="cls-5" cx="25.99" cy="63.82" rx="2.13" ry="1.23" transform="translate(-42.88 61.54) rotate(-65.94)"/><ellipse class="cls-5" cx="28.51" cy="64.87" rx="1.54" ry="0.51" transform="translate(-41.44 53.54) rotate(-57.08)"/><path d="M27.58,64.54a5.33,5.33,0,0,1-.88,2,2.78,2.78,0,0,1-.9.79,2.45,2.45,0,0,1-1.29.22l.21-1a1.44,1.44,0,0,0,.8.06,2.32,2.32,0,0,0,.82-.43A5.09,5.09,0,0,0,27.58,64.54Z"/><path class="cls-1" d="M26.29,20.77C24.63,1.75,30.57,0,30.57,0c-2,14.29,3.79,19.67,3.79,19.67v0a19.74,19.74,0,1,1-8.07,1.08Z"/><path class="cls-2" d="M29.44,5.35a73,73,0,0,0-2.09,16.11L27.12,21l-.67-2.73L26.7,12l1.41-8.06,1.33-2Z"/><path class="cls-6" d="M37.57,29a4.68,4.68,0,0,1,2.21.94c2,1.52,6,5.69,3.38,13.41-2.49,7.26-9.18,6-12.72,4.71a8,8,0,0,1-5.19-6c-.42-2.25.06-5.17,2.92-8.58C28.17,33.54,32,28.23,37.57,29Z"/><ellipse class="cls-3" cx="20.44" cy="60.79" rx="7.69" ry="4.65" transform="translate(-43.11 52.18) rotate(-63.7)"/><path class="cls-4" d="M15.64,66.28a12.62,12.62,0,0,1,2.69-7.36A2.23,2.23,0,0,1,20,58.09a5.47,5.47,0,0,1,5.25,3.32c1.16-3.33.64-6.52-1.37-7.52-2.31-1.13-5.7,1-7.58,4.84C14.87,61.55,14.7,64.49,15.64,66.28Z"/><path d="M22.51,54.59a2,2,0,0,1,.9.2,3.2,3.2,0,0,1,1.39,2.67,9.63,9.63,0,0,1-1.08,4.95c-1.49,3-3.82,4.58-5.35,4.58a2,2,0,0,1-.89-.2c-1.78-.88-1.92-4.37-.31-7.62,1.48-3,3.81-4.58,5.34-4.58m0-1c-2.14,0-4.7,2-6.24,5.14-1.88,3.8-1.54,7.81.76,9a3,3,0,0,0,1.34.31c2.14,0,4.7-2,6.24-5.14,1.88-3.81,1.54-7.82-.76-9a3.09,3.09,0,0,0-1.34-.3Z"/><ellipse class="cls-5" cx="18.4" cy="63.82" rx="2.13" ry="1.23" transform="translate(-47.37 54.6) rotate(-65.94)"/><ellipse class="cls-5" cx="20.91" cy="64.87" rx="1.54" ry="0.51" transform="translate(-44.9 47.17) rotate(-57.08)"/><path d="M20,64.54a5.16,5.16,0,0,1-.87,2,2.78,2.78,0,0,1-.9.79,2.45,2.45,0,0,1-1.29.22l.21-1a1.44,1.44,0,0,0,.8.06,2.2,2.2,0,0,0,.81-.43A4.83,4.83,0,0,0,20,64.54Z"/><path class="cls-7" d="M25.25,42.12a8,8,0,0,0,5.19,6c2.77,1,7.46,2,10.56-1.09-.19,0-10,2.06-12.49-5.66-1.89-6,2.37-10.05,4.48-11.65a13.24,13.24,0,0,0-4.82,3.86C25.31,37,24.83,39.87,25.25,42.12Z"/><path d="M31.82,43.4a1.25,1.25,0,0,0,.93.4,1.3,1.3,0,0,0,1.3-1.3,1.28,1.28,0,0,0-.66-1.1A2.09,2.09,0,0,1,35,41.11c1.33.37,2,2.22,1.45,4.14s-2,3.17-3.36,2.8-2-2.21-1.45-4.13A4.56,4.56,0,0,1,31.82,43.4Z"/><path class="cls-2" d="M40.48,54.85a34,34,0,0,0,5.18-.4A19.76,19.76,0,0,1,13.23,41.16,33.9,33.9,0,0,0,40.48,54.85Z"/><path d="M29.32,2.54c-.93,13.56,4.19,17.75,4.42,17.93l.24.19.31,0a18.75,18.75,0,1,1-7.67,1l.73-.25-.07-.77c-1-11,.68-16,2-18.15M30.57,0s-5.94,1.75-4.28,20.77a19.77,19.77,0,1,0,8.07-1.08S28.77,15.3,30.57,0Z"/><path d="M36.43,29.94h0a6.61,6.61,0,0,1,1,.08,3.67,3.67,0,0,1,1.75.74c2.15,1.63,5.4,5.39,3,12.3-1.16,3.38-3.34,5-6.68,5a14.64,14.64,0,0,1-4.75-.93,7,7,0,0,1-4.55-5.21c-.45-2.47.45-5.07,2.7-7.75l0,0,0,0s3.12-4.19,7.46-4.19m0-1c-4.92,0-8.26,4.6-8.26,4.6-2.86,3.41-3.34,6.33-2.92,8.58a8,8,0,0,0,5.19,6,15.3,15.3,0,0,0,5.09,1c3,0,6.1-1.24,7.63-5.7C45.8,35.66,41.79,31.49,39.78,30A4.68,4.68,0,0,0,37.57,29a7.49,7.49,0,0,0-1.14-.09Z"/><path class="cls-6" d="M45.47,39c0,.23-.1.47-.16.7-.37,1.52-1.91,8.71,1.7,10.1,4,1.55,5.4-8.73,5.4-8.73s.85-5.09-1.51-7.79A1.59,1.59,0,0,0,49,32.9C47.89,33.47,46.35,35,45.47,39Z"/><path class="cls-7" d="M44.66,46.31c.22,1.67.86,3.14,2.31,3.7,4.14,1.59,5.54-8.95,5.54-8.95a14.31,14.31,0,0,0-.31-5.63,17.06,17.06,0,0,1-1.32,9.23C50,46.67,48,49.54,44.66,46.31Z"/><path d="M46.05,44.76l.12,0a.93.93,0,0,0,.66-1.68,1,1,0,0,1,.82-.44c.77.1,1.2,1.66,1,3.48s-1,3.22-1.82,3.12-1.2-1.66-1-3.48A7.62,7.62,0,0,1,46.05,44.76Z"/><path d="M49.71,33.51a.65.65,0,0,1,.49.23c2.08,2.37,1.33,7.11,1.32,7.19-.45,3.32-1.93,8.24-3.72,8.24a1.17,1.17,0,0,1-.47-.1c-2.43-.93-1.85-6.2-1.13-9.18.06-.24.11-.48.17-.73.85-3.89,2.29-5.17,3.06-5.58a.55.55,0,0,1,.28-.07m0-1a1.55,1.55,0,0,0-.75.19c-1.09.58-2.66,2.13-3.57,6.24,0,.24-.1.48-.16.72-.38,1.56-2,8.93,1.74,10.35a2.34,2.34,0,0,0,.83.16c3.5,0,4.71-9.11,4.71-9.11s.87-5.21-1.56-8a1.65,1.65,0,0,0-1.24-.57Z"/><path d="M34.46,19.76a8.27,8.27,0,0,0,1.12,1.38A14.76,14.76,0,0,0,37,22.37a18.27,18.27,0,0,0,3.21,1.94,18,18,0,0,1-3.49-1.53,14,14,0,0,1-1.6-1.08,8.59,8.59,0,0,1-1.45-1.39Z"/><path class="cls-1" d="M8.13,18.45c1.26-1.22,3.82-1.22,6.13.11,2.62,1.51,3.92,4.15,2.92,5.89a2.59,2.59,0,0,1-.57.66C16.37,25.16,10.44,26.44,8.13,18.45Z"/><path class="cls-2" d="M7.71,19a2.45,2.45,0,0,1,.42-.54c2.31,8,8.24,6.71,8.48,6.66-1.3,1.09-3.76,1.05-6-.23C8,23.37,6.7,20.73,7.71,19Z"/><path class="cls-2" d="M0,36.16a2.8,2.8,0,0,1,1-1.82C3.64,42.28,10.63,38,10.7,38c-.68,1.59-3,2.61-5.6,2.35C2.09,40-.18,38.16,0,36.16Z"/><path class="cls-1" d="M1,34.34a6.39,6.39,0,0,1,4.79-1.28c3,.29,5.28,2.15,5.08,4.16a2.45,2.45,0,0,1-.19.74C10.63,38,3.64,42.28,1,34.34Z"/><path d="M10.73,18.55h0a6.19,6.19,0,0,1,3,.88,6.13,6.13,0,0,1,2.42,2.43A2.31,2.31,0,0,1,16.31,24a1.54,1.54,0,0,1-.35.39,2.78,2.78,0,0,1-1.82.55,6.15,6.15,0,0,1-3-.88C9,22.8,7.86,20.73,8.57,19.49a1.74,1.74,0,0,1,.26-.32,2.71,2.71,0,0,1,1.9-.62m0-1a3.67,3.67,0,0,0-2.6.9,2.45,2.45,0,0,0-.42.54c-1,1.74.29,4.38,2.91,5.89a7.18,7.18,0,0,0,3.52,1,3.86,3.86,0,0,0,2.47-.78,2.59,2.59,0,0,0,.57-.66c1-1.74-.3-4.38-2.92-5.89a7.18,7.18,0,0,0-3.53-1Z"/><path d="M5,34H5l.69,0c2.41.24,4.33,1.64,4.19,3.07a1.8,1.8,0,0,1-.12.44c-.45,1.06-2,1.79-3.89,1.79q-.34,0-.69,0A6.14,6.14,0,0,1,2,38.1a2.27,2.27,0,0,1-1-1.85,1.79,1.79,0,0,1,.67-1.16A5.14,5.14,0,0,1,5,34m0-1a6.08,6.08,0,0,0-4,1.32,2.8,2.8,0,0,0-1,1.82c-.19,2,2.08,3.86,5.09,4.15a7.09,7.09,0,0,0,.79,0c2.28,0,4.2-1,4.81-2.39a2.45,2.45,0,0,0,.19-.74c.2-2-2.08-3.87-5.08-4.16A7.09,7.09,0,0,0,5,33Z"/></g></g></svg>