<svg xmlns="http://www.w3.org/2000/svg" width="20" height="20.001" viewBox="0 0 20 20.001"><defs><style>.a{fill-rule:evenodd;}</style></defs><path class="a" d="M922.3-1402.422h-.908l-.316-.313a7.4,7.4,0,0,0,1.793-4.832,7.433,7.433,0,0,0-7.433-7.433,7.433,7.433,0,0,0-7.433,7.433,7.433,7.433,0,0,0,7.433,7.433,7.4,7.4,0,0,0,4.831-1.791l.316.313v.906L926.3-1395l1.7-1.7-5.7-5.718Zm-6.863,0a5.145,5.145,0,0,1-5.146-5.146,5.146,5.146,0,0,1,5.146-5.146,5.146,5.146,0,0,1,5.146,5.146,5.145,5.145,0,0,1-5.146,5.146Z" transform="translate(-908 1415)"/></svg>